<svg xmlns="http://www.w3.org/2000/svg" xmlns:xlink="http://www.w3.org/1999/xlink" width="887" height="768" viewBox="0 0 887 768"><defs><clipPath id="a"><rect width="887" height="768" transform="translate(479)" fill="#fff"/></clipPath></defs><g transform="translate(-479)" clip-path="url(#a)"><rect width="178" height="823" rx="89" transform="translate(479 -274)" fill="#4ac3e9" opacity="0.3"/><rect width="176" height="772" rx="88" transform="translate(657 -142)" fill="#ffe269" opacity="0.3"/><rect width="177" height="928" rx="88.5" transform="translate(833 -218)" fill="#3a7ce1" opacity="0.3"/><rect width="178" height="881" rx="89" transform="translate(1010 -274)" fill="#f2898b" opacity="0.3"/><rect width="178" height="830" rx="89" transform="translate(1188 -125)" fill="#7ed6a5" opacity="0.3"/><g transform="translate(520)"><text transform="translate(182 279)" fill="#364661" font-size="32" font-family="Roboto-Bold, Roboto" font-weight="700"><tspan x="0" y="0">ALL YOUR PROGRAMMING NEEDS</tspan></text><text transform="translate(180 365)" fill="#364661" font-size="77" font-family="Roboto-Bold, Roboto" font-weight="700"><tspan x="0" y="0">IN ONE PLACE</tspan></text></g><ellipse cx="88" cy="88.5" rx="88" ry="88.5" transform="translate(657 453)" fill="#ffe269"/><circle cx="89" cy="89" r="89" transform="translate(1010 429)" fill="#f2898b"/><circle cx="89" cy="89" r="89" transform="translate(1188 527)" fill="#7ed6a5"/><ellipse cx="88.5" cy="89" rx="88.5" ry="89" transform="translate(833 533)" fill="#3a7ce1"/><circle cx="89" cy="89" r="89" transform="translate(479 371)" fill="#4ac3e9"/><g transform="translate(775.064 207)"><path d="M133.834,347.057c-.053-.723-.074-1.446-.074-2.127h.8c0,.681,0,1.383.064,2.127Z" transform="translate(-133.76 -206.824)" fill="#fff"/><path d="M216.185,415.783h-.138v-.8h.149c1.351,0,2.723,0,4.1-.1v.8C218.95,415.783,217.557,415.783,216.185,415.783Zm-5.478-.17c-1.425-.085-2.861-.213-4.255-.372l.085-.8c1.393.16,2.819.287,4.255.372Zm14.955-.34-.085-.8c1.393-.149,2.808-.33,4.255-.542l.128.787c-1.468.234-2.893.425-4.3.574Zm-24.517-.787c-1.383-.234-2.8-.521-4.2-.83l.181-.777c1.383.309,2.787.585,4.159.819Zm34.037-.755-.17-.776c1.383-.3,2.766-.628,4.127-.989l.2.766c-1.393.394-2.787.723-4.18,1.021Zm-43.4-1.4c-1.361-.383-2.734-.819-4.084-1.276l.255-.755c1.34.457,2.7.883,4.053,1.266Zm52.683-1.064-.245-.755c1.319-.425,2.67-.9,4.01-1.393l.277.745c-1.372.479-2.734.957-4.063,1.383Zm-61.777-2.032c-1.308-.532-2.638-1.064-3.925-1.7l.33-.723c1.287.585,2.6,1.159,3.893,1.681Zm70.776-1.372-.319-.734c1.3-.564,2.585-1.17,3.829-1.8l.362.713c-1.287.617-2.585,1.234-3.893,1.8Zm-79.519-2.712c-1.255-.67-2.51-1.383-3.723-2.127l.4-.691c1.2.713,2.446,1.415,3.7,2.127Zm88.039-1.691-.415-.691c1.213-.723,2.4-1.489,3.574-2.287l.447.66c-1.17.819-2.393,1.564-3.606,2.3ZM165.7,400.19c-1.191-.8-2.361-1.638-3.5-2.478l.479-.638c1.127.84,2.287,1.659,3.468,2.457Zm104.239-2.223-.489-.628c1.064-.872,2.191-1.787,3.244-2.712l.532.6c-1.117.915-2.223,1.84-3.34,2.723Zm-111.876-3.574c-1.064-.915-2.18-1.872-3.191-2.829l.542-.585c1.064.947,2.127,1.893,3.191,2.808Zm119.066-2.819-.564-.564c.979-.968,1.968-2,2.946-3.053l.585.543c-1.032,1.042-2.032,2.074-3.021,3.053Zm-126.15-3.787c-.979-1.064-1.947-2.127-2.872-3.191l.606-.51c.915,1.064,1.872,2.127,2.851,3.191Zm132.574-3.329-.606-.51c.893-1.064,1.787-2.191,2.648-3.319l.638.489C285.354,382.257,284.461,383.373,283.557,384.458ZM144.77,380.438c-.862-1.159-1.691-2.34-2.457-3.521l.659-.436c.766,1.17,1.585,2.34,2.436,3.478Zm144.658-3.606-.649-.457c.808-1.149,1.617-2.319,2.415-3.5l.659.447q-1.2,1.787-2.436,3.51Zm-149.859-4.51c-.691-1.276-1.34-2.563-1.915-3.84l.734-.33c.564,1.255,1.191,2.532,1.883,3.787Zm155.188-3.478-.681-.425c.755-1.2,1.489-2.4,2.223-3.627l.691.4c-.745,1.234-1.489,2.446-2.244,3.648Zm-159.049-5.318a42.428,42.428,0,0,1-1.138-4.148l.777-.17c.3,1.33.67,2.7,1.117,4.063Zm163.974-2.893-.691-.393c.691-1.223,1.393-2.468,2.074-3.712l.7.383c-.7,1.213-1.393,2.5-2.1,3.68Zm4.627-8.413-.713-.372c.67-1.245,1.33-2.51,1.989-3.765l.7.362c-.67,1.223-1.33,2.457-1.989,3.733Zm4.425-8.509-.713-.362c.638-1.255,1.287-2.521,1.925-3.8l.713.362Zm4.308-8.562-.713-.362,1.9-3.808.723.351Zm4.255-8.584-.713-.351c.628-1.266,1.276-2.542,1.915-3.808l.713.362q-.947,1.84-1.883,3.744Zm4.34-8.509-.713-.372,1.957-3.787.713.372c-.628,1.181-1.287,2.436-1.925,3.659Zm4.446-8.509-.7-.383c.67-1.244,1.351-2.489,2.032-3.733l.7.383c-.649,1.181-1.33,2.425-2,3.67Zm4.659-8.424-.691-.394c.7-1.223,1.4-2.457,2.127-3.68l.691.4C332.145,298.674,331.443,299.9,330.741,301.121Zm4.861-8.211-.681-.415q1.117-1.819,2.266-3.606l.67.425C337.123,290.505,336.346,291.707,335.6,292.909Zm5.159-8.031-.659-.436c.787-1.181,1.6-2.361,2.414-3.521l.649.457c-.808,1.159-1.617,2.329-2.4,3.5Zm5.52-7.807-.638-.479c.84-1.138,1.712-2.276,2.585-3.393l.628.489c-.872,1.117-1.734,2.244-2.574,3.382Zm5.9-7.52-.606-.511c.9-1.064,1.83-2.127,2.766-3.244l.606.532c-.936,1.064-1.872,2.138-2.766,3.223Zm6.329-7.158-.585-.542c.979-1.064,1.968-2.064,2.968-3.074l.564.564c-1,1.01-2,2.021-2.946,3.053Zm6.765-6.744-.542-.585q1.553-1.447,3.191-2.872l.532.606C367.352,253.735,366.309,254.681,365.278,255.649Zm7.19-6.276-.5-.628c1.064-.893,2.244-1.787,3.361-2.638l.479.638C374.7,247.587,373.574,248.47,372.468,249.374Zm7.626-5.754-.457-.659c1.149-.808,2.34-1.617,3.531-2.393l.436.67C382.424,242.013,381.243,242.811,380.094,243.619Zm8.009-5.2-.415-.681c1.223-.734,2.468-1.447,3.7-2.127l.394.7c-1.234.67-2.468,1.383-3.68,2.106Z" transform="translate(-133.708 -213.784)" fill="#3a7ce1"/><path d="M381.021,233.909l-.351-.713,1.9-.947.351.723Z" transform="translate(-118.042 -213.997)" fill="#fff"/><path d="M372,227.52l-5.829,16.008,12.232-9.562L425.182,217Z" transform="translate(-118.965 -214.968)" fill="#fff"/><path d="M372,227.52l-5.829,16.008,12.232-9.562L425.182,217Z" transform="translate(-118.965 -214.968)" fill="#d6d5d5" opacity="0.74"/><path d="M379.966,236.683l-13.8,5.829L378.4,232.95Z" transform="translate(-118.965 -213.953)" fill="#fff"/><path d="M377.67,233.965,424.45,217l-38.377,37.451Z" transform="translate(-118.233 -214.968)" fill="#fff"/><path d="M372.814,227.641,353.37,215.09,426,217.122Z" transform="translate(-119.78 -215.09)" fill="#fff"/></g><g transform="translate(1045.62 479.714)"><path d="M393.225,117.941a6.954,6.954,0,0,0,3.277-1.187,6.219,6.219,0,0,0,2.335-3.432,10.041,10.041,0,0,0,.194-2.709v-3.148c0-8.966.09-21.829.168-37.711,0-3.974,0-8.154.077-12.489V50.622a18.608,18.608,0,0,0-.116-3.316,5.444,5.444,0,0,0-1.419-2.722,5.238,5.238,0,0,0-2.864-1.574,28.149,28.149,0,0,0-3.5-.064h-7.367l-15.378.09-68.48.374a5.573,5.573,0,0,0-5.406,5.161q0,4.464-.116,8.889-.077,8.863-.168,17.468c-.129,11.456-.245,22.5-.348,33.027v3.87a5.96,5.96,0,0,0,.851,3.419,5.419,5.419,0,0,0,2.58,2.18,9.263,9.263,0,0,0,3.535.335h91.225a5,5,0,0,1,.916,0,6.221,6.221,0,0,1-.916,0l-2.593.361-10.257.155-37.7.374-26.048.194-14.5.1a10.321,10.321,0,0,1-3.87-.4,6.451,6.451,0,0,1-3.161-2.58,6.992,6.992,0,0,1-1.019-3.974q0-1.935,0-3.87c.09-10.528.193-21.584.284-33.04q.077-8.592.155-17.468,0-4.451.116-9.031a6.747,6.747,0,0,1,6.554-6.218l68.4-.361h22.758a27.456,27.456,0,0,1,3.677.116,6.283,6.283,0,0,1,3.328,1.78,6.7,6.7,0,0,1,1.729,3.264,19.1,19.1,0,0,1,.1,3.509c0,2.258,0,4.477-.077,6.644q-.077,6.528-.155,12.5c-.232,15.869-.413,28.744-.542,37.7,0,1.122,0,2.167-.065,3.161a9.794,9.794,0,0,1-.271,2.787A6.451,6.451,0,0,1,396.643,117a5.844,5.844,0,0,1-2.5.968A3.51,3.51,0,0,1,393.225,117.941Z" transform="translate(-293.154 -41.987)" fill="#fff" stroke="#fff" stroke-width="2"/><path d="M340.674,68.5l12.721,7.638-12.927,7.676L327.54,91.478l.194-15.314.206-15.314Z" transform="translate(-283.177 -36.514)" fill="#fff" stroke="#fff" stroke-width="2"/></g><g transform="translate(692 498)"><path d="M445.93,223.24A6.382,6.382,0,0,1,447.017,222c.861-.847,1.92-1.92,3.163-3.163,2.7-2.655,6.468-6.284,10.647-10.266l.1-.085v.537c-4.236-3.912-8.007-7.47-10.718-10.068l-3.177-3.107a6.2,6.2,0,0,1-1.1-1.214,7.837,7.837,0,0,1,1.285,1l3.347,2.937c2.824,2.5,6.651,6,10.873,9.885l.282.268-.282.268-.1.1c-4.236,3.968-8.007,7.541-10.789,10.1l-3.333,3.008A7.318,7.318,0,0,1,445.93,223.24Z" transform="translate(-376.807 -164.086)" fill="#fff" stroke="#fff" stroke-width="2"/><path d="M427.478,194.63a6.381,6.381,0,0,1-1.087,1.243l-3.177,3.163c-2.7,2.655-6.453,6.284-10.633,10.266l-.1.085v-.537c4.236,3.912,7.993,7.47,10.718,10.068l3.177,3.107a6.2,6.2,0,0,1,1.1,1.214,6.931,6.931,0,0,1-1.285-1c-.918-.791-2.033-1.779-3.347-2.937-2.824-2.5-6.651-6-10.873-9.885l-.282-.268.282-.268.1-.1c4.236-3.968,8.007-7.541,10.789-10.1l3.333-3.008a8.29,8.29,0,0,1,1.285-1.045Z" transform="translate(-390.918 -164.086)" fill="#fff" stroke="#fff" stroke-width="2"/><path d="M428.792,232.057c-.184,0,3.234-9.645,7.625-21.365s8.134-21.182,8.332-21.111-3.234,9.645-7.64,21.365S428.976,232.127,428.792,232.057Z" transform="translate(-383.872 -166.167)" fill="#fff" stroke="#fff" stroke-width="2"/><path d="M503.087,259.366v-6.213c0-4.039,0-9.885-.085-17.426,0-15.011-.1-36.447-.155-62.3l.3.3-105.909.071h0l.367-.367v85.942l-.339-.339,76.467.169,21.676.085h.184l-21.605.085-76.678.169h-.325V173h106.6v.311c0,25.927-.113,47.447-.155,62.5,0,7.47,0,13.33-.085,17.355v4.547A4.648,4.648,0,0,1,503.087,259.366Z" transform="translate(-396.98 -173)" fill="#fff" stroke="#fff" stroke-width="2"/><path d="M503.871,182.437c0,.2-23.907.367-53.378.367s-53.392-.169-53.392-.367,23.893-.367,53.392-.367S503.871,182.225,503.871,182.437Z" transform="translate(-396.93 -169.262)" fill="#fff" stroke="#fff" stroke-width="2"/><path d="M404.074,178.292a1.412,1.412,0,1,1-1.412-1.412A1.412,1.412,0,0,1,404.074,178.292Z" transform="translate(-395.22 -171.401)" fill="#fff" stroke="#fff" stroke-width="2"/><path d="M407.754,178.292a1.412,1.412,0,1,1-1.412-1.412A1.412,1.412,0,0,1,407.754,178.292Z" transform="translate(-393.704 -171.401)" fill="#fff" stroke="#fff" stroke-width="2"/><path d="M411.434,178.292a1.412,1.412,0,1,1-1.412-1.412A1.412,1.412,0,0,1,411.434,178.292Z" transform="translate(-392.187 -171.401)" fill="#fff" stroke="#fff" stroke-width="2"/></g><g transform="translate(876 577)"><path d="M416.141,112.6a3.866,3.866,0,1,1-1.127-2.743A3.881,3.881,0,0,1,416.141,112.6Z" transform="translate(-382.388 -67.386)" fill="#fff" stroke="#fff" stroke-width="2"/><path d="M426.862,112.6a3.866,3.866,0,1,1-1.127-2.743A3.866,3.866,0,0,1,426.862,112.6Z" transform="translate(-377.63 -67.386)" fill="#fff" stroke="#fff" stroke-width="2"/><path d="M437.418,110.671a3.866,3.866,0,1,1-2.347-1.823,3.866,3.866,0,0,1,2.347,1.823Z" transform="translate(-372.736 -67.39)" fill="#fff" stroke="#fff" stroke-width="2"/><path d="M436,80.086a3.969,3.969,0,0,1,.779,0l2.294.072h1.7l2.02.274,2.366.346,2.654.664a42.757,42.757,0,0,1,12.81,5.583,45.83,45.83,0,0,1,13.257,12.911,46.364,46.364,0,0,1,7.516,21.076,44.308,44.308,0,0,1,.13,6.2,26.042,26.042,0,0,1-.2,3.174c-.2,1.053-.317,2.121-.49,3.188a45.472,45.472,0,0,1-4.328,12.608,48.927,48.927,0,0,1-8.237,11.338,47.763,47.763,0,0,1-11.872,8.526,43.016,43.016,0,0,1-14.426,4.443,31.055,31.055,0,0,1-3.852.332,35.3,35.3,0,0,1-3.909,0,47.932,47.932,0,0,1-7.8-1,45.4,45.4,0,0,1-15.551-6.549h.462l-15.868,6.362-.938.375.274-.981q2.395-8.655,4.66-16.936l.072.418a45.427,45.427,0,0,1-8.468-19.172,41.268,41.268,0,0,1-.62-9.91,32.262,32.262,0,0,1,.462-4.76l.346-2.323c.144-.75.375-1.443.563-2.236a45.239,45.239,0,0,1,17.671-25.764,43.119,43.119,0,0,1,10.516-5.5L422.37,82l2.236-.591,2.063-.519c.664-.13,1.3-.188,1.89-.288,1.2-.144,2.25-.346,3.174-.4h3.779a2.6,2.6,0,0,1,.49,0,2.753,2.753,0,0,1-.49,0l-1.443.115-2.308.159a25.4,25.4,0,0,0-3.145.476,45.037,45.037,0,0,0-36.064,33.424c-.173.721-.4,1.443-.534,2.207l-.346,2.265a31.291,31.291,0,0,0-.418,4.688,40.4,40.4,0,0,0,.649,9.708,44.59,44.59,0,0,0,8.381,18.854l.144.188v.231q-2.236,8.208-4.616,16.936l-.678-.591L411,162.485l.245-.1.231.144a44.719,44.719,0,0,0,22.836,7.357,33.753,33.753,0,0,0,3.823,0,29.906,29.906,0,0,0,3.765-.317,42.3,42.3,0,0,0,14.151-4.328,46.984,46.984,0,0,0,11.627-8.324,47.732,47.732,0,0,0,8.093-11.079,44.721,44.721,0,0,0,4.255-12.334l.476-3.13c.159-1.039.144-2.077.216-3.116a44.484,44.484,0,0,0-20.3-39.67A43.361,43.361,0,0,0,447.8,81.9l-2.611-.692-2.337-.389-2.005-.332a7.762,7.762,0,0,1-1.688-.115l-2.279-.173A5.379,5.379,0,0,1,436,80.086Z" transform="translate(-390.362 -80.067)" fill="#fff" stroke="#fff" stroke-width="2"/></g><g transform="translate(494.897 386.878)"><circle cx="55.94" cy="55.94" r="55.94" transform="translate(0 43.085) rotate(-22.65)" fill="none" stroke="#fff" stroke-linecap="round" stroke-linejoin="round" stroke-width="2"/><path d="M134.976,74.118l-16.344,9.436V75.82a6.74,6.74,0,0,0-6.74-6.74H75.06a6.74,6.74,0,0,0-6.74,6.74v29.722a6.74,6.74,0,0,0,6.74,6.74h36.9a6.74,6.74,0,0,0,6.74-6.74V97.808l16.344,9.436Z" transform="translate(-27.301 -17.333)" fill="none" stroke="#fff" stroke-miterlimit="10" stroke-width="2"/></g><g transform="translate(1227.093 565.755)"><circle cx="41.22" cy="41.22" r="41.22" transform="translate(0.001 18.937) rotate(-13.28)" fill="none" stroke="#fff" stroke-linecap="round" stroke-linejoin="round" stroke-width="2"/><path d="M113.449,389.5H71.726a7.857,7.857,0,0,0-7.741,9.308l1.2,6.522a1.935,1.935,0,0,0,1.935,1.587h12.5a1.935,1.935,0,0,0,1.935-1.935v-7.1h22v7.1a1.935,1.935,0,0,0,1.935,1.935h12.579a1.935,1.935,0,0,0,1.935-1.587l1.2-6.522a7.857,7.857,0,0,0-7.76-9.308Z" transform="translate(-42.964 -348.634)" fill="none" stroke="#fff" stroke-miterlimit="10" stroke-width="2"/></g><g transform="translate(862.72 409)"><g transform="translate(0 0)"><path d="M283.494,438.269s-23.342,6.689-26.6,7.848c-2.962,1.046-10.995,3.863-17.023,2.986a12.8,12.8,0,0,1-1.722-.37c-6.109-1.819-8.854-3.517-9.659-7.357s2.238-6.673,5.167-8.483,18.818-3.7,18.818-3.7l3.839,1.127h0Z" transform="translate(-228.357 -251.105)" fill="#3a77e1"/><path d="M239.869,449.1a12.8,12.8,0,0,1-1.722-.37c-6.109-1.819-8.854-3.517-9.659-7.357s2.238-6.673,5.167-8.483,18.818-3.7,18.818-3.7l3.839,1.127c-3.477,1.61-16.42,2.487-19.245,4.113s-4.185,4.684-2.519,8.854C235.442,445.457,237.825,447.59,239.869,449.1Z" transform="translate(-228.357 -251.105)" fill="#fff"/><path d="M280.011,439.451s-17.53,4.54-24.484,7.445-20.211,4.177-24.951-1.811-.547-11.156,4.177-12.307,14.279-2.962,19.494-2.23" transform="translate(-228.383 -251.337)" fill="none" stroke="#263238" stroke-linecap="round" stroke-linejoin="round" stroke-width="1.103"/><path d="M241.5,449.062s-8.918-4.894-5.956-11.751c2.189-5.055,14.085-3.96,19.977-6.721" transform="translate(-229.642 -251.378)" fill="none" stroke="#263238" stroke-linecap="round" stroke-linejoin="round" stroke-width="1.103"/><path d="M373.395,450.088a7.379,7.379,0,0,1-3.5,6.1,13.72,13.72,0,0,1-7.172,1.481c-8.186-.1-23.575-5.956-23.575-5.956l-14.407-7.968,7.493-11.856,2.052-3.22,5.3,1.191s4.387,2.487,8.8,4.467,15.124,2.415,18.9,5.449S373.805,446.112,373.395,450.088Z" transform="translate(-247.163 -251.003)" fill="#3a77e1"/><path d="M375.211,450.088a7.379,7.379,0,0,1-3.5,6.1,10.777,10.777,0,0,0-.4-7.2c-1.61-3.614-6.849-6.8-13.739-7.333s-12.162-3.751-14.922-5.191c-2.157-1.119-6.7-3.566-8.6-4.58l2.052-3.22,5.3,1.191s4.387,2.487,8.8,4.467,15.124,2.415,18.9,5.449S375.622,446.112,375.211,450.088Z" transform="translate(-248.98 -251.003)" fill="#fff"/><path d="M328.347,447.136a90.84,90.84,0,0,0,33.724,11.518c2.624.314,5.674.362,7.429-1.61a5.489,5.489,0,0,0,1.207-4.113c-.314-3.7-3.429-6.632-6.841-8.105s-7.171-1.811-10.8-2.624a42.97,42.97,0,0,1-10.383-3.8c-2.608-1.36-5.127-3.01-8-3.622s-6.294.129-7.832,2.64" transform="translate(-247.575 -252.156)" fill="none" stroke="#263238" stroke-linecap="round" stroke-linejoin="round" stroke-width="1.103"/><path d="M370.32,457.169a9.594,9.594,0,0,0,5.272-6.809c.523-3.485-1.465-6.994-4.258-9.135s-6.294-3.155-9.747-3.871-6.986-1.2-10.294-2.511c-5.047-1.98-10.029-5.876-15.293-4.483" transform="translate(-249.36 -251.275)" fill="none" stroke="#263238" stroke-linecap="round" stroke-linejoin="round" stroke-width="1.103"/><path d="M327.756,290.485l-24.38-9.272-.306-.121s.088-.644.161-1.61c.153-1.948.233-5.119-.684-6.19-1.36-1.61-5.208-.258-8.966-1.98s-10.7,1.36-10.7,1.36-5.022-.926-7.244,2.7c-1.127,2.922-.741,7.244-.741,7.244l-.459.161c-2.906,1.087-18.713,7.035-22.054,9.425-3.694,2.616-7.783,29.475-9.1,37.363s-3.646,14.995-2.463,17.707,18.166,15.792,27.937,19.164,44.421,2.415,44.421,2.415.563-.153,1.569-.475c5.86-1.883,26.65-9.659,37.685-27.913C352.45,340.493,341.761,305.456,327.756,290.485Zm-65.871,45.178c-1.795,1.272-.8,6.2-.8,6.2l-3.05-2.688,7.662-18.842,3.268,14.488S263.68,334.4,261.885,335.663Zm61.3,11.969c-.845.435,2.415-8.62.869-10.673s-6.206-1.859-6.206-1.859l.394-2.471L321,318.463l.918-1.087s9.481,16.251,11.18,21.981C333.1,339.374,322.766,347.632,323.184,347.632Z" transform="translate(-230.726 -220.198)" fill="#3a77e1"/><path d="M288.376,222.25l-12.588,13.361s-1.73,1.537-1.046,5.409,2.294,7.244,3.509,7.469a17.2,17.2,0,0,0,2.914.258s2.7,5.843,4.612,8.137c0,0,.66,9.023.306,11.526,0,0,4.523,3.952,8.781,4.451S305.7,266.84,305.7,266.84l1.61-7.984s3.863-5.86,4.121-7.421,2.028-1.159,2.9-1.932a14.8,14.8,0,0,0,3.22-7.461c.346-3.252.354-6.986-3.421-5.892-3.276-.877-1.223-7.8-1.223-7.8l-5.755-5.071Z" transform="translate(-237.376 -210.727)" fill="#fff"/><path d="M311.607,281.227a14.242,14.242,0,0,1-.652,1.457c-2.076,3.912-11.123,11.373-11.123,11.373l-2.737-8.411-1.5,8.411c-3.018-1.32-12.226-9.3-12.226-9.3s-.314-.749-.692-1.916l.459-.161s-.386-4.354.741-7.244c2.205-3.622,7.244-2.7,7.244-2.7s6.946-3.083,10.7-1.36,7.606.386,8.966,1.98.523,7.775.523,7.775Z" transform="translate(-238.956 -220.211)" fill="#fff" opacity="0.5"/><path d="M341.968,292.593l-24.38-9.272-.306-.121s.089-.644.161-1.61l-.507,3.163-3.606,4.894A99.81,99.81,0,0,1,324.6,294.6a9.884,9.884,0,0,1,5.151,9.852l-4.491,38.433-1.843,21.82,5.562,5.771c5.86-1.883,26.65-9.659,37.684-27.913C366.661,342.6,355.972,307.563,341.968,292.593ZM337.4,349.739c-.845.435,2.415-8.62.869-10.673s-6.206-1.859-6.206-1.859l.394-2.471,2.761-14.166.918-1.087s9.481,16.25,11.18,21.981C347.312,341.481,336.977,349.739,337.4,349.739Z" transform="translate(-244.937 -222.305)" opacity="0.2"/><path d="M271.856,342.922l-3.791-12.669s-6.8-23.189-11.461-28.9l1.223,16.307s-4.024,19.478-7.7,25.265-4.5,7.244,0,7.244,15.454,8.725,15.454,8.725l-.845-7.244Zm-9.554,4.9-3.051-2.688,7.662-18.842,3.268,14.488s-5.248-.394-7.043.869S262.3,347.824,262.3,347.824Z" transform="translate(-232.004 -226.161)" opacity="0.2"/><path d="M288.49,265.28s.692,6.833,0,9.956" transform="translate(-240.09 -219.123)" fill="none" stroke="#263238" stroke-linecap="round" stroke-linejoin="round" stroke-width="1.103"/><path d="M314.11,274.928a29.407,29.407,0,0,1,.757-6.528" transform="translate(-245.089 -219.731)" fill="none" stroke="#263238" stroke-linecap="round" stroke-linejoin="round" stroke-width="1.103"/><path d="M309.662,228.58s4.137,5.191,3.92,9.119-.523,8.58-.418,13.136-7.316,14.1-11.132,14.947-7.1,1.062-9.538-1.376a91.038,91.038,0,0,1-8.049-10.174c-3.171-4.346-2.415-13.884-2.415-13.884" transform="translate(-238.814 -211.962)" fill="none" stroke="#263238" stroke-linecap="round" stroke-linejoin="round" stroke-width="1.103"/><path d="M303.9,247.71a21.584,21.584,0,0,0-.322,4.322,4.869,4.869,0,0,0,1.062,3.381c.459.467,1.119.845,1.207,1.489A1.61,1.61,0,0,1,305,258.31a12.521,12.521,0,0,0-1.489.885" transform="translate(-243.021 -215.694)" fill="none" stroke="#263238" stroke-linecap="round" stroke-linejoin="round" stroke-width="1.103"/><path d="M295.87,262.6s.475,3.083,4.6,3.727" transform="translate(-241.53 -218.6)" fill="none" stroke="#263238" stroke-linecap="round" stroke-linejoin="round" stroke-width="1.103"/><path d="M295.982,250.24c0,.893-.386,1.61-.861,1.61s-.861-.716-.861-1.61.386-1.61.861-1.61S295.982,249.354,295.982,250.24Z" transform="translate(-241.216 -215.874)" fill="#263238"/><path d="M311.292,250.72c0,.893-.386,1.61-.861,1.61s-.861-.724-.861-1.61.386-1.61.861-1.61S311.292,249.826,311.292,250.72Z" transform="translate(-244.203 -215.967)" fill="#263238"/><path d="M308.62,245.858s4.024-4.024,7.4.467" transform="translate(-244.018 -215.009)" fill="none" stroke="#263238" stroke-linecap="round" stroke-linejoin="round" stroke-width="2.206"/><path d="M296.5,246.053s-2.543-2.849-6.552,0" transform="translate(-240.375 -215.124)" fill="none" stroke="#263238" stroke-linecap="round" stroke-linejoin="round" stroke-width="2.206"/><path d="M288.8,269.087s2.455,6.761,7.936,8.685,12.757-8.049,12.757-8.049l-.378-1.3s-4.773,6.2-10.077,5.143-10.544-8.25-10.544-8.25Z" transform="translate(-240.09 -219.13)" fill="#263238"/><path d="M281.2,251.592s-3.268,1.151-4.137-1.392-3.847-9.248-1.24-11.486,4.7,2.954,4.7,2.954" transform="translate(-237.415 -213.83)" fill="none" stroke="#263238" stroke-linecap="round" stroke-linejoin="round" stroke-width="1.103"/><path d="M320.72,253.182s3.034.612,3.9-1.932,3.847-9.248,1.24-11.486-4.7,2.954-4.7,2.954" transform="translate(-246.379 -214.035)" fill="none" stroke="#263238" stroke-linecap="round" stroke-linejoin="round" stroke-width="1.103"/><path d="M279.671,242.3a4.524,4.524,0,0,0,2.865-1.69,7.035,7.035,0,0,0,.8-2.568,30.257,30.257,0,0,0,.451-5.183,7.091,7.091,0,0,1,.185-2.02,5.312,5.312,0,0,1,1.095-1.795c1.135-1.336,2.511-2.463,3.6-3.847a6.439,6.439,0,0,0,1.61-4.829,22.094,22.094,0,0,0,18.086,4.676c5.755-1.127,11.268-6.173,10.6-12.516a5.127,5.127,0,0,0-4.024-4.411c-2.841-.708-5.393.8-7.968,1.779-4.693,1.771-9.288-1.272-14.029-1.779-4.024-.443-9.039.064-11.148,4.1,0,0-7.244.853-10.463,6.841s2.873,14.27,2.873,14.27,2.415-2.962,5.578,3.026Z" transform="translate(-236.559 -207.933)" fill="#263238"/><path d="M316.914,226.064s-1.883,9.82,3.034,14.576c0,0,1.078-2.954,2.165-3.678a11.373,11.373,0,0,0-.861-10.9C317.614,220.35,316.914,226.064,316.914,226.064Z" transform="translate(-245.567 -210.975)" fill="#263238"/><path d="M318.915,212.8a9.248,9.248,0,0,1-5.634,5.851c-6.825,2.785-13.45-.3-20.291-.9-5.578-.5-11.735,4.54-12.13,10.27" transform="translate(-238.601 -208.883)" fill="none" stroke="#fff" stroke-linecap="round" stroke-linejoin="round" stroke-width="1.103" opacity="0.2"/><path d="M275.63,227.278a11.92,11.92,0,0,1,7.244-10.528" transform="translate(-237.581 -209.653)" fill="none" stroke="#fff" stroke-linecap="round" stroke-linejoin="round" stroke-width="1.103" opacity="0.2"/><path d="M286.53,276.315a31.156,31.156,0,0,0,10.632,7.244s8.17-2.374,12.323-8.049" transform="translate(-239.708 -221.119)" fill="none" stroke="#263238" stroke-linecap="round" stroke-linejoin="round" stroke-width="1.103"/><ellipse cx="7.228" cy="7.228" rx="7.228" ry="7.228" transform="matrix(0.909, -0.417, 0.417, 0.909, 42.577, 30.794)" fill="none" stroke="#263238" stroke-linecap="round" stroke-linejoin="round" stroke-width="1.103"/><ellipse cx="7.228" cy="7.228" rx="7.228" ry="7.228" transform="translate(60.242 28.089) rotate(-7)" fill="none" stroke="#263238" stroke-linecap="round" stroke-linejoin="round" stroke-width="1.103"/><path d="M287.466,273.16a5.634,5.634,0,0,0-3.485,2.7c-1.28,2.254-.507,9.345-.507,9.345s6.608,6.536,12.234,9.3l1.658-9.329,2.576,9.329s8.709-6.157,11.124-11.365c0,0,.8-6.077,0-8.049a2.793,2.793,0,0,0-2.6-1.908" transform="translate(-239.066 -220.66)" fill="none" stroke="#263238" stroke-linecap="round" stroke-linejoin="round" stroke-width="1.103"/><path d="M274.17,344.794s-2.584-17.3-6.021-24.364" transform="translate(-236.121 -229.883)" fill="none" stroke="#263238" stroke-linecap="round" stroke-linejoin="round" stroke-width="1.103"/><path d="M258.92,301.35a70.027,70.027,0,0,1,5.344,8.942" transform="translate(-234.32 -226.161)" fill="none" stroke="#263238" stroke-linecap="round" stroke-linejoin="round" stroke-width="1.103"/><path d="M343.23,315.353a49.982,49.982,0,0,1,2.841-8.443" transform="translate(-250.771 -227.245)" fill="none" stroke="#263238" stroke-linecap="round" stroke-linejoin="round" stroke-width="1.103"/><path d="M336.6,345.455s1.859-11.864,4.081-21.635" transform="translate(-249.477 -230.545)" fill="none" stroke="#263238" stroke-linecap="round" stroke-linejoin="round" stroke-width="1.103"/><path d="M340.52,328.806a13.684,13.684,0,0,1,7.2-4.926" transform="translate(-250.242 -230.557)" fill="none" stroke="#263238" stroke-linecap="round" stroke-linejoin="round" stroke-width="1.103"/><path d="M318.25,283.59s14.995,6,24.678,9.4c0,0,11.912,11.2,24.686,50,0,0-11.7,19.687-33.966,26" transform="translate(-245.897 -222.695)" fill="none" stroke="#263238" stroke-linecap="round" stroke-linejoin="round" stroke-width="1.103"/><path d="M342.18,364.376l10.761-8.958s5.691-4.322,11.606-1.368" transform="translate(-250.566 -236.242)" fill="none" stroke="#263238" stroke-linecap="round" stroke-linejoin="round" stroke-width="1.103"/><path d="M341.67,328.67s8.894,13.144,11.172,22" transform="translate(-250.467 -231.491)" fill="none" stroke="#263238" stroke-linecap="round" stroke-linejoin="round" stroke-width="1.103"/><path d="M262.971,358.967l-3.147-2.986a14.852,14.852,0,0,0-9.964,2.729" transform="translate(-232.553 -236.805)" fill="none" stroke="#263238" stroke-linecap="round" stroke-linejoin="round" stroke-width="1.103"/><path d="M262.24,351.28s3.912-12.878,7.767-19.47" transform="translate(-234.968 -232.104)" fill="none" stroke="#263238" stroke-linecap="round" stroke-linejoin="round" stroke-width="1.103"/><path d="M274.99,285.55s-21.579,8.1-23.7,10.463-10.158,47.641-10.375,52.824c-.185,4.636,16.621,15.043,24.951,19.43" transform="translate(-230.808 -223.078)" fill="none" stroke="#263238" stroke-linecap="round" stroke-linejoin="round" stroke-width="1.103"/><path d="M302.609,304.215a1.417,1.417,0,1,1-.415-1.01A1.425,1.425,0,0,1,302.609,304.215Z" transform="translate(-242.289 -226.442)" fill="#263238"/><path d="M322.139,398.222h-49.1a1.151,1.151,0,0,1-1.151-1.151h0a1.151,1.151,0,0,1,1.151-1.151h49.1a1.151,1.151,0,0,1,1.151,1.151h0A1.151,1.151,0,0,1,322.139,398.222Z" transform="translate(-236.851 -244.613)" fill="#263238"/><path d="M322.566,385.545l6.576-30.907a3.284,3.284,0,0,0-3.22-3.968H268.534a3.284,3.284,0,0,0-3.22,3.928l5.9,29.877a3.284,3.284,0,0,0,3.147,2.648l44.9,1.03a3.3,3.3,0,0,0,3.3-2.608Z" transform="translate(-235.556 -235.784)" fill="#fff" stroke="#263238" stroke-linecap="round" stroke-linejoin="round" stroke-width="1.103"/><path d="M308.22,371.718a4.58,4.58,0,1,1-1.339-3.244,4.58,4.58,0,0,1,1.339,3.244Z" transform="translate(-242.153 -238.996)" fill="#263238"/><line x2="6.817" transform="translate(75.074 117.84)" fill="none" stroke="#263238" stroke-linecap="round" stroke-linejoin="round" stroke-width="1.103"/><line x2="25.877" transform="translate(42.516 117.84)" fill="none" stroke="#263238" stroke-linecap="round" stroke-linejoin="round" stroke-width="1.103"/><path d="M316.363,424.713l-5.232,13.731s-13.345-3.364-30.432-6.866c-17.876-3.662-36.541-8.4-46.224-25.394a9.623,9.623,0,0,1-1.409-6.833c1.392-5.868,9.031-7.461,14.061-8.049a91.65,91.65,0,0,1,9.522-.531c1.61,0,6.962-.877,8.258.081a37.938,37.938,0,0,0,6.206,3.678c2.857,1.215,44.566-1.087,44.566-1.087a14.96,14.96,0,0,0,1.312-5.014c6.56-3.332,21.732-6.149,28.171-4.9,10.085,1.956,15.969,7.84,14.85,14S336.614,420.229,316.363,424.713Z" transform="translate(-229.24 -242.136)" fill="#364661"/><path d="M323.031,428.942s-12.693-3.364-23.06-10.367-18.464-15.132-32.912-13.449" transform="translate(-235.909 -246.366)" fill="none" stroke="#fff" stroke-linecap="round" stroke-linejoin="round" stroke-width="1.103"/><path d="M305,414.537c6.552-1.883,11.357-6.125,16.613-10.19a112.379,112.379,0,0,1,17.78-11.687" transform="translate(-243.312 -243.977)" fill="none" stroke="#fff" stroke-linecap="round" stroke-linejoin="round" stroke-width="1.103"/><line x2="1.924" transform="translate(59.378 35.509)" fill="none" stroke="#263238" stroke-linecap="round" stroke-linejoin="round" stroke-width="1.103"/></g></g></g></svg>