<svg xmlns="http://www.w3.org/2000/svg" xmlns:xlink="http://www.w3.org/1999/xlink" width="196.641" height="196.743" viewBox="0 0 196.641 196.743">
  <defs>
    <clipPath id="clip-path">
      <rect id="Rectangle_3500" data-name="Rectangle 3500" width="87.01" height="78.952" rx="8.79" fill="#ffb5b5" stroke="#263238" stroke-linecap="round" stroke-linejoin="round" stroke-width="0.2"/>
    </clipPath>
    <clipPath id="clip-path-2">
      <path id="Path_1908" data-name="Path 1908" d="M206.539,76.852H139.714A75.96,75.96,0,0,0,136.78,63.21h72.706a72.882,72.882,0,0,0-2.947,13.642Z" transform="translate(-136.78 -63.21)" fill="#fff" stroke="#263238" stroke-linecap="round" stroke-linejoin="round" stroke-width="0.2"/>
    </clipPath>
    <clipPath id="clip-path-3">
      <rect id="Rectangle_3508" data-name="Rectangle 3508" width="2.683" height="7.504" fill="#757575" stroke="#263238" stroke-linecap="round" stroke-linejoin="round" stroke-width="0.2"/>
    </clipPath>
    <clipPath id="clip-path-4">
      <rect id="Rectangle_3513" data-name="Rectangle 3513" width="2.683" height="7.504" transform="translate(2.683 7.504) rotate(180)" fill="#757575" stroke="#263238" stroke-linecap="round" stroke-linejoin="round" stroke-width="0.2"/>
    </clipPath>
    <clipPath id="clip-path-5">
      <path id="Path_1964" data-name="Path 1964" d="M206.539,122.072H139.714a35.02,35.02,0,0,1-2.934-13.642h72.706C209.486,114.748,206.539,122.072,206.539,122.072Z" transform="translate(-136.78 -108.43)" fill="#fff" stroke="#263238" stroke-linecap="round" stroke-linejoin="round" stroke-width="0.2"/>
    </clipPath>
    <clipPath id="clip-path-6">
      <rect id="Rectangle_3519" data-name="Rectangle 3519" width="1.992" height="13.913" fill="#757575" stroke="#263238" stroke-linecap="round" stroke-linejoin="round" stroke-width="0.2"/>
    </clipPath>
    <clipPath id="clip-path-8">
      <path id="Path_1970" data-name="Path 1970" d="M199.6,149.46v22.757a1.447,1.447,0,0,1-1.451,1.447H109.931a1.447,1.447,0,0,1-1.451-1.447V149.46a1.454,1.454,0,0,1,1.451-1.451H150.58v1.451s-6.943,6.018-18.907,8.241c1.715,7.761,11.083,13.691,22.391,13.691s20.67-5.936,22.388-13.691c-11.983-2.223-18.923-8.241-18.923-8.241V148h40.63A1.451,1.451,0,0,1,199.6,149.46Z" transform="translate(-108.48 -148)" fill="#ffb5b5" stroke="#263238" stroke-linecap="round" stroke-linejoin="round" stroke-width="0.2"/>
    </clipPath>
  </defs>
  <g id="Group_952" data-name="Group 952" transform="translate(-511 -888.347)">
    <g id="Group_194" data-name="Group 194" transform="translate(511 888.347)">
      <path id="Path_2367" data-name="Path 2367" d="M507.337,1163.127l73.151,146.205h-146.2Z" transform="translate(-409.016 -1112.69)" fill="#ffe9e9"/>
      <path id="Path_2368" data-name="Path 2368" d="M628.356,1354.639H605.447l-74.526-148.858-.886-1.77-75.313,150.628H431.715L530.035,1158Z" transform="translate(-431.715 -1157.997)" fill="#ffe9e9"/>
    </g>
    <g id="Typewriter-bro_1_" data-name="Typewriter-bro (1)" transform="translate(515.122 997.429)">
      <g id="freepik--Bubbles--inject-64" transform="translate(0 46.942)">
        <path id="Path_1810" data-name="Path 1810" d="M426.414,317.7l-.254,2.282L430.6,314.8a15.6,15.6,0,0,0,1.6.085" transform="translate(-295.829 -279.729)" fill="none" stroke="#263238" stroke-linecap="round" stroke-linejoin="round" stroke-width="0.2"/>
        <path id="Path_1811" data-name="Path 1811" d="M407.6,275.43a6.659,6.659,0,0,0-1.066,2.934c-.42,3.791,2.552,7.377,7.044,9.036l-.228,2.037" transform="translate(-282.577 -253.193)" fill="none" stroke="#263238" stroke-linecap="round" stroke-linejoin="round" stroke-width="0.2"/>
        <path id="Path_1812" data-name="Path 1812" d="M413.482,269.64a9.1,9.1,0,0,0-.821.753" transform="translate(-286.73 -249.29)" fill="none" stroke="#263238" stroke-linecap="round" stroke-linejoin="round" stroke-width="0.2"/>
        <path id="Path_1813" data-name="Path 1813" d="M436.462,264.268a14.644,14.644,0,0,0-6.81-2.49,14.472,14.472,0,0,0-7.582,1.115" transform="translate(-293.072 -243.918)" fill="none" stroke="#263238" stroke-linecap="round" stroke-linejoin="round" stroke-width="0.2"/>
        <path id="Path_1814" data-name="Path 1814" d="M454.14,285.7c4.238-.877,7.449-3.586,7.824-7.1a7.8,7.8,0,0,0-2.934-6.647" transform="translate(-314.688 -250.847)" fill="none" stroke="#263238" stroke-linecap="round" stroke-linejoin="round" stroke-width="0.2"/>
        <path id="Path_1815" data-name="Path 1815" d="M422.08,276.453a2.768,2.768,0,0,0,2.08-.443l1.584,1.229c-.111.036-.1-.2.016-.205s.205.1.287.186a1.624,1.624,0,0,0,1.529.293,6.586,6.586,0,0,1,1.591-.306,3.913,3.913,0,0,1,.942.218,44.4,44.4,0,0,0,6.7,1.346" transform="translate(-293.079 -253.583)" fill="none" stroke="#263238" stroke-linecap="round" stroke-linejoin="round" stroke-width="0.2"/>
        <path id="Path_1816" data-name="Path 1816" d="M416.34,284.028a9.547,9.547,0,0,0,2.4-.218l.443.773.489-.473c.085.326.169.652.251.958.368.088.326-.623.652-.834a.443.443,0,0,1,.577.173,1.282,1.282,0,0,1,.15.652l2.23.183.434.036a1.268,1.268,0,0,1,.652-.505c-.082.515.567.808,1.082.913q3.8.776,7.647,1.34" transform="translate(-289.21 -258.841)" fill="none" stroke="#263238" stroke-linecap="round" stroke-linejoin="round" stroke-width="0.2"/>
        <path id="Path_1817" data-name="Path 1817" d="M419.38,295.009c.205.143.456-.124.707-.157s.456.157.678.271.587.065.6-.183c.052.326.456.443.786.489l8.56,1.2" transform="translate(-291.259 -266.281)" fill="none" stroke="#263238" stroke-linecap="round" stroke-linejoin="round" stroke-width="0.2"/>
        <path id="Path_1818" data-name="Path 1818" d="M68,225.477l3.429,4.616-.688-6.04a15.89,15.89,0,0,0,2.344-1.4c3.514-2.543,4.929-6.634,3.641-9.929a7.786,7.786,0,0,0-5.692-4.515" transform="translate(-54.421 -207.885)" fill="none" stroke="#263238" stroke-linecap="round" stroke-linejoin="round" stroke-width="0.2"/>
        <path id="Path_1819" data-name="Path 1819" d="M26.379,238.84a6.634,6.634,0,0,0,.417,3.081c1.389,3.553,5.685,5.346,10.431,4.727" transform="translate(-26.344 -228.53)" fill="none" stroke="#263238" stroke-linecap="round" stroke-linejoin="round" stroke-width="0.2"/>
        <path id="Path_1820" data-name="Path 1820" d="M27.665,231.25a9.414,9.414,0,0,0-.375,1.05" transform="translate(-26.982 -223.414)" fill="none" stroke="#263238" stroke-linecap="round" stroke-linejoin="round" stroke-width="0.2"/>
        <path id="Path_1821" data-name="Path 1821" d="M45.965,207.316a14.626,14.626,0,0,0-7.191.952,14.467,14.467,0,0,0-6.194,4.511" transform="translate(-30.547 -207.213)" fill="none" stroke="#263238" stroke-linecap="round" stroke-linejoin="round" stroke-width="0.2"/>
        <path id="Path_1822" data-name="Path 1822" d="M38.14,224.972a2.777,2.777,0,0,0,1.63-1.356l1.956.352c-.085.081-.183-.13-.081-.192s.228,0,.326.033a1.619,1.619,0,0,0,1.49-.45,6.241,6.241,0,0,1,1.268-1.011,4,4,0,0,1,.936-.248,44.124,44.124,0,0,0,6.559-1.92" transform="translate(-34.295 -215.953)" fill="none" stroke="#263238" stroke-linecap="round" stroke-linejoin="round" stroke-width="0.2"/>
        <path id="Path_1823" data-name="Path 1823" d="M36.36,233a9.783,9.783,0,0,0,2.028-1.3l.753.479c.072-.215.143-.434.212-.652l.668.733c.368-.091,0-.7.176-1.033a.44.44,0,0,1,.59-.114,1.264,1.264,0,0,1,.434.5l2.057-.874.4-.17a1.281,1.281,0,0,1,.326-.753c.17.5.88.453,1.382.306q3.732-1.076,7.4-2.367" transform="translate(-33.095 -221.055)" fill="none" stroke="#263238" stroke-linecap="round" stroke-linejoin="round" stroke-width="0.2"/>
        <path id="Path_1824" data-name="Path 1824" d="M44.1,244.13c.251.033.349-.326.554-.469s.479-.068.727-.075.551-.212.447-.437c.2.264.613.179.923.068L54.9,240.3" transform="translate(-38.312 -229.514)" fill="none" stroke="#263238" stroke-linecap="round" stroke-linejoin="round" stroke-width="0.2"/>
      </g>
      <g id="freepik--Typewritter--inject-64" transform="translate(19.147 0)">
        <rect id="Rectangle_3499" data-name="Rectangle 3499" width="87.01" height="78.952" rx="8.79" transform="translate(9.688 8.609)" fill="#ffb5b5"/>
        <g id="Group_105" data-name="Group 105" transform="translate(9.688 8.609)" clip-path="url(#clip-path)">
          <path id="Path_1825" data-name="Path 1825" d="M201.81,222.29v32.924a2.781,2.781,0,0,1-2.777,2.781H117.581a2.781,2.781,0,0,1-2.781-2.781v-6.52h.173v4.394a3.178,3.178,0,0,0,3.182,3.178h78.688a3.178,3.178,0,0,0,3.182-3.178V227.173a2.213,2.213,0,0,0-2.213-2.213H114.8v-2.67Z" transform="translate(-114.8 -179.042)" opacity="0.2"/>
        </g>
        <rect id="Rectangle_3501" data-name="Rectangle 3501" width="87.01" height="78.952" rx="8.79" transform="translate(9.688 8.609)" fill="none" stroke="#263238" stroke-linecap="round" stroke-linejoin="round" stroke-width="0.2"/>
        <path id="Path_1826" data-name="Path 1826" d="M204.122,240.367V236.6a1.392,1.392,0,0,0-1.4-1.4H133.659a1.4,1.4,0,0,0-1.4,1.4v3.772a1.4,1.4,0,0,1-1.4,1.4h0a1.4,1.4,0,0,0-1.4,1.4V250.6a6.471,6.471,0,0,0,6.471,6.471h0a1.04,1.04,0,0,1,1.04,1.04v2.23a3.1,3.1,0,0,0,3.1,3.1H196.3a3.1,3.1,0,0,0,3.1-3.1v-2.23a1.04,1.04,0,0,1,1.04-1.04h0a6.471,6.471,0,0,0,6.471-6.471v-7.442a1.4,1.4,0,0,0-1.4-1.4h0A1.4,1.4,0,0,1,204.122,240.367Z" transform="translate(-115 -179.135)" fill="#263238"/>
        <path id="Path_1827" data-name="Path 1827" d="M146.97,241.75h-2.416a1.115,1.115,0,0,0-1.115,1.115v.619c0,1.284,1.04,2.914,2.324,2.914s2.324-1.63,2.324-2.914v-.619a1.118,1.118,0,0,0-1.118-1.115Z" transform="translate(-124.416 -183.55)" fill="#ffb5b5" stroke="#263238" stroke-linecap="round" stroke-linejoin="round" stroke-width="0.2"/>
        <path id="Path_1828" data-name="Path 1828" d="M164.694,241.75h-2.416a1.118,1.118,0,0,0-1.118,1.115v.619c0,1.284,1.04,2.914,2.324,2.914s2.324-1.63,2.324-2.914v-.619A1.115,1.115,0,0,0,164.694,241.75Z" transform="translate(-136.36 -183.55)" fill="#ffb5b5" stroke="#263238" stroke-linecap="round" stroke-linejoin="round" stroke-width="0.2"/>
        <path id="Path_1829" data-name="Path 1829" d="M182.5,241.75h-2.416a1.115,1.115,0,0,0-1.115,1.115v.619c0,1.284,1.04,2.914,2.321,2.914s2.324-1.63,2.324-2.914v-.619A1.115,1.115,0,0,0,182.5,241.75Z" transform="translate(-148.364 -183.55)" fill="#ffb5b5" stroke="#263238" stroke-linecap="round" stroke-linejoin="round" stroke-width="0.2"/>
        <path id="Path_1830" data-name="Path 1830" d="M200.26,241.75h-2.416a1.115,1.115,0,0,0-1.115,1.115v.619c0,1.284,1.04,2.914,2.324,2.914s2.321-1.63,2.321-2.914v-.619A1.115,1.115,0,0,0,200.26,241.75Z" transform="translate(-160.335 -183.55)" fill="#ffb5b5" stroke="#263238" stroke-linecap="round" stroke-linejoin="round" stroke-width="0.2"/>
        <path id="Path_1831" data-name="Path 1831" d="M218.02,241.75H215.6a1.115,1.115,0,0,0-1.115,1.115v.619c0,1.284,1.04,2.914,2.324,2.914s2.324-1.63,2.324-2.914v-.619a1.118,1.118,0,0,0-1.118-1.115Z" transform="translate(-172.305 -183.55)" fill="#ffb5b5" stroke="#263238" stroke-linecap="round" stroke-linejoin="round" stroke-width="0.2"/>
        <path id="Path_1832" data-name="Path 1832" d="M235.784,241.75h-2.415a1.118,1.118,0,0,0-1.118,1.115v.619c0,1.284,1.04,2.914,2.324,2.914s2.324-1.63,2.324-2.914v-.619A1.115,1.115,0,0,0,235.784,241.75Z" transform="translate(-184.276 -183.55)" fill="#ffb5b5" stroke="#263238" stroke-linecap="round" stroke-linejoin="round" stroke-width="0.2"/>
        <path id="Path_1833" data-name="Path 1833" d="M253.55,241.75h-2.416a1.115,1.115,0,0,0-1.115,1.115v.619c0,1.284,1.04,2.914,2.321,2.914s2.324-1.63,2.324-2.914v-.619A1.115,1.115,0,0,0,253.55,241.75Z" transform="translate(-196.253 -183.55)" fill="#ffb5b5" stroke="#263238" stroke-linecap="round" stroke-linejoin="round" stroke-width="0.2"/>
        <path id="Path_1834" data-name="Path 1834" d="M271.31,241.75h-2.415a1.115,1.115,0,0,0-1.115,1.115v.619c0,1.284,1.04,2.914,2.324,2.914s2.321-1.63,2.321-2.914v-.619a1.115,1.115,0,0,0-1.115-1.115Z" transform="translate(-208.224 -183.55)" fill="#ffb5b5" stroke="#263238" stroke-linecap="round" stroke-linejoin="round" stroke-width="0.2"/>
        <path id="Path_1835" data-name="Path 1835" d="M289.1,241.75h-2.4a1.115,1.115,0,0,0-1.115,1.115v.619c0,1.284,1.04,2.914,2.324,2.914s2.324-1.63,2.324-2.914v-.619a1.118,1.118,0,0,0-1.131-1.115Z" transform="translate(-220.221 -183.55)" fill="#ffb5b5" stroke="#263238" stroke-linecap="round" stroke-linejoin="round" stroke-width="0.2"/>
        <path id="Path_1836" data-name="Path 1836" d="M306.834,241.75h-2.415a1.118,1.118,0,0,0-1.118,1.115v.619c0,1.284,1.04,2.914,2.324,2.914s2.324-1.63,2.324-2.914v-.619A1.115,1.115,0,0,0,306.834,241.75Z" transform="translate(-232.165 -183.55)" fill="#ffb5b5" stroke="#263238" stroke-linecap="round" stroke-linejoin="round" stroke-width="0.2"/>
        <path id="Path_1837" data-name="Path 1837" d="M324.6,241.75h-2.415a1.115,1.115,0,0,0-1.115,1.115v.619c0,1.284,1.04,2.914,2.321,2.914s2.324-1.63,2.324-2.914v-.619A1.115,1.115,0,0,0,324.6,241.75Z" transform="translate(-244.142 -183.55)" fill="#ffb5b5" stroke="#263238" stroke-linecap="round" stroke-linejoin="round" stroke-width="0.2"/>
        <path id="Path_1838" data-name="Path 1838" d="M342.36,241.75h-2.415a1.115,1.115,0,0,0-1.115,1.115v.619c0,1.281,1.033,2.911,2.337,2.911s2.321-1.63,2.321-2.914v-.619a1.115,1.115,0,0,0-1.128-1.112Z" transform="translate(-256.113 -183.55)" fill="#ffb5b5" stroke="#263238" stroke-linecap="round" stroke-linejoin="round" stroke-width="0.2"/>
        <path id="Path_1839" data-name="Path 1839" d="M146.97,279.39h-2.416a1.115,1.115,0,0,0-1.115,1.115v.619c0,1.284,1.04,2.914,2.324,2.914s2.324-1.63,2.324-2.914V280.5A1.118,1.118,0,0,0,146.97,279.39Z" transform="translate(-124.416 -208.92)" fill="#ffb5b5" stroke="#263238" stroke-linecap="round" stroke-linejoin="round" stroke-width="0.2"/>
        <path id="Path_1840" data-name="Path 1840" d="M164.694,279.39h-2.416a1.118,1.118,0,0,0-1.118,1.115v.619c0,1.284,1.04,2.914,2.324,2.914s2.324-1.63,2.324-2.914V280.5A1.115,1.115,0,0,0,164.694,279.39Z" transform="translate(-136.36 -208.92)" fill="#ffb5b5" stroke="#263238" stroke-linecap="round" stroke-linejoin="round" stroke-width="0.2"/>
        <path id="Path_1841" data-name="Path 1841" d="M182.5,279.39h-2.416a1.115,1.115,0,0,0-1.115,1.115v.619c0,1.284,1.04,2.914,2.321,2.914s2.324-1.63,2.324-2.914V280.5A1.115,1.115,0,0,0,182.5,279.39Z" transform="translate(-148.364 -208.92)" fill="#ffb5b5" stroke="#263238" stroke-linecap="round" stroke-linejoin="round" stroke-width="0.2"/>
        <path id="Path_1842" data-name="Path 1842" d="M200.26,279.39h-2.416a1.115,1.115,0,0,0-1.115,1.115v.619c0,1.284,1.04,2.914,2.324,2.914s2.321-1.63,2.321-2.914V280.5A1.115,1.115,0,0,0,200.26,279.39Z" transform="translate(-160.335 -208.92)" fill="#ffb5b5" stroke="#263238" stroke-linecap="round" stroke-linejoin="round" stroke-width="0.2"/>
        <path id="Path_1843" data-name="Path 1843" d="M218.02,279.39H215.6a1.115,1.115,0,0,0-1.115,1.115v.619c0,1.284,1.04,2.914,2.324,2.914s2.324-1.63,2.324-2.914V280.5A1.118,1.118,0,0,0,218.02,279.39Z" transform="translate(-172.305 -208.92)" fill="#ffb5b5" stroke="#263238" stroke-linecap="round" stroke-linejoin="round" stroke-width="0.2"/>
        <path id="Path_1844" data-name="Path 1844" d="M235.784,279.39h-2.415a1.118,1.118,0,0,0-1.118,1.115v.619c0,1.284,1.04,2.914,2.324,2.914s2.324-1.63,2.324-2.914V280.5A1.115,1.115,0,0,0,235.784,279.39Z" transform="translate(-184.276 -208.92)" fill="#ffb5b5" stroke="#263238" stroke-linecap="round" stroke-linejoin="round" stroke-width="0.2"/>
        <path id="Path_1845" data-name="Path 1845" d="M253.55,279.39h-2.416a1.115,1.115,0,0,0-1.115,1.115v.619c0,1.284,1.04,2.914,2.321,2.914s2.324-1.63,2.324-2.914V280.5A1.115,1.115,0,0,0,253.55,279.39Z" transform="translate(-196.253 -208.92)" fill="#ffb5b5" stroke="#263238" stroke-linecap="round" stroke-linejoin="round" stroke-width="0.2"/>
        <path id="Path_1846" data-name="Path 1846" d="M271.31,279.39h-2.415a1.115,1.115,0,0,0-1.115,1.115v.619c0,1.284,1.04,2.914,2.324,2.914s2.321-1.63,2.321-2.914V280.5A1.115,1.115,0,0,0,271.31,279.39Z" transform="translate(-208.224 -208.92)" fill="#ffb5b5" stroke="#263238" stroke-linecap="round" stroke-linejoin="round" stroke-width="0.2"/>
        <path id="Path_1847" data-name="Path 1847" d="M289.1,279.39h-2.4a1.115,1.115,0,0,0-1.115,1.115v.619c0,1.284,1.04,2.914,2.324,2.914s2.324-1.63,2.324-2.914V280.5a1.118,1.118,0,0,0-1.131-1.115Z" transform="translate(-220.221 -208.92)" fill="#ffb5b5" stroke="#263238" stroke-linecap="round" stroke-linejoin="round" stroke-width="0.2"/>
        <path id="Path_1848" data-name="Path 1848" d="M306.834,279.39h-2.415A1.118,1.118,0,0,0,303.3,280.5v.619c0,1.284,1.04,2.914,2.324,2.914s2.324-1.63,2.324-2.914V280.5A1.115,1.115,0,0,0,306.834,279.39Z" transform="translate(-232.165 -208.92)" fill="#ffb5b5" stroke="#263238" stroke-linecap="round" stroke-linejoin="round" stroke-width="0.2"/>
        <path id="Path_1849" data-name="Path 1849" d="M324.6,279.39h-2.415a1.115,1.115,0,0,0-1.115,1.115v.619c0,1.284,1.04,2.914,2.321,2.914s2.324-1.63,2.324-2.914V280.5A1.115,1.115,0,0,0,324.6,279.39Z" transform="translate(-244.142 -208.92)" fill="#ffb5b5" stroke="#263238" stroke-linecap="round" stroke-linejoin="round" stroke-width="0.2"/>
        <path id="Path_1850" data-name="Path 1850" d="M342.36,279.39h-2.415a1.115,1.115,0,0,0-1.115,1.115v.619c0,1.284,1.04,2.914,2.324,2.914s2.321-1.63,2.321-2.914V280.5A1.115,1.115,0,0,0,342.36,279.39Z" transform="translate(-256.113 -208.92)" fill="#ffb5b5" stroke="#263238" stroke-linecap="round" stroke-linejoin="round" stroke-width="0.2"/>
        <path id="Path_1851" data-name="Path 1851" d="M138.1,261.18h-2.409a1.115,1.115,0,0,0-1.115,1.115v.619c0,1.281,1.04,2.914,2.324,2.914s2.321-1.63,2.321-2.914v-.619a1.115,1.115,0,0,0-1.121-1.115Z" transform="translate(-118.444 -196.646)" fill="#ffb5b5" stroke="#263238" stroke-linecap="round" stroke-linejoin="round" stroke-width="0.2"/>
        <path id="Path_1852" data-name="Path 1852" d="M155.85,261.18h-2.415a1.115,1.115,0,0,0-1.115,1.115v.619c0,1.281,1.04,2.914,2.324,2.914s2.324-1.63,2.324-2.914v-.619A1.118,1.118,0,0,0,155.85,261.18Z" transform="translate(-130.401 -196.646)" fill="#ffb5b5" stroke="#263238" stroke-linecap="round" stroke-linejoin="round" stroke-width="0.2"/>
        <path id="Path_1853" data-name="Path 1853" d="M173.614,261.18H171.2a1.118,1.118,0,0,0-1.118,1.115v.619c0,1.281,1.043,2.914,2.324,2.914s2.324-1.63,2.324-2.914v-.619a1.115,1.115,0,0,0-1.115-1.115Z" transform="translate(-142.372 -196.646)" fill="#ffb5b5" stroke="#263238" stroke-linecap="round" stroke-linejoin="round" stroke-width="0.2"/>
        <path id="Path_1854" data-name="Path 1854" d="M191.38,261.18h-2.416a1.115,1.115,0,0,0-1.115,1.115v.619c0,1.281,1.04,2.914,2.321,2.914s2.324-1.63,2.324-2.914v-.619a1.115,1.115,0,0,0-1.115-1.115Z" transform="translate(-154.349 -196.646)" fill="#ffb5b5" stroke="#263238" stroke-linecap="round" stroke-linejoin="round" stroke-width="0.2"/>
        <path id="Path_1855" data-name="Path 1855" d="M209.12,261.18h-2.425a1.115,1.115,0,0,0-1.115,1.115v.619c0,1.281,1.04,2.914,2.324,2.914s2.321-1.63,2.321-2.914v-.619A1.115,1.115,0,0,0,209.12,261.18Z" transform="translate(-166.3 -196.646)" fill="#ffb5b5" stroke="#263238" stroke-linecap="round" stroke-linejoin="round" stroke-width="0.2"/>
        <path id="Path_1856" data-name="Path 1856" d="M226.9,261.18h-2.416a1.115,1.115,0,0,0-1.115,1.115v.619c0,1.281,1.04,2.914,2.324,2.914s2.324-1.63,2.324-2.914v-.619A1.118,1.118,0,0,0,226.9,261.18Z" transform="translate(-178.29 -196.646)" fill="#ffb5b5" stroke="#263238" stroke-linecap="round" stroke-linejoin="round" stroke-width="0.2"/>
        <path id="Path_1857" data-name="Path 1857" d="M244.694,261.18h-2.415a1.118,1.118,0,0,0-1.118,1.115v.619c0,1.281,1.043,2.914,2.324,2.914s2.324-1.63,2.324-2.914v-.619a1.115,1.115,0,0,0-1.115-1.115Z" transform="translate(-190.281 -196.646)" fill="#ffb5b5" stroke="#263238" stroke-linecap="round" stroke-linejoin="round" stroke-width="0.2"/>
        <path id="Path_1858" data-name="Path 1858" d="M262.43,261.18h-2.415a1.115,1.115,0,0,0-1.115,1.115v.619c0,1.281,1.04,2.914,2.321,2.914s2.324-1.63,2.324-2.914v-.619a1.115,1.115,0,0,0-1.115-1.115Z" transform="translate(-202.238 -196.646)" fill="#ffb5b5" stroke="#263238" stroke-linecap="round" stroke-linejoin="round" stroke-width="0.2"/>
        <path id="Path_1859" data-name="Path 1859" d="M280.19,261.18h-2.416a1.115,1.115,0,0,0-1.115,1.115v.619c0,1.281,1.04,2.914,2.324,2.914s2.321-1.63,2.321-2.914v-.619a1.115,1.115,0,0,0-1.115-1.115Z" transform="translate(-214.209 -196.646)" fill="#ffb5b5" stroke="#263238" stroke-linecap="round" stroke-linejoin="round" stroke-width="0.2"/>
        <path id="Path_1860" data-name="Path 1860" d="M297.95,261.18h-2.415a1.115,1.115,0,0,0-1.115,1.115v.619c0,1.281,1.04,2.914,2.324,2.914s2.324-1.63,2.324-2.914v-.619A1.118,1.118,0,0,0,297.95,261.18Z" transform="translate(-226.18 -196.646)" fill="#ffb5b5" stroke="#263238" stroke-linecap="round" stroke-linejoin="round" stroke-width="0.2"/>
        <path id="Path_1861" data-name="Path 1861" d="M315.694,261.18h-2.416a1.118,1.118,0,0,0-1.118,1.115v.619c0,1.281,1.043,2.914,2.324,2.914s2.324-1.63,2.324-2.914v-.619a1.115,1.115,0,0,0-1.115-1.115Z" transform="translate(-238.137 -196.646)" fill="#ffb5b5" stroke="#263238" stroke-linecap="round" stroke-linejoin="round" stroke-width="0.2"/>
        <path id="Path_1862" data-name="Path 1862" d="M333.514,261.18H331.1a1.115,1.115,0,0,0-1.1,1.115v.619c0,1.281,1.04,2.914,2.321,2.914s2.324-1.63,2.324-2.914v-.619a1.115,1.115,0,0,0-1.131-1.115Z" transform="translate(-250.161 -196.646)" fill="#ffb5b5" stroke="#263238" stroke-linecap="round" stroke-linejoin="round" stroke-width="0.2"/>
        <path id="Path_1863" data-name="Path 1863" d="M351.24,261.18h-2.416a1.115,1.115,0,0,0-1.115,1.115v.619c0,1.281,1.04,2.914,2.324,2.914s2.321-1.63,2.321-2.914v-.619a1.115,1.115,0,0,0-1.115-1.115Z" transform="translate(-262.099 -196.646)" fill="#ffb5b5" stroke="#263238" stroke-linecap="round" stroke-linejoin="round" stroke-width="0.2"/>
        <rect id="Rectangle_3502" data-name="Rectangle 3502" width="46.321" height="5.268" rx="2.634" transform="translate(30.032 76.651)" fill="#ffb5b5" stroke="#263238" stroke-linecap="round" stroke-linejoin="round" stroke-width="0.2"/>
        <path id="Path_1864" data-name="Path 1864" d="M326.97,299.3h-2.416a1.115,1.115,0,0,0-1.115,1.115v.619c0,1.284,1.04,2.914,2.324,2.914s2.321-1.63,2.321-2.914v-.619A1.115,1.115,0,0,0,326.97,299.3Z" transform="translate(-245.74 -222.34)" fill="#ffb5b5" stroke="#263238" stroke-linecap="round" stroke-linejoin="round" stroke-width="0.2"/>
        <path id="Path_1865" data-name="Path 1865" d="M162.36,299.3h-2.416a1.115,1.115,0,0,0-1.115,1.115v.619c0,1.284,1.04,2.914,2.324,2.914s2.324-1.63,2.324-2.914v-.619A1.118,1.118,0,0,0,162.36,299.3Z" transform="translate(-134.789 -222.34)" fill="#ffb5b5" stroke="#263238" stroke-linecap="round" stroke-linejoin="round" stroke-width="0.2"/>
        <path id="Path_1866" data-name="Path 1866" d="M148.4,244.828a1.976,1.976,0,0,1,.349.033v-.688a.486.486,0,0,0-.486-.483h-2.416a.486.486,0,0,0-.482.482v.619a2.512,2.512,0,0,0,1.421,2.236A1.694,1.694,0,0,1,148.4,244.828Z" transform="translate(-125.717 -184.857)" opacity="0.2"/>
        <path id="Path_1867" data-name="Path 1867" d="M166.3,244.635a1.609,1.609,0,0,1,.222,0v-.5a.486.486,0,0,0-.482-.482h-2.415a.486.486,0,0,0-.486.482v.619c0,.978.773,2.2,1.63,2.282A1.7,1.7,0,0,1,166.3,244.635Z" transform="translate(-137.694 -184.83)" opacity="0.2"/>
        <path id="Path_1868" data-name="Path 1868" d="M184.235,244.57h.049v-.407a.483.483,0,0,0-.482-.483h-2.416a.486.486,0,0,0-.486.483v.619c0,.994.821,2.282,1.692,2.282a.843.843,0,0,0,.127,0A1.725,1.725,0,0,1,184.235,244.57Z" transform="translate(-149.665 -184.851)" opacity="0.2"/>
        <path id="Path_1869" data-name="Path 1869" d="M201.606,244.383a1.861,1.861,0,0,1,.4.033v-.284a.482.482,0,0,0-.482-.482h-2.416a.483.483,0,0,0-.482.482v.619a2.485,2.485,0,0,0,1.526,2.282A1.748,1.748,0,0,1,201.606,244.383Z" transform="translate(-161.615 -184.83)" opacity="0.2"/>
        <path id="Path_1870" data-name="Path 1870" d="M219.69,244.4h.124v-.244a.486.486,0,0,0-.486-.482h-2.415a.486.486,0,0,0-.482.482v.619c0,.994.821,2.282,1.692,2.282a.931.931,0,0,0,.134,0A1.74,1.74,0,0,1,219.69,244.4Z" transform="translate(-173.613 -184.844)" opacity="0.2"/>
        <path id="Path_1871" data-name="Path 1871" d="M237.5,244.416h.075v-.284a.486.486,0,0,0-.482-.482h-2.416a.486.486,0,0,0-.486.482v.619c0,.994.822,2.282,1.692,2.282a.878.878,0,0,0,.16,0A1.738,1.738,0,0,1,237.5,244.416Z" transform="translate(-185.583 -184.83)" opacity="0.2"/>
        <path id="Path_1872" data-name="Path 1872" d="M255.063,244.41a2.474,2.474,0,0,1,.277.019v-.258a.482.482,0,0,0-.482-.482h-2.416a.482.482,0,0,0-.482.482v.619c0,.978.808,2.262,1.672,2.282A1.74,1.74,0,0,1,255.063,244.41Z" transform="translate(-197.561 -184.857)" opacity="0.2"/>
        <path id="Path_1873" data-name="Path 1873" d="M273.1,244.488v-.326a.483.483,0,0,0-.482-.483H270.2a.483.483,0,0,0-.482.483v.619c0,.994.818,2.282,1.692,2.282a.884.884,0,0,0,.258-.042A1.729,1.729,0,0,1,273.1,244.488Z" transform="translate(-209.532 -184.851)" opacity="0.2"/>
        <path id="Path_1874" data-name="Path 1874" d="M290.415,244.368a1.828,1.828,0,0,1,.476.062v-.258a.486.486,0,0,0-.486-.482H288a.486.486,0,0,0-.482.482v.619a2.471,2.471,0,0,0,1.49,2.256A1.728,1.728,0,0,1,290.415,244.368Z" transform="translate(-221.529 -184.857)" opacity="0.2"/>
        <path id="Path_1875" data-name="Path 1875" d="M308.278,244.368a1.916,1.916,0,0,1,.346.033v-.228a.486.486,0,0,0-.482-.482h-2.415a.486.486,0,0,0-.486.482v.619c0,.978.782,2.22,1.63,2.282A1.744,1.744,0,0,1,308.278,244.368Z" transform="translate(-233.473 -184.857)" opacity="0.2"/>
        <path id="Path_1876" data-name="Path 1876" d="M326.136,244.534a2.119,2.119,0,0,1,.254.02v-.381a.483.483,0,0,0-.483-.482h-2.415a.483.483,0,0,0-.483.482v.619c0,.978.782,2.217,1.63,2.282A1.73,1.73,0,0,1,326.136,244.534Z" transform="translate(-245.45 -184.857)" opacity="0.2"/>
        <path id="Path_1877" data-name="Path 1877" d="M344.15,244.459v-.287a.482.482,0,0,0-.482-.482h-2.416a.482.482,0,0,0-.482.482v.619c0,.994.818,2.282,1.692,2.282a.956.956,0,0,0,.365-.078A1.733,1.733,0,0,1,344.15,244.459Z" transform="translate(-257.421 -184.857)" opacity="0.2"/>
        <path id="Path_1878" data-name="Path 1878" d="M148.578,281.861a1.731,1.731,0,0,1,.186,0v-.068a.486.486,0,0,0-.486-.482h-2.416a.486.486,0,0,0-.482.482v.619c0,.994.821,2.282,1.692,2.282a1.079,1.079,0,0,0,.179-.02A1.745,1.745,0,0,1,148.578,281.861Z" transform="translate(-125.724 -210.214)" opacity="0.2"/>
        <path id="Path_1879" data-name="Path 1879" d="M166.22,281.881a1.835,1.835,0,0,1,.3.026v-.085a.486.486,0,0,0-.482-.482h-2.415a.486.486,0,0,0-.486.482v.619c0,.994.821,2.282,1.692,2.282h.072A1.754,1.754,0,0,1,166.22,281.881Z" transform="translate(-137.694 -210.234)" opacity="0.2"/>
        <path id="Path_1880" data-name="Path 1880" d="M183.918,281.956a1.872,1.872,0,0,1,.326.029v-.173a.482.482,0,0,0-.482-.482h-2.415a.486.486,0,0,0-.486.482v.619c0,.978.808,2.259,1.672,2.282A1.756,1.756,0,0,1,183.918,281.956Z" transform="translate(-149.638 -210.227)" opacity="0.2"/>
        <path id="Path_1881" data-name="Path 1881" d="M201.8,282a2.044,2.044,0,0,1,.251.016v-.2a.483.483,0,0,0-.483-.482h-2.416a.482.482,0,0,0-.482.482v.619c0,.994.818,2.282,1.692,2.282h.039A1.742,1.742,0,0,1,201.8,282Z" transform="translate(-161.642 -210.227)" opacity="0.2"/>
        <path id="Path_1882" data-name="Path 1882" d="M219.442,281.881a1.947,1.947,0,0,1,.372.036v-.095a.486.486,0,0,0-.486-.482h-2.415a.486.486,0,0,0-.482.482v.619c0,.994.821,2.282,1.692,2.282h0A1.756,1.756,0,0,1,219.442,281.881Z" transform="translate(-173.613 -210.234)" opacity="0.2"/>
        <path id="Path_1883" data-name="Path 1883" d="M237.29,281.914a1.954,1.954,0,0,1,.284.023v-.124a.486.486,0,0,0-.482-.482h-2.416a.486.486,0,0,0-.486.482v.619c0,.994.822,2.282,1.692,2.282h.062A1.751,1.751,0,0,1,237.29,281.914Z" transform="translate(-185.583 -210.227)" opacity="0.2"/>
        <path id="Path_1884" data-name="Path 1884" d="M255.272,282.031h.068V281.8a.482.482,0,0,0-.482-.482h-2.416a.482.482,0,0,0-.482.482v.619c0,.994.818,2.282,1.689,2.282a.9.9,0,0,0,.189-.023A1.739,1.739,0,0,1,255.272,282.031Z" transform="translate(-197.561 -210.221)" opacity="0.2"/>
        <path id="Path_1885" data-name="Path 1885" d="M273.071,281.914h.02v-.1a.482.482,0,0,0-.483-.482H270.2a.482.482,0,0,0-.482.482v.619c0,.994.818,2.282,1.692,2.282a.926.926,0,0,0,.293-.052A1.741,1.741,0,0,1,273.071,281.914Z" transform="translate(-209.532 -210.227)" opacity="0.2"/>
        <path id="Path_1886" data-name="Path 1886" d="M290.7,281.776h.182a.486.486,0,0,0-.482-.466H288a.486.486,0,0,0-.482.482v.619c0,.994.821,2.282,1.692,2.282a.978.978,0,0,0,.235-.036A1.739,1.739,0,0,1,290.7,281.776Z" transform="translate(-221.529 -210.214)" opacity="0.2"/>
        <path id="Path_1887" data-name="Path 1887" d="M308.594,281.881h0v-.059a.486.486,0,0,0-.483-.482H305.7a.486.486,0,0,0-.486.482v.619c0,.994.821,2.282,1.692,2.282a1.024,1.024,0,0,0,.326-.059A1.753,1.753,0,0,1,308.594,281.881Z" transform="translate(-233.452 -210.234)" opacity="0.2"/>
        <path id="Path_1888" data-name="Path 1888" d="M326.28,281.868h.13V281.8a.482.482,0,0,0-.483-.482h-2.415a.482.482,0,0,0-.482.482v.619c0,.994.818,2.282,1.689,2.282a.893.893,0,0,0,.228-.033A1.74,1.74,0,0,1,326.28,281.868Z" transform="translate(-245.464 -210.221)" opacity="0.2"/>
        <path id="Path_1889" data-name="Path 1889" d="M343.942,282.088h.209v-.326a.482.482,0,0,0-.482-.482h-2.416a.482.482,0,0,0-.482.482v.619c0,.994.818,2.282,1.692,2.282h0A1.733,1.733,0,0,1,343.942,282.088Z" transform="translate(-257.421 -210.194)" opacity="0.2"/>
        <path id="Path_1890" data-name="Path 1890" d="M139.855,263.762h.042v-.16a.486.486,0,0,0-.486-.482H137a.483.483,0,0,0-.482.482v.619c0,.994.818,2.282,1.692,2.282a.955.955,0,0,0,.248-.039A1.735,1.735,0,0,1,139.855,263.762Z" transform="translate(-119.752 -197.954)" opacity="0.2"/>
        <path id="Path_1891" data-name="Path 1891" d="M157.481,263.749h.163v-.166a.486.486,0,0,0-.486-.483h-2.415a.486.486,0,0,0-.482.483v.619c0,.994.822,2.282,1.692,2.282a1.051,1.051,0,0,0,.143,0A1.745,1.745,0,0,1,157.481,263.749Z" transform="translate(-131.709 -197.94)" opacity="0.2"/>
        <path id="Path_1892" data-name="Path 1892" d="M175.361,263.762h.029v-.16a.486.486,0,0,0-.482-.482h-2.416a.486.486,0,0,0-.492.482v.619c0,.994.822,2.282,1.692,2.282a.874.874,0,0,0,.257-.042A1.742,1.742,0,0,1,175.361,263.762Z" transform="translate(-143.666 -197.953)" opacity="0.2"/>
        <path id="Path_1893" data-name="Path 1893" d="M193.02,263.746h.15v-.124a.482.482,0,0,0-.482-.482h-2.415a.483.483,0,0,0-.482.483v.619c0,.994.818,2.282,1.689,2.282a1,1,0,0,0,.176-.02A1.74,1.74,0,0,1,193.02,263.746Z" transform="translate(-155.657 -197.967)" opacity="0.2"/>
        <path id="Path_1894" data-name="Path 1894" d="M210.61,263.762a1.866,1.866,0,0,1,.31.026V263.6a.482.482,0,0,0-.482-.482H208a.482.482,0,0,0-.482.482v.619c0,.994.818,2.282,1.692,2.282h0A1.749,1.749,0,0,1,210.61,263.762Z" transform="translate(-167.607 -197.954)" opacity="0.2"/>
        <path id="Path_1895" data-name="Path 1895" d="M228.43,263.554a2.237,2.237,0,0,1,.261.016.486.486,0,0,0-.482-.45h-2.416a.486.486,0,0,0-.482.482v.619c0,.994.821,2.282,1.692,2.282a.9.9,0,0,0,.186-.023A1.754,1.754,0,0,1,228.43,263.554Z" transform="translate(-179.598 -197.954)" opacity="0.2"/>
        <path id="Path_1896" data-name="Path 1896" d="M246.235,263.774h.218v-.212a.486.486,0,0,0-.482-.482h-2.415a.486.486,0,0,0-.486.482v.619c0,.994.821,2.282,1.692,2.282h.065A1.733,1.733,0,0,1,246.235,263.774Z" transform="translate(-191.569 -197.927)" opacity="0.2"/>
        <path id="Path_1897" data-name="Path 1897" d="M264.22,263.6a.483.483,0,0,0-.482-.482h-2.416a.483.483,0,0,0-.482.482v.619c0,.994.818,2.282,1.689,2.282a1.06,1.06,0,0,0,.5-.137A1.755,1.755,0,0,1,264.22,263.6Z" transform="translate(-203.546 -197.954)" opacity="0.2"/>
        <path id="Path_1898" data-name="Path 1898" d="M282.01,263.746v-.124a.482.482,0,0,0-.483-.482h-2.415a.483.483,0,0,0-.482.483v.619c0,.994.818,2.282,1.692,2.282a.979.979,0,0,0,.4-.094A1.735,1.735,0,0,1,282.01,263.746Z" transform="translate(-215.537 -197.967)" opacity="0.2"/>
        <path id="Path_1899" data-name="Path 1899" d="M299.542,263.615h.2v-.042a.486.486,0,0,0-.486-.482h-2.415a.486.486,0,0,0-.482.482v.619c0,.994.821,2.282,1.692,2.282a.846.846,0,0,0,.182-.023A1.744,1.744,0,0,1,299.542,263.615Z" transform="translate(-227.487 -197.933)" opacity="0.2"/>
        <path id="Path_1900" data-name="Path 1900" d="M317.5,263.847V263.6a.486.486,0,0,0-.483-.482h-2.415a.486.486,0,0,0-.486.482v.619c0,.994.821,2.282,1.692,2.282a.982.982,0,0,0,.29-.049A1.732,1.732,0,0,1,317.5,263.847Z" transform="translate(-239.458 -197.954)" opacity="0.2"/>
        <path id="Path_1901" data-name="Path 1901" d="M335,263.677a2.388,2.388,0,0,1,.274.02V263.6a.482.482,0,0,0-.482-.482h-2.416a.482.482,0,0,0-.482.482v.619c0,.994.818,2.282,1.688,2.282a.788.788,0,0,0,.091,0A1.752,1.752,0,0,1,335,263.677Z" transform="translate(-251.435 -197.954)" opacity="0.2"/>
        <path id="Path_1902" data-name="Path 1902" d="M352.806,263.928a1.667,1.667,0,0,1,.225,0V263.6a.483.483,0,0,0-.483-.482h-2.415a.483.483,0,0,0-.482.482v.619c0,.978.812,2.282,1.682,2.282A1.728,1.728,0,0,1,352.806,263.928Z" transform="translate(-263.406 -197.954)" opacity="0.2"/>
        <rect id="Rectangle_3503" data-name="Rectangle 3503" width="4.003" height="45.057" rx="1.21" transform="translate(75.721 77.283) rotate(90)" opacity="0.2"/>
        <path id="Path_1903" data-name="Path 1903" d="M328.76,302.038v-.326a.482.482,0,0,0-.483-.482h-2.415a.482.482,0,0,0-.482.482v.619c0,.994.818,2.282,1.692,2.282a.978.978,0,0,0,.215-.029A1.728,1.728,0,0,1,328.76,302.038Z" transform="translate(-247.047 -223.64)" opacity="0.2"/>
        <path id="Path_1904" data-name="Path 1904" d="M163.87,301.837a1.935,1.935,0,0,1,.284.023v-.137a.486.486,0,0,0-.486-.482h-2.416a.486.486,0,0,0-.482.482v.619c0,.994.821,2.282,1.692,2.282h.055A1.749,1.749,0,0,1,163.87,301.837Z" transform="translate(-136.097 -223.647)" opacity="0.2"/>
        <path id="Path_1905" data-name="Path 1905" d="M121.42,94.5h79.9a2.07,2.07,0,0,1,2.07,2.07v18.255H119.35V96.57A2.07,2.07,0,0,1,121.42,94.5Z" transform="translate(-108.179 -84.3)" opacity="0.2"/>
        <path id="Path_1906" data-name="Path 1906" d="M206.539,76.852H139.714A75.96,75.96,0,0,0,136.78,63.21h72.706a72.882,72.882,0,0,0-2.947,13.642Z" transform="translate(-119.927 -63.21)" fill="#fff"/>
        <g id="Group_106" data-name="Group 106" transform="translate(16.853 0)" clip-path="url(#clip-path-2)">
          <path id="Path_1907" data-name="Path 1907" d="M211.9,91.57c-.486,2.653-.652,4.4-.652,4.4H144.418s-.169-1.711-.668-4.4Z" transform="translate(-141.478 -82.325)" opacity="0.2"/>
        </g>
        <path id="Path_1909" data-name="Path 1909" d="M206.539,76.852H139.714A75.96,75.96,0,0,0,136.78,63.21h72.706a72.882,72.882,0,0,0-2.947,13.642Z" transform="translate(-119.927 -63.21)" fill="none" stroke="#263238" stroke-linecap="round" stroke-linejoin="round" stroke-width="0.2"/>
        <rect id="Rectangle_3504" data-name="Rectangle 3504" width="65.557" height="26.972" transform="translate(20.145 25.13)" fill="#263238"/>
        <g id="Group_107" data-name="Group 107" transform="translate(31.411 29.364)" opacity="0.4">
          <path id="Path_1910" data-name="Path 1910" d="M242.42,173.964l.346.016q.652-10.089,1.3-20.211Q243.238,163.895,242.42,173.964Z" transform="translate(-222.542 -153.614)" fill="#fff"/>
          <path id="Path_1911" data-name="Path 1911" d="M239,173.886l.346.029q1.131-10.024,2.259-20.136Q240.3,163.9,239,173.886Z" transform="translate(-220.237 -153.62)" fill="#fff"/>
          <path id="Path_1912" data-name="Path 1912" d="M235.67,173.756a3.111,3.111,0,0,1,.345.039q1.6-9.916,3.227-20.025Q237.45,163.888,235.67,173.756Z" transform="translate(-217.992 -153.614)" fill="#fff"/>
          <path id="Path_1913" data-name="Path 1913" d="M232.3,173.569l.349.055q2.08-9.779,4.192-19.885Q234.559,163.855,232.3,173.569Z" transform="translate(-215.721 -153.593)" fill="#fff"/>
          <path id="Path_1914" data-name="Path 1914" d="M228.94,173.378l.352.072q2.543-9.594,5.154-19.689Q231.668,163.859,228.94,173.378Z" transform="translate(-213.456 -153.607)" fill="#fff"/>
          <path id="Path_1915" data-name="Path 1915" d="M225.6,173.123l.352.088c2-6.252,4.052-12.736,6.112-19.461C229.883,160.475,227.709,166.929,225.6,173.123Z" transform="translate(-211.205 -153.6)" fill="#fff"/>
          <path id="Path_1916" data-name="Path 1916" d="M222.27,172.816l.355.1c2.282-6.076,4.671-12.472,7.064-19.19C227.176,160.448,224.673,166.808,222.27,172.816Z" transform="translate(-208.96 -153.587)" fill="#fff"/>
          <path id="Path_1917" data-name="Path 1917" d="M219,172.477l.355.114c2.578-5.868,5.284-12.162,8.009-18.871C224.506,160.429,221.676,166.678,219,172.477Z" transform="translate(-206.756 -153.58)" fill="#fff"/>
          <path id="Path_1918" data-name="Path 1918" d="M215.68,172.082l.359.13c2.856-5.646,5.89-11.813,8.948-18.512C221.8,160.4,218.64,166.511,215.68,172.082Z" transform="translate(-204.519 -153.566)" fill="#fff"/>
          <path id="Path_1919" data-name="Path 1919" d="M212.44,171.638l.359.15c3.116-5.392,6.48-11.409,9.874-18.108C219.142,160.366,215.657,166.351,212.44,171.638Z" transform="translate(-202.335 -153.553)" fill="#fff"/>
          <path id="Path_1920" data-name="Path 1920" d="M209.23,171.142l.359.173c3.364-5.1,7.057-10.985,10.79-17.655C216.512,160.33,212.692,166.158,209.23,171.142Z" transform="translate(-200.171 -153.539)" fill="#fff"/>
          <path id="Path_1921" data-name="Path 1921" d="M206.07,170.587l.359.2c3.586-4.782,7.618-10.5,11.69-17.153A196.162,196.162,0,0,1,206.07,170.587Z" transform="translate(-198.041 -153.519)" fill="#fff"/>
          <path id="Path_1922" data-name="Path 1922" d="M203,169.987c.117.075.241.143.362.215a170.407,170.407,0,0,0,12.57-16.592A155.045,155.045,0,0,1,203,169.987Z" transform="translate(-195.972 -153.506)" fill="#fff"/>
          <path id="Path_1923" data-name="Path 1923" d="M199.93,169.338l.355.244a135.528,135.528,0,0,0,13.434-15.973A123.964,123.964,0,0,1,199.93,169.338Z" transform="translate(-193.903 -153.506)" fill="#fff"/>
          <path id="Path_1924" data-name="Path 1924" d="M211.614,153.55A100.793,100.793,0,0,1,197,168.591l.349.271a109.744,109.744,0,0,0,14.265-15.311Z" transform="translate(-191.928 -153.465)" fill="#fff"/>
          <path id="Path_1925" data-name="Path 1925" d="M209.562,153.52A83.233,83.233,0,0,1,194.15,167.8l.346.3A89.8,89.8,0,0,0,209.562,153.52Z" transform="translate(-190.007 -153.445)" fill="#fff"/>
          <path id="Path_1926" data-name="Path 1926" d="M207.6,153.49a68.969,68.969,0,0,1-16.156,13.46c.108.111.215.222.326.326A73.87,73.87,0,0,0,207.6,153.49Z" transform="translate(-188.18 -153.425)" fill="#fff"/>
          <path id="Path_1927" data-name="Path 1927" d="M205.79,153.45c-6.246,6.405-12.315,10.594-16.85,12.583l.326.355C193.755,164.181,199.688,159.875,205.79,153.45Z" transform="translate(-186.495 -153.398)" fill="#fff"/>
          <path id="Path_1928" data-name="Path 1928" d="M186.64,165.061c.094.13.192.261.29.388,4.547-1.679,10.757-5.685,17.182-12.029C197.557,159.734,191.214,163.61,186.64,165.061Z" transform="translate(-184.945 -153.378)" fill="#fff"/>
          <path id="Path_1929" data-name="Path 1929" d="M184.6,164.023c.085.137.173.274.261.411,4.564-1.147,11.044-4.834,17.746-11.083C195.775,159.563,189.18,163.113,184.6,164.023Z" transform="translate(-183.57 -153.33)" fill="#fff"/>
          <path id="Path_1930" data-name="Path 1930" d="M182.86,163.022c.072.143.147.284.222.427,4.564-.619,11.266-3.98,18.222-10.089C194.233,159.41,187.424,162.631,182.86,163.022Z" transform="translate(-182.397 -153.337)" fill="#fff"/>
          <path id="Path_1931" data-name="Path 1931" d="M181.44,161.945c.059.143.121.29.183.434,4.538-.111,11.409-3.139,18.581-9.088C192.95,159.177,185.971,162.059,181.44,161.945Z" transform="translate(-181.44 -153.29)" fill="#fff"/>
          <path id="Path_1932" data-name="Path 1932" d="M245.81,174.017h.342q.156-10.105.326-20.237Q246.136,163.9,245.81,174.017Z" transform="translate(-224.827 -153.62)" fill="#fff"/>
          <path id="Path_1933" data-name="Path 1933" d="M248.556,174.037h.345q-.326-10.105-.652-20.237Z" transform="translate(-226.471 -153.634)" fill="#fff"/>
          <path id="Path_1934" data-name="Path 1934" d="M249.914,174h.346q-.815-10.073-1.63-20.211Q249.272,163.915,249.914,174Z" transform="translate(-226.728 -153.627)" fill="#fff"/>
          <path id="Path_1935" data-name="Path 1935" d="M251.322,173.926l.346-.026q-1.3-10-2.608-20.119Q250.181,163.9,251.322,173.926Z" transform="translate(-227.017 -153.62)" fill="#fff"/>
          <path id="Path_1936" data-name="Path 1936" d="M252.63,173.815l.346-.042q-1.773-9.88-3.586-20Q251.023,163.892,252.63,173.815Z" transform="translate(-227.24 -153.614)" fill="#fff"/>
          <path id="Path_1937" data-name="Path 1937" d="M254.019,173.668l.349-.052q-2.249-9.73-4.547-19.846Q251.932,163.888,254.019,173.668Z" transform="translate(-227.53 -153.614)" fill="#fff"/>
          <path id="Path_1938" data-name="Path 1938" d="M255.384,173.475l.349-.065q-2.715-9.538-5.512-19.65Q252.821,163.872,255.384,173.475Z" transform="translate(-227.799 -153.607)" fill="#fff"/>
          <path id="Path_1939" data-name="Path 1939" d="M256.742,173.24l.355-.081c-2.112-6.194-4.29-12.671-6.477-19.409Q253.72,163.859,256.742,173.24Z" transform="translate(-228.069 -153.6)" fill="#fff"/>
          <path id="Path_1940" data-name="Path 1940" d="M258.1,172.96l.352-.1c-2.406-6.021-4.912-12.387-7.432-19.128C253.416,160.465,255.8,166.857,258.1,172.96Z" transform="translate(-228.338 -153.587)" fill="#fff"/>
          <path id="Path_1941" data-name="Path 1941" d="M259.449,172.637l.359-.117c-2.7-5.809-5.542-12.061-8.387-18.8C254.152,160.445,256.864,166.746,259.449,172.637Z" transform="translate(-228.608 -153.58)" fill="#fff"/>
          <path id="Path_1942" data-name="Path 1942" d="M260.791,172.261l.359-.134c-2.966-5.571-6.135-11.709-9.33-18.428C254.888,160.418,257.929,166.6,260.791,172.261Z" transform="translate(-228.878 -153.566)" fill="#fff"/>
          <path id="Path_1943" data-name="Path 1943" d="M262.123,171.84c.121-.052.245-.1.362-.15-3.227-5.3-6.728-11.3-10.265-18.01C255.626,160.389,258.994,166.436,262.123,171.84Z" transform="translate(-229.147 -153.553)" fill="#fff"/>
          <path id="Path_1944" data-name="Path 1944" d="M263.446,171.38l.362-.173c-3.472-5-7.308-10.842-11.188-17.538C256.365,160.359,260.069,166.263,263.446,171.38Z" transform="translate(-229.417 -153.546)" fill="#fff"/>
          <path id="Path_1945" data-name="Path 1945" d="M264.735,170.842c.121-.062.241-.13.359-.2A197.092,197.092,0,0,1,253,153.63C257.094,160.313,261.15,166.047,264.735,170.842Z" transform="translate(-229.673 -153.519)" fill="#fff"/>
          <path id="Path_1946" data-name="Path 1946" d="M266.042,170.264l.365-.215A155.442,155.442,0,0,1,253.42,153.61a170.328,170.328,0,0,0,12.622,16.654Z" transform="translate(-229.956 -153.506)" fill="#fff"/>
          <path id="Path_1947" data-name="Path 1947" d="M253.82,153.58a135.675,135.675,0,0,0,13.492,16.045l.362-.245A124.1,124.1,0,0,1,253.82,153.58Z" transform="translate(-230.226 -153.486)" fill="#fff"/>
          <path id="Path_1948" data-name="Path 1948" d="M254.22,153.55a109.378,109.378,0,0,0,14.343,15.373c.121-.088.235-.179.352-.271A100.517,100.517,0,0,1,254.22,153.55Z" transform="translate(-230.495 -153.465)" fill="#fff"/>
          <path id="Path_1949" data-name="Path 1949" d="M254.62,153.52a89.831,89.831,0,0,0,15.148,14.64c.117-.1.238-.2.352-.3A82.522,82.522,0,0,1,254.62,153.52Z" transform="translate(-230.765 -153.445)" fill="#fff"/>
          <path id="Path_1950" data-name="Path 1950" d="M255,153.49a74.483,74.483,0,0,0,15.924,13.848c.114-.108.222-.222.326-.326A69.245,69.245,0,0,1,255,153.49Z" transform="translate(-231.021 -153.425)" fill="#fff"/>
          <path id="Path_1951" data-name="Path 1951" d="M255.42,153.45c6.151,6.474,12.13,10.8,16.625,12.99l.326-.359C267.837,164.116,261.718,159.911,255.42,153.45Z" transform="translate(-231.304 -153.398)" fill="#fff"/>
          <path id="Path_1952" data-name="Path 1952" d="M273.1,165.494c.1-.13.2-.261.293-.394-4.58-1.418-10.982-5.307-17.6-11.68C262.27,159.819,268.542,163.838,273.1,165.494Z" transform="translate(-231.554 -153.378)" fill="#fff"/>
          <path id="Path_1953" data-name="Path 1953" d="M274.09,164.486l.267-.417c-4.587-.864-11.243-4.424-18.147-10.689C262.987,159.681,269.507,163.378,274.09,164.486Z" transform="translate(-231.837 -153.351)" fill="#fff"/>
          <path id="Path_1954" data-name="Path 1954" d="M275.053,163.445c.078-.143.153-.287.228-.434-4.564-.326-11.445-3.55-18.581-9.672C263.7,159.514,270.489,162.881,275.053,163.445Z" transform="translate(-232.167 -153.324)" fill="#fff"/>
          <path id="Path_1955" data-name="Path 1955" d="M257,153.29c7.25,6.018,14.213,9.046,18.744,9.092.065-.147.127-.293.189-.44C271.408,162.127,264.354,159.242,257,153.29Z" transform="translate(-232.369 -153.29)" fill="#fff"/>
        </g>
        <path id="Path_1956" data-name="Path 1956" d="M187.872,155.25c-1.235,3.169.1,12.387,9.017,12.387s12.152-6.477,11.791-10.48l11.9-1.917s3.648,10.079-4.1,17.13-34.593,6.595-40.268,1.235-2.526-15.947-2.526-15.947Z" transform="translate(-144.217 -125.24)" opacity="0.2"/>
        <path id="Path_1957" data-name="Path 1957" d="M379.24,100.247V98.024a.385.385,0,0,1,.271-.368l1.63-.509V94.924a1,1,0,0,1,1-1H384.1a.372.372,0,0,1,.378.352v.717a.372.372,0,0,1-.368.372h-2.487v2.174a.392.392,0,0,1-.186.326l-1.389.841v1.548Z" transform="translate(-283.35 -83.909)" fill="#999" stroke="#263238" stroke-linecap="round" stroke-linejoin="round" stroke-width="0.2"/>
        <rect id="Rectangle_3505" data-name="Rectangle 3505" width="2.145" height="6.415" transform="translate(95.89 16.338)" fill="#263238"/>
        <rect id="Rectangle_3506" data-name="Rectangle 3506" width="2.683" height="7.504" transform="translate(98.035 15.794)" fill="#757575"/>
        <g id="Group_108" data-name="Group 108" transform="translate(98.035 15.794)" clip-path="url(#clip-path-3)">
          <rect id="Rectangle_3507" data-name="Rectangle 3507" width="2.676" height="2.934" transform="translate(0 4.57)" opacity="0.2"/>
        </g>
        <rect id="Rectangle_3509" data-name="Rectangle 3509" width="2.683" height="7.504" transform="translate(98.035 15.794)" fill="none" stroke="#263238" stroke-linecap="round" stroke-linejoin="round" stroke-width="0.2"/>
        <rect id="Rectangle_3510" data-name="Rectangle 3510" width="2.145" height="6.415" transform="translate(10.497 22.75) rotate(180)" fill="#263238"/>
        <rect id="Rectangle_3511" data-name="Rectangle 3511" width="2.683" height="7.504" transform="translate(8.352 23.294) rotate(180)" fill="#757575"/>
        <g id="Group_109" data-name="Group 109" transform="translate(5.669 15.79)" clip-path="url(#clip-path-4)">
          <rect id="Rectangle_3512" data-name="Rectangle 3512" width="2.683" height="2.862" transform="translate(0.003 4.573)" opacity="0.2"/>
        </g>
        <rect id="Rectangle_3514" data-name="Rectangle 3514" width="2.683" height="7.504" transform="translate(8.352 23.294) rotate(180)" fill="none" stroke="#263238" stroke-linecap="round" stroke-linejoin="round" stroke-width="0.2"/>
        <path id="Path_1958" data-name="Path 1958" d="M95.254,115.113h0a2.608,2.608,0,0,0-.769-2.934l-1.578-1.3a.955.955,0,0,0-1.389.17l-6.256,8.629a.936.936,0,0,0-.183.557V129.5a.939.939,0,0,0,.952.939h0a.939.939,0,0,0,.939-.939v-7.527a.9.9,0,0,1,.166-.518l4.678-6.52a.509.509,0,0,1,.743-.091l.861.73a1.18,1.18,0,0,0,.763.28h0A1.157,1.157,0,0,0,95.254,115.113Z" transform="translate(-85.08 -95.186)" fill="#ffb5b5" stroke="#263238" stroke-linecap="round" stroke-linejoin="round" stroke-width="0.2"/>
        <ellipse id="Ellipse_58" data-name="Ellipse 58" cx="0.447" cy="0.447" rx="0.447" ry="0.447" transform="translate(8.436 18.19)" fill="#999" stroke="#263238" stroke-linecap="round" stroke-linejoin="round" stroke-width="0.2"/>
        <rect id="Rectangle_3515" data-name="Rectangle 3515" width="81.413" height="12.609" transform="translate(12.488 13.238)" fill="#263238"/>
        <rect id="Rectangle_3516" data-name="Rectangle 3516" width="79.992" height="2.94" rx="1.38" transform="translate(13.183 14.187)" fill="#fff" opacity="0.2"/>
        <path id="Path_1959" data-name="Path 1959" d="M206.539,122.072H139.714a35.02,35.02,0,0,1-2.934-13.642h72.706C209.486,114.748,206.539,122.072,206.539,122.072Z" transform="translate(-119.927 -93.689)" fill="#fff"/>
        <g id="Group_111" data-name="Group 111" transform="translate(16.853 14.741)" clip-path="url(#clip-path-5)">
          <g id="Group_110" data-name="Group 110" transform="translate(6.986 9.597)" opacity="0.7">
            <path id="Path_1960" data-name="Path 1960" d="M162.36,145.6a6.11,6.11,0,0,0,2.282-.57c.818-.492.76.443,1.229.505s1.578-.326,2.165-.326.14.359.8.326.306.033.652-.033l2.833-.473a6.1,6.1,0,0,1,1.728-.137c.29.14.672.831,1.1.652s.2-.326.838-.326a4.237,4.237,0,0,1,1.167.169s.059-.166.352-.169h.525s1.112.293,1.288.293,1.49-.29,1.535-.293,1.3-.326,1.3-.326a2.115,2.115,0,0,0,.978.58,5.655,5.655,0,0,1,1.336.095,4.427,4.427,0,0,0,1.539-.065,5.946,5.946,0,0,1,.841.065,2.2,2.2,0,0,0,1.105-.033,4.212,4.212,0,0,1,2.021-.033,7.659,7.659,0,0,0,2.484-.293c.45,0,2.249.2,2.869.2a26.914,26.914,0,0,0,3.4.095,15.618,15.618,0,0,1,2.653.16c.766,0,1.584-.033,1.76-.033a4.846,4.846,0,0,1,2.236-.421c1.213.134.134-.166.88,0s1.336.326,1.653.359a3.773,3.773,0,0,0,.76-.033l1.3-.095h6.5" transform="translate(-161.007 -142.574)" fill="none" stroke="#263238" stroke-linecap="round" stroke-linejoin="round" stroke-width="0.2"/>
            <path id="Path_1961" data-name="Path 1961" d="M158.21,138.376s4.026,0,4.753-.065,1.115-.437,1.5-.437,2.347.372,2.347.372a.652.652,0,0,1,.652-.372c.531,0,.261.049.75.245s.235,0,.492.192a4.565,4.565,0,0,0,1.206.352s1.816.085,1.884-.352.978.352.978.352,2.464-.352,3.416-.352,3.338-.192,3.338-.192,1.956.258,2.047.258.414.512.763.287a1.618,1.618,0,0,1,1.1-.417,5.077,5.077,0,0,1,1.108.417l.909-.482,1.043.065s1.063.707,1.822.417a16.638,16.638,0,0,0,1.692-.789l.936.789h.613l1.816-.352a1.1,1.1,0,0,0,1.19.352c.769-.222,8.12,0,9.991,0s2.282-.482,2.282-.482l1.441.482h7.172" transform="translate(-158.21 -137.871)" fill="none" stroke="#263238" stroke-linecap="round" stroke-linejoin="round" stroke-width="0.2"/>
          </g>
          <path id="Path_1962" data-name="Path 1962" d="M211.689,144.5c-.394,1.174-.681,1.884-.681,1.884H144.183s-.326-.685-.773-1.884Z" transform="translate(-141.249 -132.742)" opacity="0.2"/>
          <path id="Path_1963" data-name="Path 1963" d="M210.122,129.36c-.225.978-.473,1.933-.717,2.777H139.724c-.241-.828-.489-1.764-.7-2.777Z" transform="translate(-138.29 -122.537)" opacity="0.2"/>
        </g>
        <path id="Path_1965" data-name="Path 1965" d="M206.539,122.072H139.714a35.02,35.02,0,0,1-2.934-13.642h72.706C209.486,114.748,206.539,122.072,206.539,122.072Z" transform="translate(-119.927 -93.689)" fill="none" stroke="#263238" stroke-linecap="round" stroke-linejoin="round" stroke-width="0.2"/>
        <rect id="Rectangle_3517" data-name="Rectangle 3517" width="1.992" height="13.913" transform="translate(10.48 12.589)" fill="#757575"/>
        <g id="Group_112" data-name="Group 112" transform="translate(10.48 12.589)" clip-path="url(#clip-path-6)">
          <rect id="Rectangle_3518" data-name="Rectangle 3518" width="1.94" height="4.127" transform="translate(0.013 9.786)" opacity="0.2"/>
        </g>
        <rect id="Rectangle_3520" data-name="Rectangle 3520" width="1.992" height="13.913" transform="translate(10.48 12.589)" fill="none" stroke="#263238" stroke-linecap="round" stroke-linejoin="round" stroke-width="0.2"/>
        <rect id="Rectangle_3521" data-name="Rectangle 3521" width="1.992" height="13.913" transform="translate(93.914 12.589)" fill="#757575"/>
        <g id="Group_113" data-name="Group 113" transform="translate(93.914 12.589)" clip-path="url(#clip-path-6)">
          <rect id="Rectangle_3522" data-name="Rectangle 3522" width="2.008" height="4.127" transform="translate(-0.016 9.786)" opacity="0.2"/>
        </g>
        <rect id="Rectangle_3524" data-name="Rectangle 3524" width="1.992" height="13.913" transform="translate(93.914 12.589)" fill="none" stroke="#263238" stroke-linecap="round" stroke-linejoin="round" stroke-width="0.2"/>
        <path id="Path_1966" data-name="Path 1966" d="M203.147,100.04v10.148H121.672V100.04h-.782v10.829h83.04V100.04Z" transform="translate(-109.217 -88.034)" fill="#999" stroke="#263238" stroke-linecap="round" stroke-linejoin="round" stroke-width="0.2"/>
        <path id="Path_1967" data-name="Path 1967" d="M199.6,149.46v22.757a1.447,1.447,0,0,1-1.447,1.447H109.937a1.447,1.447,0,0,1-1.447-1.447V149.46a1.447,1.447,0,0,1,1.447-1.447h40.649v1.447s-6.94,6.021-18.907,8.241c1.715,7.761,11.083,13.691,22.388,13.691s20.673-5.936,22.391-13.691c-11.983-2.22-18.923-8.241-18.923-8.241V148h40.63a1.447,1.447,0,0,1,1.438,1.46Z" transform="translate(-100.859 -120.36)" fill="#ffb5b5" stroke="#263238" stroke-linecap="round" stroke-linejoin="round" stroke-width="0.2"/>
        <path id="Path_1968" data-name="Path 1968" d="M199.6,149.46v22.757a1.447,1.447,0,0,1-1.451,1.447H109.931a1.447,1.447,0,0,1-1.451-1.447V149.46a1.454,1.454,0,0,1,1.451-1.451H150.58v1.451s-6.943,6.018-18.907,8.241c1.715,7.761,11.083,13.691,22.391,13.691s20.67-5.936,22.388-13.691c-11.983-2.223-18.923-8.241-18.923-8.241V148h40.63A1.451,1.451,0,0,1,199.6,149.46Z" transform="translate(-100.852 -120.36)" fill="#ffb5b5"/>
        <g id="Group_114" data-name="Group 114" transform="translate(7.628 27.64)" clip-path="url(#clip-path-8)">
          <path id="Path_1969" data-name="Path 1969" d="M200.243,151.346v21.009a1.059,1.059,0,0,1-1.066,1.059H113.4a1.056,1.056,0,0,1-1.059-1.059V151.346a1.063,1.063,0,0,1,1.059-1.066h39.769V151s-6.943,6.018-18.907,8.241c1.715,7.762,11.083,13.691,22.391,13.691s20.67-5.936,22.388-13.691C167.059,157.015,160.119,151,160.119,151v-.717h39.069A1.066,1.066,0,0,1,200.243,151.346Z" transform="translate(-111.082 -149.537)" fill="#fff" opacity="0.2"/>
        </g>
        <path id="Path_1971" data-name="Path 1971" d="M199.6,149.46v22.757a1.447,1.447,0,0,1-1.451,1.447H109.931a1.447,1.447,0,0,1-1.451-1.447V149.46a1.454,1.454,0,0,1,1.451-1.451H150.58v1.451s-6.943,6.018-18.907,8.241c1.715,7.761,11.083,13.691,22.391,13.691s20.67-5.936,22.388-13.691c-11.983-2.223-18.923-8.241-18.923-8.241V148h40.63A1.451,1.451,0,0,1,199.6,149.46Z" transform="translate(-100.852 -120.36)" fill="none" stroke="#263238" stroke-linecap="round" stroke-linejoin="round" stroke-width="0.2"/>
      </g>
    </g>
  </g>
</svg>
