<svg xmlns="http://www.w3.org/2000/svg" xmlns:xlink="http://www.w3.org/1999/xlink" width="704" height="704" viewBox="0 0 704 704">
  <defs>
    <clipPath id="clip-path">
      <rect id="Rectangle_3685" data-name="Rectangle 3685" width="704" height="704" transform="translate(663 64)" fill="#fff" stroke="#707070" stroke-width="1" opacity="0.08"/>
    </clipPath>
  </defs>
  <g id="Mask_Group_26" data-name="Mask Group 26" transform="translate(-663 -64)" clip-path="url(#clip-path)">
    <rect id="Rectangle_3242" data-name="Rectangle 3242" width="175.668" height="176.056" transform="translate(1191 592)" fill="#ffe9e9"/>
    <rect id="Rectangle_3629" data-name="Rectangle 3629" width="175.668" height="176.056" transform="translate(665 239.833)" fill="#ffecc6"/>
    <rect id="Rectangle_3268" data-name="Rectangle 3268" width="176.056" height="176.056" transform="translate(839.754 64)" fill="#cff2df"/>
    <rect id="Rectangle_3265" data-name="Rectangle 3265" width="983.508" height="176.056" rx="88.028" transform="translate(841.588 416.112)" fill="#c6cffa"/>
    <rect id="Rectangle_3267" data-name="Rectangle 3267" width="527.351" height="176.056" rx="88.028" transform="translate(1025.408 64)" fill="#caeffa"/>
    <g id="Group_123" data-name="Group 123" transform="translate(1015.81 64)">
      <path id="Path_2365" data-name="Path 2365" d="M602.911,1225.94a65.141,65.141,0,1,1-65.141-65.14A65.219,65.219,0,0,1,602.911,1225.94Z" transform="translate(-449.743 -1137.912)" fill="#4cc9f0"/>
      <path id="Path_2366" data-name="Path 2366" d="M620.294,1308.465a87.878,87.878,0,0,0,.264-124.12c0-.088-.177-.265-.264-.353a87.983,87.983,0,0,0-124.472,0l-.264.265a88.072,88.072,0,0,0,62.5,150h87.5l-25.528-25.527Zm-62.236,4.665a66.9,66.9,0,1,1,66.9-66.9A66.985,66.985,0,0,1,558.058,1313.13Z" transform="translate(-470.03 -1158.2)" fill="#4cc9f0"/>
    </g>
    <ellipse id="Ellipse_40" data-name="Ellipse 40" cx="87.5" cy="88" rx="87.5" ry="88" transform="translate(1015.096 592)" fill="#ffecc6"/>
    <g id="Developer_activity-bro" data-name="Developer activity-bro" transform="translate(862.328 240.056)">
      <g id="freepik--Character--inject-75" transform="translate(0 0)">
        <path id="Path_2433" data-name="Path 2433" d="M283.494,438.269s-23.342,6.689-26.6,7.848c-2.962,1.046-10.995,3.863-17.023,2.986a12.8,12.8,0,0,1-1.722-.37c-6.109-1.819-8.854-3.517-9.659-7.357s2.238-6.673,5.167-8.483,18.818-3.7,18.818-3.7l3.839,1.127h0Z" transform="translate(-228.357 -251.105)" fill="#4361ee"/>
        <path id="Path_2434" data-name="Path 2434" d="M239.869,449.1a12.8,12.8,0,0,1-1.722-.37c-6.109-1.819-8.854-3.517-9.659-7.357s2.238-6.673,5.167-8.483,18.818-3.7,18.818-3.7l3.839,1.127c-3.477,1.61-16.42,2.487-19.245,4.113s-4.185,4.684-2.519,8.854C235.442,445.457,237.825,447.59,239.869,449.1Z" transform="translate(-228.357 -251.105)" fill="#fff"/>
        <path id="Path_2435" data-name="Path 2435" d="M280.011,439.451s-17.53,4.54-24.484,7.445-20.211,4.177-24.951-1.811-.547-11.156,4.177-12.307,14.279-2.962,19.494-2.23" transform="translate(-228.383 -251.337)" fill="none" stroke="#263238" stroke-linecap="round" stroke-linejoin="round" stroke-width="1.103"/>
        <path id="Path_2436" data-name="Path 2436" d="M241.5,449.062s-8.918-4.894-5.956-11.751c2.189-5.055,14.085-3.96,19.977-6.721" transform="translate(-229.642 -251.378)" fill="none" stroke="#263238" stroke-linecap="round" stroke-linejoin="round" stroke-width="1.103"/>
        <path id="Path_2437" data-name="Path 2437" d="M373.395,450.088a7.379,7.379,0,0,1-3.5,6.1,13.72,13.72,0,0,1-7.172,1.481c-8.186-.1-23.575-5.956-23.575-5.956l-14.407-7.968,7.493-11.856,2.052-3.22,5.3,1.191s4.387,2.487,8.8,4.467,15.124,2.415,18.9,5.449S373.805,446.112,373.395,450.088Z" transform="translate(-247.163 -251.003)" fill="#4361ee"/>
        <path id="Path_2438" data-name="Path 2438" d="M375.211,450.088a7.379,7.379,0,0,1-3.5,6.1,10.777,10.777,0,0,0-.4-7.2c-1.61-3.614-6.849-6.8-13.739-7.333s-12.162-3.751-14.922-5.191c-2.157-1.119-6.7-3.566-8.6-4.58l2.052-3.22,5.3,1.191s4.387,2.487,8.8,4.467,15.124,2.415,18.9,5.449S375.622,446.112,375.211,450.088Z" transform="translate(-248.98 -251.003)" fill="#fff"/>
        <path id="Path_2439" data-name="Path 2439" d="M328.347,447.136a90.84,90.84,0,0,0,33.724,11.518c2.624.314,5.674.362,7.429-1.61a5.489,5.489,0,0,0,1.207-4.113c-.314-3.7-3.429-6.632-6.841-8.105s-7.171-1.811-10.8-2.624a42.97,42.97,0,0,1-10.383-3.8c-2.608-1.36-5.127-3.01-8-3.622s-6.294.129-7.832,2.64" transform="translate(-247.575 -252.156)" fill="none" stroke="#263238" stroke-linecap="round" stroke-linejoin="round" stroke-width="1.103"/>
        <path id="Path_2440" data-name="Path 2440" d="M370.32,457.169a9.594,9.594,0,0,0,5.272-6.809c.523-3.485-1.465-6.994-4.258-9.135s-6.294-3.155-9.747-3.871-6.986-1.2-10.294-2.511c-5.047-1.98-10.029-5.876-15.293-4.483" transform="translate(-249.36 -251.275)" fill="none" stroke="#263238" stroke-linecap="round" stroke-linejoin="round" stroke-width="1.103"/>
        <path id="Path_2441" data-name="Path 2441" d="M327.756,290.485l-24.38-9.272-.306-.121s.088-.644.161-1.61c.153-1.948.233-5.119-.684-6.19-1.36-1.61-5.208-.258-8.966-1.98s-10.7,1.36-10.7,1.36-5.022-.926-7.244,2.7c-1.127,2.922-.741,7.244-.741,7.244l-.459.161c-2.906,1.087-18.713,7.035-22.054,9.425-3.694,2.616-7.783,29.475-9.1,37.363s-3.646,14.995-2.463,17.707,18.166,15.792,27.937,19.164,44.421,2.415,44.421,2.415.563-.153,1.569-.475c5.86-1.883,26.65-9.659,37.685-27.913C352.45,340.493,341.761,305.456,327.756,290.485Zm-65.871,45.178c-1.795,1.272-.8,6.2-.8,6.2l-3.05-2.688,7.662-18.842,3.268,14.488S263.68,334.4,261.885,335.663Zm61.3,11.969c-.845.435,2.415-8.62.869-10.673s-6.206-1.859-6.206-1.859l.394-2.471L321,318.463l.918-1.087s9.481,16.251,11.18,21.981C333.1,339.374,322.766,347.632,323.184,347.632Z" transform="translate(-230.726 -220.198)" fill="#4361ee"/>
        <path id="Path_2442" data-name="Path 2442" d="M288.376,222.25l-12.588,13.361s-1.73,1.537-1.046,5.409,2.294,7.244,3.509,7.469a17.2,17.2,0,0,0,2.914.258s2.7,5.843,4.612,8.137c0,0,.66,9.023.306,11.526,0,0,4.523,3.952,8.781,4.451S305.7,266.84,305.7,266.84l1.61-7.984s3.863-5.86,4.121-7.421,2.028-1.159,2.9-1.932a14.8,14.8,0,0,0,3.22-7.461c.346-3.252.354-6.986-3.421-5.892-3.276-.877-1.223-7.8-1.223-7.8l-5.755-5.071Z" transform="translate(-237.376 -210.727)" fill="#fff"/>
        <path id="Path_2443" data-name="Path 2443" d="M311.607,281.227a14.242,14.242,0,0,1-.652,1.457c-2.076,3.912-11.123,11.373-11.123,11.373l-2.737-8.411-1.5,8.411c-3.018-1.32-12.226-9.3-12.226-9.3s-.314-.749-.692-1.916l.459-.161s-.386-4.354.741-7.244c2.205-3.622,7.244-2.7,7.244-2.7s6.946-3.083,10.7-1.36,7.606.386,8.966,1.98.523,7.775.523,7.775Z" transform="translate(-238.956 -220.211)" fill="#fff" opacity="0.5"/>
        <path id="Path_2444" data-name="Path 2444" d="M341.968,292.593l-24.38-9.272-.306-.121s.089-.644.161-1.61l-.507,3.163-3.606,4.894A99.81,99.81,0,0,1,324.6,294.6a9.884,9.884,0,0,1,5.151,9.852l-4.491,38.433-1.843,21.82,5.562,5.771c5.86-1.883,26.65-9.659,37.684-27.913C366.661,342.6,355.972,307.563,341.968,292.593ZM337.4,349.739c-.845.435,2.415-8.62.869-10.673s-6.206-1.859-6.206-1.859l.394-2.471,2.761-14.166.918-1.087s9.481,16.25,11.18,21.981C347.312,341.481,336.977,349.739,337.4,349.739Z" transform="translate(-244.937 -222.305)" opacity="0.2"/>
        <path id="Path_2445" data-name="Path 2445" d="M271.856,342.922l-3.791-12.669s-6.8-23.189-11.461-28.9l1.223,16.307s-4.024,19.478-7.7,25.265-4.5,7.244,0,7.244,15.454,8.725,15.454,8.725l-.845-7.244Zm-9.554,4.9-3.051-2.688,7.662-18.842,3.268,14.488s-5.248-.394-7.043.869S262.3,347.824,262.3,347.824Z" transform="translate(-232.004 -226.161)" opacity="0.2"/>
        <path id="Path_2446" data-name="Path 2446" d="M288.49,265.28s.692,6.833,0,9.956" transform="translate(-240.09 -219.123)" fill="none" stroke="#263238" stroke-linecap="round" stroke-linejoin="round" stroke-width="1.103"/>
        <path id="Path_2447" data-name="Path 2447" d="M314.11,274.928a29.407,29.407,0,0,1,.757-6.528" transform="translate(-245.089 -219.731)" fill="none" stroke="#263238" stroke-linecap="round" stroke-linejoin="round" stroke-width="1.103"/>
        <path id="Path_2448" data-name="Path 2448" d="M309.662,228.58s4.137,5.191,3.92,9.119-.523,8.58-.418,13.136-7.316,14.1-11.132,14.947-7.1,1.062-9.538-1.376a91.038,91.038,0,0,1-8.049-10.174c-3.171-4.346-2.415-13.884-2.415-13.884" transform="translate(-238.814 -211.962)" fill="none" stroke="#263238" stroke-linecap="round" stroke-linejoin="round" stroke-width="1.103"/>
        <path id="Path_2449" data-name="Path 2449" d="M303.9,247.71a21.584,21.584,0,0,0-.322,4.322,4.869,4.869,0,0,0,1.062,3.381c.459.467,1.119.845,1.207,1.489A1.61,1.61,0,0,1,305,258.31a12.521,12.521,0,0,0-1.489.885" transform="translate(-243.021 -215.694)" fill="none" stroke="#263238" stroke-linecap="round" stroke-linejoin="round" stroke-width="1.103"/>
        <path id="Path_2450" data-name="Path 2450" d="M295.87,262.6s.475,3.083,4.6,3.727" transform="translate(-241.53 -218.6)" fill="none" stroke="#263238" stroke-linecap="round" stroke-linejoin="round" stroke-width="1.103"/>
        <path id="Path_2451" data-name="Path 2451" d="M295.982,250.24c0,.893-.386,1.61-.861,1.61s-.861-.716-.861-1.61.386-1.61.861-1.61S295.982,249.354,295.982,250.24Z" transform="translate(-241.216 -215.874)" fill="#263238"/>
        <path id="Path_2452" data-name="Path 2452" d="M311.292,250.72c0,.893-.386,1.61-.861,1.61s-.861-.724-.861-1.61.386-1.61.861-1.61S311.292,249.826,311.292,250.72Z" transform="translate(-244.203 -215.967)" fill="#263238"/>
        <path id="Path_2453" data-name="Path 2453" d="M308.62,245.858s4.024-4.024,7.4.467" transform="translate(-244.018 -215.009)" fill="none" stroke="#263238" stroke-linecap="round" stroke-linejoin="round" stroke-width="2.206"/>
        <path id="Path_2454" data-name="Path 2454" d="M296.5,246.053s-2.543-2.849-6.552,0" transform="translate(-240.375 -215.124)" fill="none" stroke="#263238" stroke-linecap="round" stroke-linejoin="round" stroke-width="2.206"/>
        <path id="Path_2455" data-name="Path 2455" d="M288.8,269.087s2.455,6.761,7.936,8.685,12.757-8.049,12.757-8.049l-.378-1.3s-4.773,6.2-10.077,5.143-10.544-8.25-10.544-8.25Z" transform="translate(-240.09 -219.13)" fill="#263238"/>
        <path id="Path_2456" data-name="Path 2456" d="M281.2,251.592s-3.268,1.151-4.137-1.392-3.847-9.248-1.24-11.486,4.7,2.954,4.7,2.954" transform="translate(-237.415 -213.83)" fill="none" stroke="#263238" stroke-linecap="round" stroke-linejoin="round" stroke-width="1.103"/>
        <path id="Path_2457" data-name="Path 2457" d="M320.72,253.182s3.034.612,3.9-1.932,3.847-9.248,1.24-11.486-4.7,2.954-4.7,2.954" transform="translate(-246.379 -214.035)" fill="none" stroke="#263238" stroke-linecap="round" stroke-linejoin="round" stroke-width="1.103"/>
        <path id="Path_2458" data-name="Path 2458" d="M279.671,242.3a4.524,4.524,0,0,0,2.865-1.69,7.035,7.035,0,0,0,.8-2.568,30.257,30.257,0,0,0,.451-5.183,7.091,7.091,0,0,1,.185-2.02,5.312,5.312,0,0,1,1.095-1.795c1.135-1.336,2.511-2.463,3.6-3.847a6.439,6.439,0,0,0,1.61-4.829,22.094,22.094,0,0,0,18.086,4.676c5.755-1.127,11.268-6.173,10.6-12.516a5.127,5.127,0,0,0-4.024-4.411c-2.841-.708-5.393.8-7.968,1.779-4.693,1.771-9.288-1.272-14.029-1.779-4.024-.443-9.039.064-11.148,4.1,0,0-7.244.853-10.463,6.841s2.873,14.27,2.873,14.27,2.415-2.962,5.578,3.026Z" transform="translate(-236.559 -207.933)" fill="#263238"/>
        <path id="Path_2459" data-name="Path 2459" d="M316.914,226.064s-1.883,9.82,3.034,14.576c0,0,1.078-2.954,2.165-3.678a11.373,11.373,0,0,0-.861-10.9C317.614,220.35,316.914,226.064,316.914,226.064Z" transform="translate(-245.567 -210.975)" fill="#263238"/>
        <path id="Path_2460" data-name="Path 2460" d="M318.915,212.8a9.248,9.248,0,0,1-5.634,5.851c-6.825,2.785-13.45-.3-20.291-.9-5.578-.5-11.735,4.54-12.13,10.27" transform="translate(-238.601 -208.883)" fill="none" stroke="#fff" stroke-linecap="round" stroke-linejoin="round" stroke-width="1.103" opacity="0.2"/>
        <path id="Path_2461" data-name="Path 2461" d="M275.63,227.278a11.92,11.92,0,0,1,7.244-10.528" transform="translate(-237.581 -209.653)" fill="none" stroke="#fff" stroke-linecap="round" stroke-linejoin="round" stroke-width="1.103" opacity="0.2"/>
        <path id="Path_2462" data-name="Path 2462" d="M286.53,276.315a31.156,31.156,0,0,0,10.632,7.244s8.17-2.374,12.323-8.049" transform="translate(-239.708 -221.119)" fill="none" stroke="#263238" stroke-linecap="round" stroke-linejoin="round" stroke-width="1.103"/>
        <ellipse id="Ellipse_33" data-name="Ellipse 33" cx="7.228" cy="7.228" rx="7.228" ry="7.228" transform="matrix(0.909, -0.417, 0.417, 0.909, 42.577, 30.794)" fill="none" stroke="#263238" stroke-linecap="round" stroke-linejoin="round" stroke-width="1.103"/>
        <ellipse id="Ellipse_34" data-name="Ellipse 34" cx="7.228" cy="7.228" rx="7.228" ry="7.228" transform="translate(60.242 28.089) rotate(-7)" fill="none" stroke="#263238" stroke-linecap="round" stroke-linejoin="round" stroke-width="1.103"/>
        <path id="Path_2463" data-name="Path 2463" d="M287.466,273.16a5.634,5.634,0,0,0-3.485,2.7c-1.28,2.254-.507,9.345-.507,9.345s6.608,6.536,12.234,9.3l1.658-9.329,2.576,9.329s8.709-6.157,11.124-11.365c0,0,.8-6.077,0-8.049a2.793,2.793,0,0,0-2.6-1.908" transform="translate(-239.066 -220.66)" fill="none" stroke="#263238" stroke-linecap="round" stroke-linejoin="round" stroke-width="1.103"/>
        <path id="Path_2464" data-name="Path 2464" d="M274.17,344.794s-2.584-17.3-6.021-24.364" transform="translate(-236.121 -229.883)" fill="none" stroke="#263238" stroke-linecap="round" stroke-linejoin="round" stroke-width="1.103"/>
        <path id="Path_2465" data-name="Path 2465" d="M258.92,301.35a70.027,70.027,0,0,1,5.344,8.942" transform="translate(-234.32 -226.161)" fill="none" stroke="#263238" stroke-linecap="round" stroke-linejoin="round" stroke-width="1.103"/>
        <path id="Path_2466" data-name="Path 2466" d="M343.23,315.353a49.982,49.982,0,0,1,2.841-8.443" transform="translate(-250.771 -227.245)" fill="none" stroke="#263238" stroke-linecap="round" stroke-linejoin="round" stroke-width="1.103"/>
        <path id="Path_2467" data-name="Path 2467" d="M336.6,345.455s1.859-11.864,4.081-21.635" transform="translate(-249.477 -230.545)" fill="none" stroke="#263238" stroke-linecap="round" stroke-linejoin="round" stroke-width="1.103"/>
        <path id="Path_2468" data-name="Path 2468" d="M340.52,328.806a13.684,13.684,0,0,1,7.2-4.926" transform="translate(-250.242 -230.557)" fill="none" stroke="#263238" stroke-linecap="round" stroke-linejoin="round" stroke-width="1.103"/>
        <path id="Path_2469" data-name="Path 2469" d="M318.25,283.59s14.995,6,24.678,9.4c0,0,11.912,11.2,24.686,50,0,0-11.7,19.687-33.966,26" transform="translate(-245.897 -222.695)" fill="none" stroke="#263238" stroke-linecap="round" stroke-linejoin="round" stroke-width="1.103"/>
        <path id="Path_2470" data-name="Path 2470" d="M342.18,364.376l10.761-8.958s5.691-4.322,11.606-1.368" transform="translate(-250.566 -236.242)" fill="none" stroke="#263238" stroke-linecap="round" stroke-linejoin="round" stroke-width="1.103"/>
        <path id="Path_2471" data-name="Path 2471" d="M341.67,328.67s8.894,13.144,11.172,22" transform="translate(-250.467 -231.491)" fill="none" stroke="#263238" stroke-linecap="round" stroke-linejoin="round" stroke-width="1.103"/>
        <path id="Path_2472" data-name="Path 2472" d="M262.971,358.967l-3.147-2.986a14.852,14.852,0,0,0-9.964,2.729" transform="translate(-232.553 -236.805)" fill="none" stroke="#263238" stroke-linecap="round" stroke-linejoin="round" stroke-width="1.103"/>
        <path id="Path_2473" data-name="Path 2473" d="M262.24,351.28s3.912-12.878,7.767-19.47" transform="translate(-234.968 -232.104)" fill="none" stroke="#263238" stroke-linecap="round" stroke-linejoin="round" stroke-width="1.103"/>
        <path id="Path_2474" data-name="Path 2474" d="M274.99,285.55s-21.579,8.1-23.7,10.463-10.158,47.641-10.375,52.824c-.185,4.636,16.621,15.043,24.951,19.43" transform="translate(-230.808 -223.078)" fill="none" stroke="#263238" stroke-linecap="round" stroke-linejoin="round" stroke-width="1.103"/>
        <path id="Path_2475" data-name="Path 2475" d="M302.609,304.215a1.417,1.417,0,1,1-.415-1.01A1.425,1.425,0,0,1,302.609,304.215Z" transform="translate(-242.289 -226.442)" fill="#263238"/>
        <path id="Path_2476" data-name="Path 2476" d="M322.139,398.222h-49.1a1.151,1.151,0,0,1-1.151-1.151h0a1.151,1.151,0,0,1,1.151-1.151h49.1a1.151,1.151,0,0,1,1.151,1.151h0A1.151,1.151,0,0,1,322.139,398.222Z" transform="translate(-236.851 -244.613)" fill="#263238"/>
        <path id="Path_2477" data-name="Path 2477" d="M322.566,385.545l6.576-30.907a3.284,3.284,0,0,0-3.22-3.968H268.534a3.284,3.284,0,0,0-3.22,3.928l5.9,29.877a3.284,3.284,0,0,0,3.147,2.648l44.9,1.03a3.3,3.3,0,0,0,3.3-2.608Z" transform="translate(-235.556 -235.784)" fill="#fff" stroke="#263238" stroke-linecap="round" stroke-linejoin="round" stroke-width="1.103"/>
        <path id="Path_2478" data-name="Path 2478" d="M308.22,371.718a4.58,4.58,0,1,1-1.339-3.244,4.58,4.58,0,0,1,1.339,3.244Z" transform="translate(-242.153 -238.996)" fill="#263238"/>
        <line id="Line_49" data-name="Line 49" x2="6.817" transform="translate(75.074 117.84)" fill="none" stroke="#263238" stroke-linecap="round" stroke-linejoin="round" stroke-width="1.103"/>
        <line id="Line_50" data-name="Line 50" x2="25.877" transform="translate(42.516 117.84)" fill="none" stroke="#263238" stroke-linecap="round" stroke-linejoin="round" stroke-width="1.103"/>
        <path id="Path_2479" data-name="Path 2479" d="M316.363,424.713l-5.232,13.731s-13.345-3.364-30.432-6.866c-17.876-3.662-36.541-8.4-46.224-25.394a9.623,9.623,0,0,1-1.409-6.833c1.392-5.868,9.031-7.461,14.061-8.049a91.65,91.65,0,0,1,9.522-.531c1.61,0,6.962-.877,8.258.081a37.938,37.938,0,0,0,6.206,3.678c2.857,1.215,44.566-1.087,44.566-1.087a14.96,14.96,0,0,0,1.312-5.014c6.56-3.332,21.732-6.149,28.171-4.9,10.085,1.956,15.969,7.84,14.85,14S336.614,420.229,316.363,424.713Z" transform="translate(-229.24 -242.136)" fill="#263238"/>
        <path id="Path_2480" data-name="Path 2480" d="M323.031,428.942s-12.693-3.364-23.06-10.367-18.464-15.132-32.912-13.449" transform="translate(-235.909 -246.366)" fill="none" stroke="#fff" stroke-linecap="round" stroke-linejoin="round" stroke-width="1.103"/>
        <path id="Path_2481" data-name="Path 2481" d="M305,414.537c6.552-1.883,11.357-6.125,16.613-10.19a112.379,112.379,0,0,1,17.78-11.687" transform="translate(-243.312 -243.977)" fill="none" stroke="#fff" stroke-linecap="round" stroke-linejoin="round" stroke-width="1.103"/>
        <line id="Line_51" data-name="Line 51" x2="1.924" transform="translate(59.378 35.509)" fill="none" stroke="#263238" stroke-linecap="round" stroke-linejoin="round" stroke-width="1.103"/>
      </g>
    </g>
    <g id="freepik--paper-plane--inject-10" transform="translate(839.754 90.419)">
      <path id="Path_2779" data-name="Path 2779" d="M133.8,346.153c-.031-.416-.043-.832-.043-1.223h.459c0,.391,0,.795.037,1.223Z" transform="translate(-133.76 -265.528)" fill="#263238"/>
      <path id="Path_2780" data-name="Path 2780" d="M181.493,339.2h-.08v-.459h.086c.777,0,1.566,0,2.354-.055v.459C183.083,339.2,182.282,339.2,181.493,339.2Zm-3.149-.1c-.819-.049-1.645-.122-2.446-.214l.049-.459c.8.092,1.621.165,2.446.214Zm8.6-.2-.049-.459c.8-.086,1.614-.19,2.446-.312l.073.453c-.844.135-1.663.245-2.471.33Zm-14.1-.453c-.795-.135-1.608-.3-2.416-.477l.1-.446c.8.177,1.6.336,2.391.471Zm19.569-.434-.1-.446c.795-.171,1.59-.361,2.373-.569l.116.44c-.8.226-1.6.416-2.4.587Zm-24.951-.807c-.783-.22-1.572-.471-2.348-.734l.147-.434c.771.263,1.553.508,2.33.728Zm30.289-.612-.141-.434c.758-.245,1.535-.52,2.305-.8l.159.428c-.789.275-1.572.55-2.336.8Zm-35.518-1.168c-.752-.306-1.517-.612-2.257-.978l.19-.416c.74.336,1.492.667,2.238.966Zm40.692-.789-.183-.422c.746-.324,1.486-.673,2.2-1.034l.208.41c-.74.355-1.486.709-2.238,1.034Zm-45.718-1.559c-.722-.385-1.443-.795-2.14-1.223l.232-.4c.691.41,1.407.813,2.128,1.223Zm50.617-.972-.238-.4c.7-.416,1.382-.856,2.055-1.315l.257.379c-.673.471-1.376.9-2.073,1.321Zm-55.356-1.877c-.685-.459-1.358-.942-2.012-1.425l.275-.367c.648.483,1.315.954,1.994,1.413Zm59.931-1.278-.281-.361c.612-.5,1.26-1.027,1.865-1.559l.306.342c-.642.526-1.278,1.058-1.92,1.566ZM148.079,326.9c-.612-.526-1.254-1.076-1.835-1.627l.312-.336c.612.544,1.223,1.089,1.835,1.615Zm68.455-1.621-.324-.324c.563-.557,1.131-1.15,1.694-1.755l.336.312c-.593.6-1.168,1.192-1.737,1.755ZM144.006,323.1c-.563-.612-1.119-1.223-1.651-1.835l.349-.293c.526.612,1.076,1.223,1.639,1.835Zm76.222-1.914-.349-.293c.514-.612,1.027-1.26,1.523-1.908l.367.281C221.261,319.923,220.748,320.565,220.228,321.188Zm-79.793-2.312c-.5-.667-.972-1.345-1.413-2.024l.379-.251c.44.673.911,1.345,1.4,2ZM223.6,316.8l-.373-.263c.465-.66.93-1.333,1.388-2.012l.379.257q-.691,1.027-1.4,2.018Zm-86.159-2.593c-.4-.734-.771-1.474-1.1-2.208l.422-.19c.324.722.685,1.455,1.082,2.177Zm89.223-2-.391-.245c.434-.691.856-1.382,1.278-2.085l.4.232c-.428.709-.856,1.407-1.29,2.1Zm-91.443-3.058a24.39,24.39,0,0,1-.654-2.385l.446-.1c.171.764.385,1.553.642,2.336ZM229.5,307.49l-.4-.226c.4-.7.8-1.419,1.193-2.134l.4.22c-.4.7-.8,1.437-1.2,2.116Zm2.66-4.837-.41-.214c.385-.716.764-1.443,1.144-2.165l.4.208c-.385.7-.764,1.413-1.144,2.147Zm2.544-4.892-.41-.208c.367-.722.74-1.449,1.107-2.183l.41.208Zm2.477-4.923-.41-.208,1.095-2.189.416.2Zm2.446-4.935-.41-.2c.361-.728.734-1.462,1.1-2.189l.41.208q-.544,1.058-1.082,2.153Zm2.5-4.892-.41-.214,1.125-2.177.41.214c-.361.679-.74,1.4-1.107,2.1Zm2.556-4.892-.4-.22c.385-.715.777-1.431,1.168-2.147l.4.22c-.373.679-.764,1.394-1.15,2.11Zm2.679-4.843-.4-.226c.4-.7.807-1.413,1.223-2.116l.4.232C248.163,271.868,247.759,272.571,247.356,273.275Zm2.795-4.721-.391-.239q.642-1.046,1.3-2.073l.385.245C251.025,267.171,250.579,267.862,250.15,268.553Zm2.966-4.617-.379-.251c.453-.679.917-1.358,1.388-2.024l.373.263c-.465.667-.93,1.339-1.382,2.012Zm3.174-4.489-.367-.275c.483-.654.985-1.309,1.486-1.951l.361.281c-.5.642-1,1.29-1.48,1.945Zm3.394-4.324-.349-.294c.52-.612,1.052-1.223,1.59-1.865l.349.306c-.538.612-1.076,1.229-1.59,1.853Zm3.639-4.116-.336-.312c.563-.612,1.131-1.186,1.706-1.767l.324.324c-.575.581-1.15,1.162-1.694,1.755Zm3.889-3.877-.312-.336q.893-.832,1.835-1.651l.306.349C268.4,246.031,267.806,246.575,267.212,247.131Zm4.134-3.608-.287-.361c.612-.514,1.29-1.027,1.932-1.517l.275.367C272.631,242.5,271.982,243,271.346,243.523Zm4.385-3.308-.263-.379c.66-.465,1.345-.93,2.03-1.376l.251.385C277.07,239.291,276.392,239.75,275.731,240.215Zm4.6-2.99-.239-.391c.7-.422,1.419-.832,2.128-1.223l.226.4c-.709.385-1.419.795-2.116,1.211Z" transform="translate(-134.075 -223.061)" fill="#263238"/>
      <path id="Path_2781" data-name="Path 2781" d="M380.872,233.2l-.2-.41,1.095-.544.2.416Z" transform="translate(-229.675 -221.756)" fill="#263238"/>
      <path id="Path_2782" data-name="Path 2782" d="M369.521,223.048l-3.351,9.2,7.033-5.5L400.1,217Z" transform="translate(-224.042 -215.832)" fill="#bfffff"/>
      <path id="Path_2783" data-name="Path 2783" d="M369.521,223.048l-3.351,9.2,7.033-5.5L400.1,217Z" transform="translate(-224.042 -215.832)" fill="#17153e" opacity="0.1"/>
      <path id="Path_2784" data-name="Path 2784" d="M374.1,235.1l-7.932,3.351,7.033-5.5Z" transform="translate(-224.042 -222.028)" fill="#263238"/>
      <path id="Path_2785" data-name="Path 2785" d="M377.67,226.754l26.9-9.754L382.5,238.532Z" transform="translate(-228.51 -215.832)" fill="#fff"/>
      <path id="Path_2786" data-name="Path 2786" d="M364.549,222.306,353.37,215.09l41.756,1.168Z" transform="translate(-219.07 -215.09)" fill="#fff"/>
    </g>
    <g id="Group_122" data-name="Group 122" transform="translate(1014.894 240.056)">
      <path id="Path_2367" data-name="Path 2367" d="M499.689,1163.127l65.493,130.9h-130.9Z" transform="translate(-411.662 -1117.97)" fill="#ffb5b5"/>
      <path id="Path_2368" data-name="Path 2368" d="M607.769,1334.052H587.259l-66.724-133.274-.793-1.585-67.428,134.859h-20.6L519.742,1158Z" transform="translate(-431.715 -1157.996)" fill="#ffb5b5"/>
    </g>
    <g id="Group_182" data-name="Group 182" transform="translate(663.042 591.944)">
      <path id="Path_2367-2" data-name="Path 2367" d="M499.689,1163.127l65.493,130.9h-130.9Z" transform="translate(-411.662 -1117.97)" fill="#4cc9f0"/>
      <path id="Path_2368-2" data-name="Path 2368" d="M607.769,1334.052H587.259l-66.724-133.274-.793-1.585-67.428,134.859h-20.6L519.742,1158Z" transform="translate(-431.715 -1157.996)" fill="#4cc9f0"/>
    </g>
    <path id="Rectangle_3243" data-name="Rectangle 3243" d="M176,0h0a0,0,0,0,1,0,0V176a0,0,0,0,1,0,0H0a0,0,0,0,1,0,0v0A176,176,0,0,1,176,0Z" transform="translate(839.096 592)" fill="#4361ee"/>
    <path id="Rectangle_3626" data-name="Rectangle 3626" d="M176,0h0a0,0,0,0,1,0,0V176a0,0,0,0,1,0,0H0a0,0,0,0,1,0,0v0A176,176,0,0,1,176,0Z" transform="translate(665.096 64)" fill="#ffb5b5"/>
    <path id="Rectangle_3266" data-name="Rectangle 3266" d="M0,0H0A176,176,0,0,1,176,176v0a0,0,0,0,1,0,0H0a0,0,0,0,1,0,0V0A0,0,0,0,1,0,0Z" transform="translate(1190.096 240)" fill="#60d394"/>
    <g id="Group_180" data-name="Group 180" transform="translate(1226.179 114.365)">
      <path id="Path_3395" data-name="Path 3395" d="M391.048,116.289a6.8,6.8,0,0,0,3.206-1.161,6.083,6.083,0,0,0,2.284-3.357,9.819,9.819,0,0,0,.189-2.65v-3.079c0-8.771.088-21.354.164-36.89,0-3.887,0-7.976.076-12.217v-6.5a18.2,18.2,0,0,0-.114-3.244,5.326,5.326,0,0,0-1.388-2.663,5.124,5.124,0,0,0-2.8-1.54,27.537,27.537,0,0,0-3.42-.063h-7.206l-15.044.088L300,43.379a5.452,5.452,0,0,0-5.288,5.048q0,4.367-.114,8.7-.076,8.67-.164,17.088c-.126,11.207-.24,22.01-.341,32.309v3.786a5.83,5.83,0,0,0,.833,3.344,5.3,5.3,0,0,0,2.524,2.133,9.061,9.061,0,0,0,3.458.328h89.241a4.9,4.9,0,0,1,.9,0,6.086,6.086,0,0,1-.9,0l-2.537.353-10.034.151-36.878.366-25.481.189-14.186.1a10.1,10.1,0,0,1-3.786-.391,6.311,6.311,0,0,1-3.092-2.524,6.841,6.841,0,0,1-1-3.887q0-1.893,0-3.786c.088-10.3.189-21.114.278-32.322q.076-8.405.151-17.088,0-4.354.114-8.834a6.6,6.6,0,0,1,6.411-6.083L367.03,42h22.263a26.859,26.859,0,0,1,3.6.114,6.146,6.146,0,0,1,3.256,1.742,6.551,6.551,0,0,1,1.691,3.193,18.686,18.686,0,0,1,.1,3.433c0,2.209,0,4.379-.076,6.5q-.076,6.386-.151,12.229c-.227,15.523-.4,28.119-.53,36.878,0,1.1,0,2.12-.063,3.092a9.581,9.581,0,0,1-.265,2.726,6.31,6.31,0,0,1-2.461,3.458,5.717,5.717,0,0,1-2.448.947A3.433,3.433,0,0,1,391.048,116.289Z" transform="translate(-293.154 -41.986)" fill="#fff" stroke="#fff" stroke-width="2"/>
      <path id="Path_3396" data-name="Path 3396" d="M340.388,68.334l12.444,7.471-12.646,7.509-12.646,7.5.189-14.981.2-14.981Z" transform="translate(-284.143 -37.043)" fill="#fff" stroke="#fff" stroke-width="2"/>
    </g>
    <g id="Group_169" data-name="Group 169" transform="translate(665 415.888)">
      <path id="Path_2369" data-name="Path 2369" d="M540.688,1225.409a64.384,64.384,0,1,1-64.384-64.383A64.462,64.462,0,0,1,540.688,1225.409Z" transform="translate(-388.275 -1137.382)" fill="#60d394"/>
      <path id="Path_2370" data-name="Path 2370" d="M559.584,1184.218a87.983,87.983,0,1,0,25.792,62.236A87.755,87.755,0,0,0,559.584,1184.218Zm-62.236,129.136a66.9,66.9,0,1,1,66.9-66.9A66.984,66.984,0,0,1,497.348,1313.354Z" transform="translate(-409.32 -1158.426)" fill="#60d394"/>
    </g>
    <g id="Group_191" data-name="Group 191" transform="translate(5.527 5.643)">
      <path id="Path_3515" data-name="Path 3515" d="M445.93,222.617a6.243,6.243,0,0,1,1.064-1.216c.843-.829,1.879-1.879,3.094-3.094,2.638-2.6,6.327-6.147,10.416-10.043l.1-.083v.525c-4.144-3.827-7.833-7.308-10.485-9.849l-3.108-3.039a6.065,6.065,0,0,1-1.077-1.188,7.666,7.666,0,0,1,1.257.981l3.274,2.873c2.763,2.445,6.506,5.871,10.637,9.67l.276.262-.276.262-.1.1c-4.144,3.882-7.833,7.377-10.554,9.877l-3.26,2.942A7.158,7.158,0,0,1,445.93,222.617Z" transform="translate(316.69 115.142)" fill="#fff" stroke="#fff" stroke-width="2"/>
      <path id="Path_3516" data-name="Path 3516" d="M427.134,194.63a6.243,6.243,0,0,1-1.064,1.216l-3.108,3.094c-2.638,2.6-6.313,6.147-10.4,10.043l-.1.083v-.525c4.144,3.827,7.819,7.308,10.485,9.849l3.108,3.039a6.064,6.064,0,0,1,1.078,1.188,6.78,6.78,0,0,1-1.257-.981c-.9-.774-1.989-1.741-3.274-2.873-2.763-2.445-6.506-5.871-10.637-9.67l-.276-.262.276-.262.1-.1c4.144-3.882,7.833-7.377,10.554-9.877l3.26-2.942a8.108,8.108,0,0,1,1.257-1.022Z" transform="translate(303.63 115.142)" fill="#fff" stroke="#fff" stroke-width="2"/>
      <path id="Path_3517" data-name="Path 3517" d="M428.792,231.133c-.18,0,3.163-9.435,7.46-20.9s7.957-20.721,8.15-20.652-3.163,9.435-7.473,20.9S428.972,231.2,428.792,231.133Z" transform="translate(310.151 113.216)" fill="#fff" stroke="#fff" stroke-width="2"/>
      <path id="Path_3518" data-name="Path 3518" d="M500.779,257.487v-6.078c0-3.951,0-9.67-.083-17.047,0-14.684-.1-35.654-.152-60.948l.29.29-103.605.069h0l.359-.359v84.072l-.332-.332,74.8.166,21.2.083h.18l-21.135.083-75.01.166h-.318V173H501.262v.3c0,25.363-.11,46.415-.152,61.141,0,7.308,0,13.04-.083,16.977v4.448A4.547,4.547,0,0,1,500.779,257.487Z" transform="translate(298.02 106.892)" fill="#fff" stroke="#fff" stroke-width="2"/>
      <path id="Path_3519" data-name="Path 3519" d="M501.548,182.429c0,.193-23.387.359-52.217.359s-52.231-.166-52.231-.359,23.373-.359,52.231-.359S501.548,182.222,501.548,182.429Z" transform="translate(298.066 110.351)" fill="#fff" stroke="#fff" stroke-width="2"/>
      <path id="Path_3520" data-name="Path 3520" d="M404.013,178.261a1.381,1.381,0,1,1-1.381-1.381A1.381,1.381,0,0,1,404.013,178.261Z" transform="translate(299.649 108.372)" fill="#fff" stroke="#fff" stroke-width="2"/>
      <path id="Path_3521" data-name="Path 3521" d="M407.693,178.261a1.381,1.381,0,1,1-1.381-1.381A1.381,1.381,0,0,1,407.693,178.261Z" transform="translate(301.052 108.372)" fill="#fff" stroke="#fff" stroke-width="2"/>
      <path id="Path_3522" data-name="Path 3522" d="M411.373,178.261a1.381,1.381,0,1,1-1.381-1.381A1.381,1.381,0,0,1,411.373,178.261Z" transform="translate(302.456 108.372)" fill="#fff" stroke="#fff" stroke-width="2"/>
    </g>
    <g id="freepik--speech-bubble--inject-9" transform="translate(843.638 555.991)">
      <path id="Path_3853" data-name="Path 3853" d="M415.972,112.516a3.782,3.782,0,1,1-1.1-2.683A3.8,3.8,0,0,1,415.972,112.516Z" transform="translate(7.409 11.782)" fill="#fff" stroke="#fff" stroke-width="2"/>
      <path id="Path_3854" data-name="Path 3854" d="M426.694,112.516a3.782,3.782,0,1,1-1.1-2.683A3.782,3.782,0,0,1,426.694,112.516Z" transform="translate(11.829 11.782)" fill="#fff" stroke="#fff" stroke-width="2"/>
      <path id="Path_3855" data-name="Path 3855" d="M437.261,110.628a3.782,3.782,0,1,1-2.3-1.784,3.782,3.782,0,0,1,2.3,1.784Z" transform="translate(16.376 11.778)" fill="#fff" stroke="#fff" stroke-width="2"/>
      <path id="Path_3856" data-name="Path 3856" d="M435.009,80.085a3.883,3.883,0,0,1,.762,0l2.244.071h1.665l1.976.268,2.314.339,2.6.649A41.827,41.827,0,0,1,459.1,86.873,44.833,44.833,0,0,1,472.066,99.5a45.355,45.355,0,0,1,7.352,20.617,43.346,43.346,0,0,1,.127,6.068,25.472,25.472,0,0,1-.2,3.1c-.2,1.03-.31,2.074-.48,3.119a44.483,44.483,0,0,1-4.234,12.334,47.862,47.862,0,0,1-8.058,11.092,46.724,46.724,0,0,1-11.614,8.34,42.081,42.081,0,0,1-14.112,4.346,30.382,30.382,0,0,1-3.768.325,34.529,34.529,0,0,1-3.824,0,46.889,46.889,0,0,1-7.634-.974,44.409,44.409,0,0,1-15.212-6.407h.452l-15.523,6.223-.917.367.268-.96q2.343-8.467,4.558-16.567l.07.409a44.438,44.438,0,0,1-8.284-18.755,40.371,40.371,0,0,1-.607-9.695,31.556,31.556,0,0,1,.452-4.657l.339-2.272c.141-.734.367-1.411.55-2.187a44.255,44.255,0,0,1,17.287-25.2,42.181,42.181,0,0,1,10.287-5.377l2.328-.833,2.187-.579,2.018-.508c.649-.127,1.27-.183,1.849-.282,1.171-.141,2.2-.339,3.1-.4h3.7a2.54,2.54,0,0,1,.48,0,2.694,2.694,0,0,1-.48,0l-1.411.113-2.258.155a24.844,24.844,0,0,0-3.076.466,44.057,44.057,0,0,0-35.279,32.7c-.169.706-.4,1.411-.522,2.159L391.643,118a30.611,30.611,0,0,0-.409,4.586,39.517,39.517,0,0,0,.635,9.5,43.62,43.62,0,0,0,8.2,18.444l.141.183v.226q-2.187,8.03-4.516,16.567l-.663-.579,15.523-6.237.24-.1.226.141a43.746,43.746,0,0,0,22.339,7.2,33.018,33.018,0,0,0,3.74,0,29.255,29.255,0,0,0,3.683-.31,41.376,41.376,0,0,0,13.844-4.234A45.962,45.962,0,0,0,466,155.245a46.694,46.694,0,0,0,7.917-10.838,43.748,43.748,0,0,0,4.163-12.066l.466-3.062c.155-1.016.141-2.032.212-3.048A43.516,43.516,0,0,0,458.9,87.424a42.418,42.418,0,0,0-12.348-5.56L444,81.186l-2.286-.381-1.962-.325a7.593,7.593,0,0,1-1.651-.113l-2.23-.169A5.262,5.262,0,0,1,435.009,80.085Z" transform="translate(0 0)" fill="#fff" stroke="#fff" stroke-width="2"/>
    </g>
  </g>
</svg>
