<svg xmlns="http://www.w3.org/2000/svg" width="196.643" height="196.643" viewBox="0 0 196.643 196.643">
  <g id="Group_954" data-name="Group 954" transform="translate(-64 -888.346)">
    <g id="Group_195" data-name="Group 195" transform="translate(64 888.347)">
      <path id="Path_2365" data-name="Path 2365" d="M618.146,1233.557a72.758,72.758,0,1,1-72.758-72.757A72.845,72.845,0,0,1,618.146,1233.557Z" transform="translate(-447.066 -1135.236)" fill="#caeffa"/>
      <path id="Path_2366" data-name="Path 2366" d="M637.865,1326.036a98.154,98.154,0,0,0,.3-138.633c0-.1-.2-.3-.3-.395a98.27,98.27,0,0,0-139.026,0l-.3.3a98.37,98.37,0,0,0,69.808,167.539h97.732L637.57,1326.33Zm-69.513,5.211a74.725,74.725,0,1,1,74.725-74.726A74.817,74.817,0,0,1,568.351,1331.247Z" transform="translate(-470.03 -1158.2)" fill="#caeffa"/>
    </g>
    <g id="Group_215" data-name="Group 215" transform="translate(101.292 959.072)">
      <g id="freepik--Plants--inject-2" transform="translate(14.28 16.79)">
        <path id="Path_2170" data-name="Path 2170" d="M115.866,371.528a10.238,10.238,0,0,0,2.385-1.691s-1.227-.714-1.31-.748c-.966-.407-3.072-.625-3.838.267a1.393,1.393,0,0,0,.327,2.035A2.873,2.873,0,0,0,115.866,371.528Z" transform="translate(-112.525 -295.928)" fill="#9c9c9c"/>
        <path id="Path_2171" data-name="Path 2171" d="M166.453,323.151c.02,0-.631-1.27-.682-1.347-.573-.86-2.218-2.215-3.347-1.894a1.393,1.393,0,0,0-.86,1.883,2.913,2.913,0,0,0,1.966,1.453A9.8,9.8,0,0,0,166.453,323.151Z" transform="translate(-147.232 -261.061)" fill="#9c9c9c"/>
        <path id="Path_2172" data-name="Path 2172" d="M119.681,324.157a9.609,9.609,0,0,0,1.84-2.233,24.5,24.5,0,0,0,2.883,1.565c.573.269,1.169.525,1.765.771-.287-.075-.547-.135-.573-.14-1.04-.138-3.13.209-3.631,1.27a1.39,1.39,0,0,0,.86,1.886,2.884,2.884,0,0,0,2.387-.519,8.973,8.973,0,0,0,1.794-2.167l.688.287c1.1.438,2.2.86,3.273,1.33.375.16.739.335,1.106.5-.258-.063-.473-.115-.507-.117-1.04-.138-3.127.209-3.631,1.27a1.387,1.387,0,0,0,.86,1.883,2.871,2.871,0,0,0,2.387-.519,8.736,8.736,0,0,0,1.754-2.1c.367.186.737.373,1.086.573.235.14.473.258.7.413l.682.438c.421.287.86.6,1.267.894.287.206.55.407.82.608-.373-.164-1.109-.473-1.175-.49-1.006-.287-3.124-.267-3.78.705a1.387,1.387,0,0,0,.556,1.992,2.9,2.9,0,0,0,2.439-.152,9.229,9.229,0,0,0,2.144-1.917c.444.335.874.665,1.273.983,1.164.92,2.132,1.748,2.866,2.4l.573-.522c-.768-.648-1.794-1.49-3.029-2.425-.45-.341-.937-.7-1.433-1.06a15.251,15.251,0,0,0,.7-1.631,10.12,10.12,0,0,0,2.751-.427c.186.524.361,1.037.519,1.522.453,1.384.8,2.579,1.055,3.528l.642-.573c-.267-.886-.61-1.966-1.037-3.184-.186-.533-.4-1.1-.619-1.676a9.531,9.531,0,0,0,2.293-1.74,2.906,2.906,0,0,0,.613-2.367,1.393,1.393,0,0,0-1.849-.926c-1.08.461-1.51,2.534-1.416,3.577,0,.063.143.725.235,1.146-.092-.238-.178-.467-.287-.708-.189-.482-.393-.954-.608-1.465-.115-.244-.226-.487-.344-.734s-.255-.5-.384-.748c-.307-.573-.648-1.146-1.006-1.72a9.13,9.13,0,0,0,2.453-1.341,2.9,2.9,0,0,0,.963-2.244,1.387,1.387,0,0,0-1.685-1.2c-1.146.287-1.877,2.276-1.94,3.322,0,.063.034.82.063,1.235-.218-.338-.433-.676-.662-1.012-.665-.966-1.37-1.923-2.066-2.88-.215-.287-.424-.588-.633-.883a9.718,9.718,0,0,0,2.542-1.376,2.937,2.937,0,0,0,.966-2.247,1.39,1.39,0,0,0-1.688-1.2c-1.146.287-1.877,2.276-1.94,3.322,0,.08.052,1.166.08,1.433-.464-.651-.92-1.3-1.344-1.96a23.968,23.968,0,0,1-1.553-2.766,9.812,9.812,0,0,0,2.556-1.384,2.934,2.934,0,0,0,.966-2.244,1.387,1.387,0,0,0-1.685-1.2c-1.146.287-1.877,2.276-1.94,3.322,0,.069.037.9.066,1.29l-.063.017a17.688,17.688,0,0,1-1.037-3.018c-.146-.573-.255-1.121-.35-1.657a9.273,9.273,0,0,0,2.631-1.077,2.889,2.889,0,0,0,1.207-2.127,1.393,1.393,0,0,0-1.548-1.373c-1.161.163-2.115,2.055-2.293,3.09,0,.055-.046.636-.066,1.06-.037-.244-.083-.493-.115-.728-.123-.88-.183-1.691-.232-2.41-.023-.41-.034-.782-.043-1.129a9.75,9.75,0,0,0,1.826-2.158,2.882,2.882,0,0,0,.092-2.442,1.39,1.39,0,0,0-2.006-.507c-.957.682-.931,2.8-.613,3.8.029.086.61,1.387.628,1.373l.017-.017c0,.332,0,.691.023,1.083.032.722.072,1.539.178,2.425a24.731,24.731,0,0,0,.476,2.837,17.934,17.934,0,0,0,.98,3.069l.017.034c-.224-.261-.874-.969-.931-1.017-.791-.688-2.726-1.55-3.726-.943a1.387,1.387,0,0,0-.33,2.041,2.908,2.908,0,0,0,2.278.886,9.435,9.435,0,0,0,2.766-.86,24.594,24.594,0,0,0,1.542,2.9c.332.542.685,1.08,1.046,1.614-.2-.218-.381-.413-.41-.439-.791-.685-2.726-1.55-3.726-.943a1.387,1.387,0,0,0-.33,2.041,2.894,2.894,0,0,0,2.278.886,9.271,9.271,0,0,0,2.688-.817c.14.2.287.41.421.613.676.971,1.356,1.943,2.006,2.912.226.344.436.688.645,1.032-.178-.195-.33-.355-.355-.378-.791-.688-2.726-1.551-3.726-.943a1.387,1.387,0,0,0-.327,2.041,2.9,2.9,0,0,0,2.276.886,8.454,8.454,0,0,0,2.62-.785c.206.358.413.716.593,1.075.12.246.252.476.355.731s.221.5.327.742c.192.482.39.975.573,1.447.123.327.235.642.347.957-.218-.344-.665-1.006-.708-1.058a5.383,5.383,0,0,0-2.293-1.479,1.567,1.567,0,0,0-.218-.218,1.39,1.39,0,0,0-2.052.246c-.648.98.138,2.946.794,3.766.037.049.516.525.823.82l-.648-.421c-.421-.287-.86-.573-1.313-.886l-.691-.424c-.229-.146-.487-.272-.734-.41-.573-.31-1.172-.6-1.78-.86a9.365,9.365,0,0,0,1.3-2.47,2.871,2.871,0,0,0-.433-2.4,1.39,1.39,0,0,0-2.066-.066c-.788.86-.31,2.932.212,3.84.034.057.481.665.737.995-.367-.161-.734-.324-1.109-.476-1.089-.439-2.2-.86-3.313-1.264-.341-.126-.679-.258-1.017-.387a9.573,9.573,0,0,0,1.361-2.551,2.9,2.9,0,0,0-.433-2.4,1.39,1.39,0,0,0-2.066-.066c-.788.86-.31,2.932.215,3.84.037.069.685.943.86,1.146-.745-.287-1.485-.573-2.2-.891a23.926,23.926,0,0,1-2.82-1.45,9.792,9.792,0,0,0,1.37-2.565,2.916,2.916,0,0,0-.433-2.4,1.39,1.39,0,0,0-2.066-.066c-.788.86-.31,2.932.212,3.84.034.06.527.728.771,1.04l-.046.049A17.853,17.853,0,0,1,119,319.677c-.438-.393-.834-.791-1.209-1.189a9.518,9.518,0,0,0,1.6-2.35,2.855,2.855,0,0,0-.166-2.436,1.393,1.393,0,0,0-2.049-.287c-.877.78-.628,2.883-.209,3.843.023.052.315.556.533.92-.166-.181-.341-.364-.5-.542-.573-.665-1.086-1.31-1.522-1.886-.246-.33-.461-.63-.662-.914a9.241,9.241,0,0,0,.335-2.809,2.869,2.869,0,0,0-1.273-2.086,1.387,1.387,0,0,0-1.949.682c-.421,1.095.768,2.846,1.582,3.505.072.057,1.275.82,1.281.8a.181.181,0,0,0,0-.026c.186.287.39.573.616.894.424.573.911,1.244,1.487,1.923a25.083,25.083,0,0,0,1.963,2.106,18.237,18.237,0,0,0,2.508,2.006l.034.02c-.33-.095-1.264-.327-1.338-.335-1.04-.138-3.127.209-3.631,1.27a1.39,1.39,0,0,0,.86,1.886A2.879,2.879,0,0,0,119.681,324.157Z" transform="translate(-111.844 -244.569)" fill="#9c9c9c"/>
        <path id="Path_2173" data-name="Path 2173" d="M324.554,127.988a12.824,12.824,0,0,0,2.826,2.531s.55-1.757.573-1.874c.235-1.338-.1-4.067-1.433-4.778a1.8,1.8,0,0,0-2.491,1A3.716,3.716,0,0,0,324.554,127.988Z" transform="translate(-263.097 -121.105)" fill="#9c9c9c"/>
        <path id="Path_2174" data-name="Path 2174" d="M399.495,178.007c0,.026,1.433-1.164,1.51-1.25.937-.989,2.164-3.439,1.433-4.783a1.8,1.8,0,0,0-2.628-.542,3.783,3.783,0,0,0-1.275,2.9A12.963,12.963,0,0,0,399.495,178.007Z" transform="translate(-316.368 -154.919)" fill="#9c9c9c"/>
        <path id="Path_2175" data-name="Path 2175" d="M297.063,128.417a12.511,12.511,0,0,0,3.359,1.682,31.95,31.95,0,0,0-1.146,4.1c-.175.808-.327,1.631-.467,2.456v-.782c-.126-1.353-1.167-3.9-2.654-4.227a1.8,1.8,0,0,0-2.141,1.619,3.745,3.745,0,0,0,1.347,2.866,12.329,12.329,0,0,0,3.256,1.648c-.052.315-.106.633-.155.949-.238,1.522-.467,3.041-.739,4.525-.095.522-.209,1.035-.321,1.548v-.676c-.126-1.356-1.167-3.9-2.654-4.23a1.8,1.8,0,0,0-2.138,1.622,3.751,3.751,0,0,0,1.344,2.866,11.459,11.459,0,0,0,3.153,1.611c-.129.522-.258,1.043-.407,1.542-.112.338-.192.671-.321,1.006l-.361.989c-.249.619-.5,1.261-.765,1.863-.178.416-.355.811-.533,1.209.1-.519.287-1.539.287-1.625.08-1.358-.573-4.03-1.983-4.586a1.8,1.8,0,0,0-2.362,1.278,3.8,3.8,0,0,0,.894,3.041,12.428,12.428,0,0,0,3.046,2.164c-.287.656-.59,1.3-.877,1.892-.831,1.74-1.6,3.2-2.207,4.322l.828.59c.6-1.146,1.37-2.7,2.2-4.531.3-.668.616-1.387.929-2.129a18.991,18.991,0,0,0,2.264.416,13.078,13.078,0,0,0,1.333,3.359c-.611.387-1.207.757-1.777,1.095-1.619.974-3.044,1.76-4.159,2.353l.9.645c1.046-.59,2.313-1.336,3.726-2.227.622-.39,1.278-.82,1.946-1.267a12.342,12.342,0,0,0,2.866,2.4,3.765,3.765,0,0,0,3.17.095,1.8,1.8,0,0,0,.639-2.605c-.894-1.235-3.64-1.181-4.935-.759-.074.026-.874.387-1.373.625.272-.183.539-.361.817-.553.553-.378,1.095-.771,1.677-1.189l.831-.645c.287-.212.553-.467.834-.7q.959-.834,1.871-1.765a11.933,11.933,0,0,0,2.4,2.714,3.751,3.751,0,0,0,3.118.573,1.8,1.8,0,0,0,1.029-2.479c-.7-1.356-3.422-1.72-4.763-1.5-.083.014-1.029.287-1.545.436.364-.37.731-.739,1.086-1.129,1.032-1.118,2.041-2.293,3.049-3.439.31-.355.625-.705.934-1.055a12.628,12.628,0,0,0,2.476,2.82,3.76,3.76,0,0,0,3.121.573,1.8,1.8,0,0,0,1.026-2.479c-.7-1.356-3.422-1.72-4.763-1.5-.1.014-1.462.4-1.8.516.688-.774,1.379-1.539,2.092-2.267a31.827,31.827,0,0,1,3.052-2.763,12.794,12.794,0,0,0,2.488,2.84,3.77,3.77,0,0,0,3.121.573,1.8,1.8,0,0,0,1.026-2.479c-.7-1.356-3.422-1.72-4.763-1.5-.089,0-1.124.307-1.614.456l-.04-.077a23.326,23.326,0,0,1,3.522-2.181c.676-.35,1.341-.645,2.006-.92a12.154,12.154,0,0,0,2.121,3.018,3.715,3.715,0,0,0,3.038.914,1.8,1.8,0,0,0,1.292-2.35c-.545-1.433-3.21-2.086-4.568-2.006-.075,0-.823.129-1.364.224.287-.118.6-.246.888-.355,1.078-.41,2.086-.719,2.986-.986.51-.149.977-.287,1.413-.384a11.99,11.99,0,0,0,3.259,1.691,3.732,3.732,0,0,0,3.115-.588,1.8,1.8,0,0,0,.063-2.683c-1.146-1.012-3.809-.37-4.981.318-.1.06-1.579,1.175-1.556,1.192l.026.017c-.421.1-.874.209-1.367.338-.9.249-1.926.539-3.015.926a32.394,32.394,0,0,0-3.456,1.433,23.739,23.739,0,0,0-3.6,2.121l-.037.031c.264-.358.974-1.384,1.02-1.47.642-1.2,1.178-3.895.12-4.993a1.809,1.809,0,0,0-2.68.172,3.773,3.773,0,0,0-.461,3.138,12.564,12.564,0,0,0,1.871,3.256,31.952,31.952,0,0,0-3.221,2.786c-.593.573-1.169,1.181-1.743,1.791.221-.318.413-.6.436-.648.642-1.2,1.178-3.895.12-4.99a1.8,1.8,0,0,0-2.677.172,3.756,3.756,0,0,0-.464,3.135,12.079,12.079,0,0,0,1.808,3.17l-.654.708c-1.037,1.146-2.066,2.278-3.112,3.365-.367.384-.745.748-1.121,1.115.195-.287.358-.522.378-.573.642-1.2,1.178-3.895.12-4.99a1.806,1.806,0,0,0-2.68.169,3.773,3.773,0,0,0-.461,3.138,11.181,11.181,0,0,0,1.748,3.09c-.4.361-.791.725-1.192,1.06-.287.221-.53.453-.823.662l-.845.625c-.55.381-1.118.774-1.665,1.132-.381.249-.745.481-1.115.716.372-.378,1.083-1.132,1.146-1.2a7.016,7.016,0,0,0,1.215-3.319,2.164,2.164,0,0,0,.212-.338,1.805,1.805,0,0,0-.906-2.528c-1.433-.536-3.688,1.023-4.534,2.089-.052.063-.516.805-.8,1.278.126-.3.252-.6.378-.911.252-.619.487-1.244.739-1.917.112-.33.226-.662.338-1s.2-.694.309-1.043c.226-.82.416-1.657.588-2.508a11.824,11.824,0,0,0,3.5.94,3.777,3.777,0,0,0,2.92-1.241,1.8,1.8,0,0,0-.513-2.634c-1.327-.748-3.8.453-4.8,1.376-.063.06-.705.8-1.049,1.218.1-.51.2-1.02.287-1.542.241-1.5.438-3.032.645-4.557.06-.467.129-.931.195-1.4a12.506,12.506,0,0,0,3.623.986,3.775,3.775,0,0,0,2.918-1.241,1.8,1.8,0,0,0-.51-2.634c-1.33-.745-3.8.453-4.8,1.379-.074.069-1,1.146-1.218,1.433.146-1.023.287-2.043.493-3.044a32.112,32.112,0,0,1,1.029-3.992,12.709,12.709,0,0,0,3.643,1,3.785,3.785,0,0,0,2.918-1.241,1.806,1.806,0,0,0-.51-2.637c-1.33-.745-3.8.453-4.8,1.379-.066.06-.768.877-1.095,1.272l-.074-.043a23.116,23.116,0,0,1,1.72-3.76c.372-.665.762-1.281,1.146-1.872a12.147,12.147,0,0,0,3.439,1.35,3.784,3.784,0,0,0,3.038-.914,1.8,1.8,0,0,0-.221-2.674c-1.238-.888-3.826.032-4.921.843-.057.043-.613.556-1.012.937.181-.264.364-.539.545-.788.671-.934,1.344-1.751,1.943-2.47.347-.4.668-.765.969-1.1a12.333,12.333,0,0,0,3.651-.387,3.767,3.767,0,0,0,2.276-2.21,1.8,1.8,0,0,0-1.433-2.273c-1.507-.218-3.382,1.794-3.981,3.015-.052.106-.668,1.851-.642,1.851h.034c-.287.315-.616.656-.954,1.037-.616.705-1.31,1.51-2.006,2.433a32.227,32.227,0,0,0-2.1,3.092,23.572,23.572,0,0,0-1.831,3.757l-.017.049c.026-.447.049-1.694.04-1.791-.126-1.356-1.167-3.9-2.654-4.227a1.8,1.8,0,0,0-2.138,1.619A3.825,3.825,0,0,0,297.063,128.417Z" transform="translate(-239.358 -114.693)" fill="#9c9c9c"/>
      </g>
      <g id="freepik--question-marks-2--inject-2" transform="translate(0 0)">
        <path id="Path_2176" data-name="Path 2176" d="M360.836,296.933v-.96c0-4.944,6.259-5.159,6.259-8.678,0-1.528-1.244-2.525-3.1-2.525-2.026,0-3.307,1.1-3.307,2.668v.393c0,.39-.212.573-.6.573l-3.8-.143c-.355,0-.6-.178-.6-.424v-.393c0-4.3,3.413-7.254,8.429-7.254,4.907,0,8.071,2.774,8.071,6.933,0,5.9-6.365,5.941-6.365,9.171v.639a.545.545,0,0,1-.6.6h-3.769a.544.544,0,0,1-.6-.6Zm-.321,5.732a3.048,3.048,0,0,1,6.082,0,3.047,3.047,0,0,1-6.082-.006Z" transform="translate(-271.517 -215.969)" fill="#263238"/>
        <path id="Path_2177" data-name="Path 2177" d="M100.369,160.284v-.834c0-4.3,5.445-4.48,5.445-7.538,0-1.33-1.08-2.192-2.685-2.192-1.763,0-2.866.957-2.866,2.316v.341c0,.338-.183.493-.524.493l-3.3-.123c-.31,0-.524-.155-.524-.37v-.341c0-3.726,2.963-6.305,7.32-6.305,4.262,0,7.013,2.41,7.013,6.019,0,5.127-5.531,5.159-5.531,7.97v.556a.473.473,0,0,1-.524.524h-3.293a.473.473,0,0,1-.524-.516Zm-.287,4.972a2.647,2.647,0,1,1,2.625,2.47,2.554,2.554,0,0,1-2.617-2.47Z" transform="translate(-86.197 -120.045)" fill="#4cc9f0"/>
        <path id="Path_2178" data-name="Path 2178" d="M347.194,63.461V63.04c0-2.17,2.746-2.264,2.746-3.809,0-.671-.547-1.109-1.359-1.109-.888,0-1.45.484-1.45,1.172v.172c0,.172-.095.249-.267.249l-1.668-.063c-.158,0-.267-.077-.267-.186v-.172c0-1.889,1.5-3.184,3.7-3.184,2.152,0,3.542,1.218,3.542,3.044,0,2.579-2.794,2.605-2.794,4.012v.287a.238.238,0,0,1-.267.264h-1.654a.235.235,0,0,1-.264-.255Zm-.14,2.513a1.338,1.338,0,1,1,1.336,1.247,1.29,1.29,0,0,1-1.336-1.247Z" transform="translate(-263.848 -56.11)" fill="#4cc9f0"/>
        <path id="Path_2179" data-name="Path 2179" d="M64.88,260.943v-.53c0-2.734,3.462-2.852,3.462-4.8,0-.845-.688-1.4-1.72-1.4-1.121,0-1.828.61-1.828,1.476v.215c0,.218-.118.315-.335.315l-2.1-.077c-.2,0-.335-.1-.335-.238v-.215c0-2.379,1.889-4.012,4.663-4.012,2.714,0,4.462,1.533,4.462,3.835,0,3.264-3.519,3.284-3.519,5.076v.352a.3.3,0,0,1-.335.335H65.21a.3.3,0,0,1-.33-.335ZM64.7,264.11a1.685,1.685,0,1,1,1.674,1.573A1.628,1.628,0,0,1,64.7,264.11Z" transform="translate(-62.02 -195.63)" fill="none" stroke="#263238" stroke-miterlimit="10" stroke-width="1"/>
        <path id="Path_2180" data-name="Path 2180" d="M159.156,95.521v-.364c0-1.88,2.382-1.963,2.382-3.3,0-.573-.473-.96-1.178-.96-.771,0-1.258.418-1.258,1.015v.149c0,.149-.08.215-.229.215l-1.433-.054c-.135,0-.229-.066-.229-.16V91.91c0-1.636,1.3-2.76,3.2-2.76s3.041,1.055,3.041,2.637c0,2.247-2.422,2.261-2.422,3.491v.244a.206.206,0,0,1-.229.229h-1.433a.206.206,0,0,1-.215-.229Zm-.12,2.178a1.146,1.146,0,1,1,1.146,1.083,1.118,1.118,0,0,1-1.155-1.078Z" transform="translate(-129.929 -79.681)" fill="#263238"/>
        <path id="Path_2181" data-name="Path 2181" d="M307.156,369.671v-.364c0-1.88,2.382-1.96,2.382-3.3,0-.573-.473-.96-1.178-.96-.771,0-1.258.418-1.258,1.015v.149c0,.149-.08.218-.229.218l-1.433-.054c-.135,0-.229-.069-.229-.163v-.149c0-1.636,1.3-2.76,3.2-2.76s3.072,1.055,3.072,2.64c0,2.244-2.422,2.258-2.422,3.488v.244a.209.209,0,0,1-.229.232H307.4a.209.209,0,0,1-.246-.232Zm-.12,2.178a1.146,1.146,0,1,1,1.146,1.083,1.118,1.118,0,0,1-1.144-1.083Z" transform="translate(-235.512 -275.26)" fill="none" stroke="#263238" stroke-miterlimit="10" stroke-width="1"/>
      </g>
      <g id="freepik--question-mark-1--inject-2" transform="translate(29.553 34.28)">
        <path id="Path_2182" data-name="Path 2182" d="M229.525,387.387c-.02-.06-.04-.12-.063-.181s-.04-.123-.063-.183-.04-.12-.063-.181-.04-.123-.063-.183-.04-.12-.063-.181-.04-.123-.063-.183l-.063-.181c-.02-.063-.043-.123-.063-.183l-.063-.181c-.02-.063-.043-.123-.063-.183l-.063-.181c-.02-.063-.043-.123-.063-.183l-.06-.192c-.02-.063-.043-.123-.063-.183l-.066-.181c-.02-.063-.04-.123-.063-.183s-.04-.12-.063-.181-.04-.123-.063-.183-.04-.12-.063-.181a7.53,7.53,0,0,0-13.88-.608c-.029.057-.054.117-.08.175l-.077.178c-.029.057-.054.115-.08.175s-.054.117-.08.175l-.077.175c-.029.06-.054.117-.08.178s-.054.115-.08.175-.054.115-.08.175l-.077.175c-.029.057-.054.117-.08.175s-.054.118-.08.175l-.077.178c-.029.057-.054.115-.08.175s-.054.117-.08.175l-.077.175c-.029.06-.054.117-.08.178s-.054.115-.08.175l-.077.175c-.029.057-.054.118-.08.175s-.054.117-.08.178a7.8,7.8,0,0,0-.739,3.348,8.668,8.668,0,0,0,8.91,8.386c4.821,0,9.014-3.772,9.014-8.386a7.571,7.571,0,0,0-.456-2.579A1.568,1.568,0,0,0,229.525,387.387Z" transform="translate(-197.864 -323.9)" fill="#263238"/>
        <path id="Path_2183" data-name="Path 2183" d="M187.222,186.8c-14.78,0-24.842,8.7-24.842,21.383v1.146a1.1,1.1,0,0,0,.545.934,1.4,1.4,0,0,0,.2.16,1746.165,1746.165,0,0,0,.407.321,1.143,1.143,0,0,0,.2.16,1.227,1.227,0,0,0,.2.16,1.266,1.266,0,0,0,.2.163,1.435,1.435,0,0,0,.2.16,1.288,1.288,0,0,0,.2.16,1.263,1.263,0,0,0,.2.16,1.335,1.335,0,0,0,.221.172,1.614,1.614,0,0,0,.186.146,1.437,1.437,0,0,0,.2.161,1.408,1.408,0,0,0,.2.16,1.438,1.438,0,0,0,.2.16,1.29,1.29,0,0,0,.2.161,1.264,1.264,0,0,0,.2.16,1.289,1.289,0,0,0,.2.161,1.267,1.267,0,0,0,.2.16,1.438,1.438,0,0,0,.2.16,1.27,1.27,0,0,0,.2.161,1.688,1.688,0,0,0,1.2.418l9.217.344c.949,0,1.464-.43,1.464-1.379v-.946c0-3.792,3.1-6.46,8.025-6.46,4.48,0,7.495,2.41,7.495,6.116a6.625,6.625,0,0,1-.121,1.26c-4.625,6.063-16.665,8.737-16.665,20.508v2.832a1.6,1.6,0,0,0,1.783,1.78h11.1a1.606,1.606,0,0,0,1.783-1.78v-1.889c0-9.538,18.764-9.644,18.764-27.043C211.019,194.974,201.687,186.8,187.222,186.8Z" transform="translate(-162.38 -186.791)" fill="#263238"/>
        <path id="Path_2184" data-name="Path 2184" d="M177.585,236.151v-2.832c0-14.571,18.448-15.19,18.448-25.576,0-4.508-3.668-7.452-9.12-7.452-5.976,0-9.744,3.25-9.744,7.861V209.3c0,1.146-.631,1.679-1.783,1.679l-11.217-.421c-1.046,0-1.78-.524-1.78-1.258v-1.146c0-12.685,10.062-21.383,24.842-21.383,14.465,0,23.788,8.174,23.788,20.44,0,17.4-18.764,17.505-18.764,27.043v1.889a1.606,1.606,0,0,1-1.783,1.78H179.368A1.593,1.593,0,0,1,177.585,236.151Zm-.943,16.889c0-4.611,4.087-8.386,9.013-8.386,4.717,0,8.91,3.775,8.91,8.386s-4.2,8.372-9.013,8.372A8.662,8.662,0,0,1,176.643,253.04Z" transform="translate(-162.387 -186.77)" fill="#4cc9f0" stroke="#4cc9f0" stroke-miterlimit="10" stroke-width="1"/>
        <ellipse id="Ellipse_61" data-name="Ellipse 61" cx="15.651" cy="3.499" rx="15.651" ry="3.499" transform="translate(7.056 77.041)" fill="#263238"/>
      </g>
    </g>
  </g>
</svg>
