<svg xmlns="http://www.w3.org/2000/svg" xmlns:xlink="http://www.w3.org/1999/xlink" width="361" height="526" viewBox="0 0 361 526">
  <defs>
    <clipPath id="clip-path">
      <rect id="Rectangle_4024" data-name="Rectangle 4024" width="361" height="526" transform="translate(1003 7359)" fill="#263238" stroke="#707070" stroke-width="1" opacity="0.7"/>
    </clipPath>
  </defs>
  <g id="Mask_Group_49" data-name="Mask Group 49" transform="translate(-1003 -7359)" clip-path="url(#clip-path)">
    <g id="Group_1041" data-name="Group 1041" transform="translate(1003.037 7359)">
      <path id="Path_4923" data-name="Path 4923" d="M42.519,73.769h97.556a26.263,26.263,0,0,0,26.259-26.259h0A26.263,26.263,0,0,0,140.075,21.25H42.519A26.263,26.263,0,0,0,16.26,47.509h0A26.239,26.239,0,0,0,42.519,73.769Z" transform="translate(43.962 57.491)" fill="#fff"/>
      <path id="Path_4924" data-name="Path 4924" d="M90.009,73.769H266.046a26.263,26.263,0,0,0,26.259-26.259h0A26.263,26.263,0,0,0,266.046,21.25H90.009A26.263,26.263,0,0,0,63.75,47.509h0A26.239,26.239,0,0,0,90.009,73.769Z" transform="translate(172.361 57.491)" fill="#fff"/>
      <path id="Path_4925" data-name="Path 4925" d="M82.959,52.509h52.37a26.263,26.263,0,0,0,26.259-26.259h0A26.263,26.263,0,0,0,135.33-.01L82.959.027A26.263,26.263,0,0,0,56.7,26.286h0A26.278,26.278,0,0,0,82.959,52.509Z" transform="translate(153.3 0.01)" fill="#fff"/>
      <path id="Path_4926" data-name="Path 4926" d="M208.718,106.3H111.2A26.262,26.262,0,0,0,84.94,132.559h0A26.263,26.263,0,0,0,111.2,158.818h97.556a26.263,26.263,0,0,0,26.259-26.259h0A26.294,26.294,0,0,0,208.718,106.3Z" transform="translate(229.653 287.441)" fill="#fff"/>
      <path id="Path_4927" data-name="Path 4927" d="M218.556,106.3H42.519A26.263,26.263,0,0,0,16.26,132.559h0a26.263,26.263,0,0,0,26.259,26.259H218.556a26.263,26.263,0,0,0,26.259-26.259h0A26.286,26.286,0,0,0,218.556,106.3Z" transform="translate(43.962 287.441)" fill="#fff"/>
      <path id="Path_4928" data-name="Path 4928" d="M135.347,127.56H82.939A26.263,26.263,0,0,0,56.68,153.819h0a26.263,26.263,0,0,0,26.259,26.259h52.37a26.263,26.263,0,0,0,26.259-26.259h0A26.231,26.231,0,0,0,135.347,127.56Z" transform="translate(153.246 344.922)" fill="#fff"/>
      <path id="Path_4929" data-name="Path 4929" d="M29.959,95.029h64.3a26.263,26.263,0,0,0,26.259-26.259h0A26.263,26.263,0,0,0,94.256,42.51h-64.3A26.263,26.263,0,0,0,3.7,68.769h0A26.286,26.286,0,0,0,29.959,95.029Z" transform="translate(10.004 114.972)" fill="#fff"/>
      <path id="Path_4930" data-name="Path 4930" d="M68.769,95.029H226.362a26.262,26.262,0,0,0,26.259-26.259h0A26.263,26.263,0,0,0,226.362,42.51H68.769A26.263,26.263,0,0,0,42.51,68.769h0A26.286,26.286,0,0,0,68.769,95.029Z" transform="translate(114.934 114.972)" fill="#fff"/>
      <path id="Path_4931" data-name="Path 4931" d="M132.539,95.029h65.148a26.263,26.263,0,0,0,26.259-26.259h0A26.262,26.262,0,0,0,197.687,42.51H132.539A26.262,26.262,0,0,0,106.28,68.769h0A26.239,26.239,0,0,0,132.539,95.029Z" transform="translate(287.35 114.972)" fill="#fff"/>
      <path id="Path_4932" data-name="Path 4932" d="M29.959,137.579h64.3a26.263,26.263,0,0,0,26.259-26.259h0A26.263,26.263,0,0,0,94.256,85.06h-64.3A26.263,26.263,0,0,0,3.7,111.319h0A26.286,26.286,0,0,0,29.959,137.579Z" transform="translate(10.004 230.014)" fill="#3a7ce1"/>
      <path id="Path_4933" data-name="Path 4933" d="M68.769,137.579H226.362a26.263,26.263,0,0,0,26.259-26.259h0A26.263,26.263,0,0,0,226.362,85.06H68.769A26.263,26.263,0,0,0,42.51,111.319h0A26.286,26.286,0,0,0,68.769,137.579Z" transform="translate(114.934 230.014)" fill="#fff"/>
      <path id="Path_4934" data-name="Path 4934" d="M132.539,137.579h65.148a26.263,26.263,0,0,0,26.259-26.259h0A26.262,26.262,0,0,0,197.687,85.06H132.539a26.263,26.263,0,0,0-26.259,26.259h0A26.239,26.239,0,0,0,132.539,137.579Z" transform="translate(287.35 230.014)" fill="#fff"/>
      <path id="Path_4935" data-name="Path 4935" d="M26.259,116.279H498.7a26.263,26.263,0,0,0,26.259-26.259h0A26.263,26.263,0,0,0,498.7,63.76H26.259A26.294,26.294,0,0,0,0,90.056H0A26.231,26.231,0,0,0,26.259,116.279Z" transform="translate(0 172.425)" fill="#fff"/>
    </g>
  </g>
</svg>
