<svg xmlns="http://www.w3.org/2000/svg" width="600.115" height="561.139" viewBox="0 0 600.115 561.139">
  <g id="Group_1084" data-name="Group 1084" transform="translate(-383 -54.745)">
    <g id="On_the_way-pana_1_" data-name="On the way-pana (1)" transform="translate(364.37 7.351)">
      <g id="freepik--background-complete--inject-21" transform="translate(42.306 47.394)">
        <path id="Path_7732" data-name="Path 7732" d="M579.651,222.5c-9.167-16.317-25.077-30.3-44.288-32.856-19.761-2.619-39.142,7.045-54.646,19.054a165.275,165.275,0,0,0-39.286,43.384c-6.063,9.769-12.257,21.11-23.663,24.292-10.738,2.986-22.026-2.619-30.682-9.4s-16.435-15.06-26.871-18.923c-27.186-10.07-57.514,14.077-85.748,7.111-24.318-6-35.959-31.429-51.071-50.613-24.959-31.586-68.331-49.84-109.162-43.214S42.328,236.588,36.71,275.782l559.284-.183C592.484,257.37,588.857,238.8,579.651,222.5Z" transform="translate(-36.71 -12.546)" fill="#ebebeb"/>
        <path id="Path_7733" data-name="Path 7733" d="M132.873,103.326c.5-3.654-4.649-6.652-8.525-6.967a22.052,22.052,0,0,1-5.513-.471c-3.785-1.31-5.238-6.22-9-7.779-2.763-1.165-5.945-.131-8.617,1.218s-5.33,3.051-8.329,3.235c-2.619.17-5.435-.8-7.713.471-1.689.956-2.619,2.907-4.151,4.06A9.821,9.821,0,0,1,75.608,98.6a15.426,15.426,0,0,0-5.592.9,4.426,4.426,0,0,0-2.8,4.492Z" transform="translate(-27.273 -34.948)" fill="#f5f5f5"/>
        <path id="Path_7734" data-name="Path 7734" d="M265.753,129.856c.5-3.654-4.649-6.652-8.525-6.967a22.052,22.052,0,0,1-5.513-.471c-3.785-1.31-5.238-6.22-9-7.779-2.763-1.165-5.945-.131-8.617,1.218s-5.33,3.051-8.329,3.248c-2.619.157-5.435-.8-7.7.471-1.7.943-2.619,2.894-4.151,4.06a9.966,9.966,0,0,1-5.435,1.467,15.151,15.151,0,0,0-5.592.917,4.426,4.426,0,0,0-2.8,4.479Z" transform="translate(13.856 -26.736)" fill="#f5f5f5"/>
        <path id="Path_7735" data-name="Path 7735" d="M496.076,131.193c.9-6.548-8.368-11.982-15.348-12.545-3.326-.262-6.77.249-9.926-.851-6.823-2.383-9.546-11.2-16.212-14.012-4.976-2.1-10.7-.223-15.531,2.2s-9.6,5.487-14.981,5.84c-4.688.288-9.782-1.44-13.894.851-3.051,1.7-4.649,5.238-7.477,7.307s-6.351,2.462-9.769,2.619-6.967.223-10.083,1.65-5.683,4.714-5.042,8.08Z" transform="translate(68.838 -30.22)" fill="#ebebeb"/>
        <path id="Path_7736" data-name="Path 7736" d="M297.92,83.178c1.139-8.315-10.581-15.151-19.407-15.858-4.2-.34-8.564.3-12.545-1.087-8.63-3.012-12.074-14.156-20.494-17.7-6.3-2.619-13.54-.288-19.643,2.776s-12.126,6.94-18.975,7.36c-5.932.38-12.375-1.82-17.561,1.087-3.929,2.148-5.893,6.548-9.455,9.167s-8.027,3.117-12.362,3.352-8.8.275-12.742,2.082-7.189,5.971-6.377,10.227Z" transform="translate(-2.191 -47.394)" fill="#ebebeb"/>
      </g>
      <g id="freepik--Road--inject-21" transform="translate(18.63 310.092)">
        <path id="Path_7737" data-name="Path 7737" d="M18.63,400.4l4.164-38.2,237.587,15.544a20.415,20.415,0,0,0,21.568-17.574L297.44,248H351.3l23.3,114.727a20.4,20.4,0,0,0,20.952,16.33l223.195-10.214v40.1l-195.97,33.393a34.152,34.152,0,0,0-30.446,38.762L401.5,546.44H263.354l5.592-59.832a43.738,43.738,0,0,0-36.6-47.261Z" transform="translate(-18.63 -248)" fill="#e0e0e0"/>
        <path id="Path_7738" data-name="Path 7738" d="M263.03,340.173H250l3.09-55.943,5.657.013Z" transform="translate(52.984 -236.786)" fill="#f5f5f5"/>
        <path id="Path_7739" data-name="Path 7739" d="M267.718,441.924H250l3.156-69.274,9.69.026Z" transform="translate(52.984 -209.418)" fill="#f5f5f5"/>
        <path id="Path_7740" data-name="Path 7740" d="M324.817,378.807l-1.257-10.83L392.6,361.94l1.873,7.189Z" transform="translate(75.753 -212.733)" fill="#f5f5f5"/>
        <path id="Path_7741" data-name="Path 7741" d="M431.674,367.27l-1.244-10.83,60.84-5.33v7.87Z" transform="translate(108.831 -216.085)" fill="#f5f5f5"/>
        <path id="Path_7742" data-name="Path 7742" d="M205.094,373.88l1.257-10.83L137.313,357l-1.873,7.2Z" transform="translate(17.525 -214.262)" fill="#f5f5f5"/>
        <path id="Path_7743" data-name="Path 7743" d="M87.794,361.086l1-8.643L21.074,343.8l-.864,7.9Z" transform="translate(-18.141 -218.348)" fill="#f5f5f5"/>
      </g>
      <g id="freepik--Sign--inject-21" transform="translate(348.308 69.258)">
        <path id="Path_7744" data-name="Path 7744" d="M323.382,411.244H312.12V69.721a5.631,5.631,0,0,1,5.631-5.631h0a5.644,5.644,0,0,1,5.631,5.631Z" transform="translate(-257.466 -64.09)" fill="#263238"/>
        <path id="Path_7745" data-name="Path 7745" d="M275.64,174.584l31.206-2.894,77.144,41.525-5.16,9.573-9.73-.039,6.482,6.089-7.058,13.108L291.878,200.7Z" transform="translate(-268.757 -30.785)" fill="#ffe269"/>
        <path id="Path_7746" data-name="Path 7746" d="M275.64,174.584l31.206-2.894,77.144,41.525-5.16,9.573-9.73-.039,6.482,6.089-7.058,13.108L291.878,200.7Z" transform="translate(-268.757 -30.785)" opacity="0.3"/>
        <path id="Path_7747" data-name="Path 7747" d="M275.622,171.366l22.026-2.043a12.624,12.624,0,0,1,7.163,1.454l73.778,39.7-5.16,9.586H363.7l6.482,6.089-7.058,13.1L289.45,199.6a12.69,12.69,0,0,1-4.74-4.452l-11.589-18.7a3.326,3.326,0,0,1,2.5-5.081Z" transform="translate(-269.695 -31.535)" fill="#ffe269"/>
        <g id="Group_1080" data-name="Group 1080" transform="translate(8.031 138.011)" opacity="0.2">
          <path id="Path_7748" data-name="Path 7748" d="M357.064,231.836a11.067,11.067,0,0,0-1.31-3.182,23.454,23.454,0,0,0-6.888-6.325,155.938,155.938,0,0,0-27.2-15.243c-5.592-2.449-11.092-4.361-16.042-6.246a121.917,121.917,0,0,1-12.951-5.565,52.839,52.839,0,0,1-8.067-5.029c-.9-.668-1.545-1.31-2-1.637a3.994,3.994,0,0,1-.655-.629s1,.76,2.815,2.043a56.949,56.949,0,0,0,8.132,4.819,128.509,128.509,0,0,0,12.951,5.408c4.95,1.846,10.476,3.745,16.094,6.207a147.242,147.242,0,0,1,27.212,15.479,22.733,22.733,0,0,1,6.836,6.548,7.779,7.779,0,0,1,.943,2.423,3.35,3.35,0,0,1,.1.668C357.064,231.757,357.077,231.836,357.064,231.836Z" transform="translate(-274.835 -163.754)"/>
          <path id="Path_7749" data-name="Path 7749" d="M277.032,171a10.018,10.018,0,0,0-.1,4.269,12.126,12.126,0,0,0,1.99,4.583,23.649,23.649,0,0,0,4.662,4.754,141.3,141.3,0,0,0,14.4,9.939c5.644,3.431,12.048,6.862,18.844,10.332l34.807,17.783c4.387,2.292,7.975,4.138,10.476,5.461l2.842,1.519a9.168,9.168,0,0,1,.969.563,5.971,5.971,0,0,1-1.035-.445l-2.894-1.4-10.62-5.238L316.54,205.44c-6.8-3.483-13.213-6.94-18.857-10.476a133.206,133.206,0,0,1-14.4-10.109,23.246,23.246,0,0,1-4.675-4.911,12.061,12.061,0,0,1-1.938-4.74,8.983,8.983,0,0,1,0-3.248A5.815,5.815,0,0,1,277.032,171Z" transform="translate(-276.517 -169.01)"/>
          <path id="Path_7750" data-name="Path 7750" d="M305.51,185.731a6.436,6.436,0,0,1-.655-.93,28.5,28.5,0,0,0-1.951-2.619,27.369,27.369,0,0,0-9.35-7.085,18.634,18.634,0,0,0-3.667-1.309,7.006,7.006,0,0,0-4.046.183A4.282,4.282,0,0,0,283.065,177a5.984,5.984,0,0,0,1.31,4.308c3.771,5.435,9.756,9.861,16.382,13.619,1.663.943,3.326,1.873,4.976,2.711a11.786,11.786,0,0,0,5.107,1.467,5.487,5.487,0,0,0,4.452-1.925,6.246,6.246,0,0,0,1.074-4.6,12.506,12.506,0,0,0-1.624-4.426c-.773-1.31-1.624-2.619-2.449-3.837a44.286,44.286,0,0,0-5.238-6.246,37.633,37.633,0,0,0-9.625-6.823c-1.31-.615-2.252-1.048-2.946-1.31a9.442,9.442,0,0,1-1.021-.458,6.55,6.55,0,0,1,1.074.327,30.758,30.758,0,0,1,3.012,1.218,35.986,35.986,0,0,1,9.835,6.718,43.477,43.477,0,0,1,5.4,6.26c.838,1.218,1.7,2.488,2.5,3.929a13.161,13.161,0,0,1,1.729,4.623,6.9,6.9,0,0,1-1.192,5.094,6.155,6.155,0,0,1-4.963,2.187,12.257,12.257,0,0,1-5.435-1.519c-1.689-.851-3.339-1.781-5.015-2.724-6.665-3.771-12.729-8.263-16.552-13.855a6.548,6.548,0,0,1-1.31-4.78,4.858,4.858,0,0,1,3.156-3.431,7.582,7.582,0,0,1,4.374-.17,18.331,18.331,0,0,1,3.745,1.31,25.85,25.85,0,0,1,11.223,10A9.866,9.866,0,0,1,305.51,185.731Z" transform="translate(-274.667 -169.48)"/>
          <path id="Path_7751" data-name="Path 7751" d="M366.357,213.154a31.474,31.474,0,0,0-3.064-.851,27.5,27.5,0,0,0-8.63,0c-3.627.406-7.857,1.532-12.846,1.585a22.091,22.091,0,0,1-7.608-1.31,28.444,28.444,0,0,1-7.281-3.929,43.057,43.057,0,0,1-10.607-11.786,107.049,107.049,0,0,1-6.076-11.445c-1.585-3.326-2.881-6-3.85-7.857l-1.1-2.1a3.352,3.352,0,0,1-.354-.746,4.11,4.11,0,0,1,.471.681c.3.458.707,1.139,1.218,2.03,1.035,1.794,2.41,4.439,4.046,7.739a114.862,114.862,0,0,0,6.168,11.314A43.371,43.371,0,0,0,327.32,208.06a24.461,24.461,0,0,0,14.483,5.12c4.819,0,9.167-1.074,12.794-1.427a25.89,25.89,0,0,1,8.735.288,14.181,14.181,0,0,1,2.265.72,3.169,3.169,0,0,1,.76.393Z" transform="translate(-267.719 -167.858)"/>
          <path id="Path_7752" data-name="Path 7752" d="M335.952,197.888a4.728,4.728,0,0,1-.786-.288c-.5-.21-1.218-.537-2.148-1.008s-2.017-1.074-3.261-1.86q-.943-.576-1.964-1.31a5.8,5.8,0,0,1-1.964-1.846,1.309,1.309,0,0,1,.157-1.6,1.755,1.755,0,0,1,1.624-.288c1.021.275,1.977.615,3.012.969,2.043.72,4.2,1.585,6.417,2.619a69.309,69.309,0,0,1,6.757,3.588,8.616,8.616,0,0,1,3.156,2.711,2.619,2.619,0,0,1-1.244,3.929,9.586,9.586,0,0,1-4.256.471,25.507,25.507,0,0,1-4.046-.524,27.655,27.655,0,0,1-7.255-2.554,27.277,27.277,0,0,1-13.593-16.33,18.754,18.754,0,0,1-.563-2.3,3.5,3.5,0,0,1-.1-.825c.065,0,.275,1.113.93,3.051a28.811,28.811,0,0,0,3.929,7.648,27.159,27.159,0,0,0,9.651,8.2,27.5,27.5,0,0,0,7.1,2.462,26.121,26.121,0,0,0,3.929.5,8.761,8.761,0,0,0,3.929-.419,2.1,2.1,0,0,0,1.218-1.31,2.017,2.017,0,0,0-.275-1.689,8.067,8.067,0,0,0-2.907-2.5,74.457,74.457,0,0,0-6.679-3.588,65.971,65.971,0,0,0-6.338-2.619c-1.008-.367-2.017-.733-2.933-.982a1.309,1.309,0,0,0-1.179.131.812.812,0,0,0-.079,1.008,5.409,5.409,0,0,0,1.807,1.715c.655.5,1.31.93,1.9,1.31,1.218.8,2.3,1.44,3.2,1.938s1.6.877,2.082,1.126a3.444,3.444,0,0,1,.786.471Z" transform="translate(-264.33 -165.778)"/>
        </g>
        <path id="Path_7753" data-name="Path 7753" d="M395.452,154.075l-.17-.144-22.065-13.1-87.4-6.115-.759,10.843,8.25,5.238-8.721,1.689-1.048,14.85,81.871,5.723a18.477,18.477,0,0,0,9.324-1.794l16.2-7.857C394.339,161.775,395.452,157.977,395.452,154.075Z" transform="translate(-266.312 -42.228)" fill="#ffe269"/>
        <path id="Path_7754" data-name="Path 7754" d="M395.452,154.075l-.17-.144-22.065-13.1-87.4-6.115-.759,10.843,8.25,5.238-8.721,1.689-1.048,14.85,81.871,5.723a18.477,18.477,0,0,0,9.324-1.794l16.2-7.857A10.358,10.358,0,0,0,395.452,154.075Z" transform="translate(-266.312 -42.228)" opacity="0.3"/>
        <path id="Path_7755" data-name="Path 7755" d="M394.052,153.354l-17.521-13.5a12.624,12.624,0,0,0-6.836-2.619l-83.587-5.854-.76,10.856,8.25,5.16-8.721,1.689-1.048,14.85,83.469,5.854a12.676,12.676,0,0,0,6.39-1.231l19.787-9.573a3.339,3.339,0,0,0,.576-5.631Z" transform="translate(-266.222 -43.262)" fill="#ffe269"/>
        <g id="Group_1081" data-name="Group 1081" transform="translate(18.708 91.325)" opacity="0.2">
          <path id="Path_7756" data-name="Path 7756" d="M286.49,157.576s0-.079.131-.2a3.927,3.927,0,0,1,.445-.511,8.132,8.132,0,0,1,2.1-1.532,22.445,22.445,0,0,1,9.3-1.912,145.541,145.541,0,0,1,31.271,1.454c6.063.917,11.786,2.265,16.919,3.352a128.011,128.011,0,0,0,13.842,2.344,58.5,58.5,0,0,0,9.442.275c2.226-.118,3.457-.3,3.47-.223a4.518,4.518,0,0,1-.89.17,23.875,23.875,0,0,1-2.619.314,52.261,52.261,0,0,1-9.507,0,122.354,122.354,0,0,1-13.92-2.213c-5.238-1.061-10.869-2.383-16.893-3.3a157.054,157.054,0,0,0-31.14-1.637,23.414,23.414,0,0,0-9.167,1.663A10.935,10.935,0,0,0,286.49,157.576Z" transform="translate(-284.107 -127.849)"/>
          <path id="Path_7757" data-name="Path 7757" d="M391.462,147.17a5.136,5.136,0,0,1-.288,1.087,8.918,8.918,0,0,1-1.7,2.763,12.467,12.467,0,0,1-4.177,2.973,23.441,23.441,0,0,1-6.548,1.65,131.3,131.3,0,0,1-17.587.838c-6.613-.079-13.881-.576-21.489-1.31l-38.906-3.758-11.786-1.231-3.208-.367a6.549,6.549,0,0,1-1.1-.17,5.946,5.946,0,0,1,1.113,0l3.221.236,11.786,1.008,38.932,3.562c7.6.694,14.837,1.2,21.437,1.31a136.922,136.922,0,0,0,17.508-.681,23.9,23.9,0,0,0,6.548-1.532,12.035,12.035,0,0,0,4.125-2.8A10.031,10.031,0,0,0,391.462,147.17Z" transform="translate(-284.67 -129.7)"/>
          <path id="Path_7758" data-name="Path 7758" d="M344.375,145.987a8.767,8.767,0,0,1,.982-.563,27.938,27.938,0,0,1,3-1.244,26.859,26.859,0,0,1,11.786-1.218,19.08,19.08,0,0,1,3.928.851,7.569,7.569,0,0,1,3.614,2.475,4.858,4.858,0,0,1,.825,4.6,6.547,6.547,0,0,1-3.693,3.313c-6.233,2.619-13.75,3.235-21.411,2.855-1.925-.092-3.811-.183-5.683-.367a12.362,12.362,0,0,1-5.4-1.6,6.129,6.129,0,0,1-3.025-4.5,6.914,6.914,0,0,1,1.716-4.937,12.989,12.989,0,0,1,3.929-2.986c1.4-.733,2.8-1.31,4.177-1.938a43.637,43.637,0,0,1,7.857-2.41,35.632,35.632,0,0,1,11.9-.419,28.408,28.408,0,0,1,3.2.576,6.551,6.551,0,0,1,1.1.3,9.552,9.552,0,0,1-1.126-.17c-.72-.131-1.807-.3-3.2-.445a37.452,37.452,0,0,0-11.786.629,44.823,44.823,0,0,0-7.779,2.462c-1.31.589-2.75,1.218-4.125,1.938a12.6,12.6,0,0,0-3.732,2.868,6.272,6.272,0,0,0-1.558,4.465,5.474,5.474,0,0,0,2.75,4.007,11.786,11.786,0,0,0,5.094,1.493c1.846.17,3.745.262,5.657.354,7.608.38,15.033-.17,21.109-2.75a5.958,5.958,0,0,0,3.392-2.946,4.256,4.256,0,0,0-.72-4.046,7.006,7.006,0,0,0-3.326-2.318,17.506,17.506,0,0,0-3.785-.864,27.33,27.33,0,0,0-11.694.982c-1.31.419-2.331.851-3.012,1.126a6.776,6.776,0,0,1-.969.432Z" transform="translate(-270.858 -132.668)"/>
          <path id="Path_7759" data-name="Path 7759" d="M285.2,135.12a3.26,3.26,0,0,1,.825.079,13.094,13.094,0,0,1,2.3.6,25.811,25.811,0,0,1,7.53,4.413c2.92,2.265,5.985,5.461,10.057,8.054a24.449,24.449,0,0,0,14.981,3.4,43.213,43.213,0,0,0,15.112-4.177,115.1,115.1,0,0,0,11.262-6.273c3.143-1.912,5.723-3.418,7.543-4.374.917-.485,1.637-.838,2.121-1.061a3.444,3.444,0,0,1,.773-.327,3.747,3.747,0,0,1-.707.445l-2.056,1.179c-1.781,1.021-4.308,2.619-7.412,4.557a107.656,107.656,0,0,1-11.249,6.417,43.031,43.031,0,0,1-15.282,4.3,28.116,28.116,0,0,1-8.237-.589,22,22,0,0,1-7.111-2.96c-4.151-2.619-7.176-5.919-10.031-8.211a27.028,27.028,0,0,0-7.32-4.544A29.45,29.45,0,0,0,285.2,135.12Z" transform="translate(-284.506 -133.43)"/>
          <path id="Path_7760" data-name="Path 7760" d="M310.764,138.793a4.347,4.347,0,0,1,.825,0c.537,0,1.31.118,2.357.17s2.279.092,3.732.065a18.052,18.052,0,0,0,2.331-.1,5.67,5.67,0,0,0,2.436-.5.8.8,0,0,0,.471-.89c-.079-.34-.471-.589-.917-.746-.917-.275-1.964-.5-3-.733-2.108-.458-4.374-.851-6.783-1.152a72.816,72.816,0,0,0-7.569-.524,7.857,7.857,0,0,0-3.784.55,2.069,2.069,0,0,0-1.139,1.31,2.1,2.1,0,0,0,.354,1.715,8.839,8.839,0,0,0,3.1,2.449,25.066,25.066,0,0,0,3.614,1.689,27.9,27.9,0,0,0,7.307,1.729,27.316,27.316,0,0,0,12.545-1.781,28.535,28.535,0,0,0,7.438-4.348c1.6-1.31,2.37-2.121,2.409-2.082s-.157.236-.524.642a19.987,19.987,0,0,1-1.637,1.729,27.173,27.173,0,0,1-20.206,6.548,28.311,28.311,0,0,1-7.5-1.715,25.433,25.433,0,0,1-3.693-1.729,9.167,9.167,0,0,1-3.339-2.619,2.763,2.763,0,0,1-.445-2.266,2.711,2.711,0,0,1,1.493-1.715,8.513,8.513,0,0,1,4.1-.615,69.827,69.827,0,0,1,7.634.576c2.423.314,4.714.733,6.823,1.218,1.074.249,2.056.471,3.064.786a1.781,1.781,0,0,1,1.218,1.113,1.31,1.31,0,0,1-.707,1.44,5.919,5.919,0,0,1-2.619.511H317.8c-1.467,0-2.724-.092-3.745-.183s-1.82-.2-2.357-.288a3.262,3.262,0,0,1-.93-.249Z" transform="translate(-280.213 -133.83)"/>
        </g>
        <path id="Path_7761" data-name="Path 7761" d="M273.6,109.448l26.714,16.4,87.542-3.143-.38-10.869-8.748-4.282,8.5-2.593L386.69,90.08,299.712,93.2Z" transform="translate(-269.389 -56.046)" fill="#ffe269"/>
        <path id="Path_7762" data-name="Path 7762" d="M273.6,109.448l26.714,16.4,87.542-3.143-.38-10.869-8.748-4.282,8.5-2.593L386.69,90.08,299.712,93.2Z" transform="translate(-269.389 -56.046)" opacity="0.3"/>
        <path id="Path_7763" data-name="Path 7763" d="M271.976,112.519l18.857,11.563a12.571,12.571,0,0,0,7.071,1.86l83.731-3-.393-10.869-8.748-4.269,8.5-2.619L380.47,90.31l-83.613,3.012a12.637,12.637,0,0,0-6.233,1.9l-18.661,11.615a3.339,3.339,0,0,0,.013,5.683Z" transform="translate(-270.384 -55.974)" fill="#ffe269"/>
        <g id="Group_1082" data-name="Group 1082" transform="translate(4.002 34.375)" opacity="0.2">
          <path id="Path_7764" data-name="Path 7764" d="M372.246,90.34a.694.694,0,0,1-.118.21,3.925,3.925,0,0,1-.38.55,8.46,8.46,0,0,1-1.925,1.755,22.759,22.759,0,0,1-9.036,2.881,146.275,146.275,0,0,1-31.258,1.86c-6.129-.275-11.917-1.021-17.181-1.558a131.661,131.661,0,0,0-14.012-.9,58.106,58.106,0,0,0-9.416.72c-2.2.354-3.4.668-3.431.589a8.211,8.211,0,0,1,.864-.262c.576-.144,1.414-.393,2.514-.589a53.1,53.1,0,0,1,9.468-.943,122.781,122.781,0,0,1,14.077.72c5.238.511,11.052,1.231,17.142,1.506a156.252,156.252,0,0,0,31.154-1.663,23.571,23.571,0,0,0,8.97-2.619,11.55,11.55,0,0,0,2.567-2.252Z" transform="translate(-269.71 -90.34)"/>
          <path id="Path_7765" data-name="Path 7765" d="M273.44,111.347a4.453,4.453,0,0,1,.17-1.113,8.8,8.8,0,0,1,1.4-2.92,12.3,12.3,0,0,1,3.837-3.4,23.741,23.741,0,0,1,6.377-2.344A134.288,134.288,0,0,1,302.6,98.946c6.548-.615,13.881-.89,21.515-1.008l39.1-.432h15.073a6.874,6.874,0,0,1,1.126,0,7.019,7.019,0,0,1-1.126.092l-3.221.092-11.786.249L324.2,98.5c-7.634.118-14.889.367-21.463.956a140.6,140.6,0,0,0-17.4,2.632,23.8,23.8,0,0,0-6.3,2.213,12.139,12.139,0,0,0-3.811,3.221A10.031,10.031,0,0,0,273.44,111.347Z" transform="translate(-273.44 -88.129)"/>
          <path id="Path_7766" data-name="Path 7766" d="M304.812,111.183a6.22,6.22,0,0,1-.917.668,24.385,24.385,0,0,1-2.855,1.558,26.779,26.779,0,0,1-11.629,2.462,19.474,19.474,0,0,1-3.929-.432,7.517,7.517,0,0,1-3.837-2.082,4.871,4.871,0,0,1-1.31-4.492,6.548,6.548,0,0,1,3.326-3.68c5.906-3.313,13.331-4.662,20.952-5.107,1.925-.1,3.811-.21,5.7-.236a12.3,12.3,0,0,1,5.526,1.035,6.142,6.142,0,0,1,3.5,4.151,6.914,6.914,0,0,1-1.192,5.094,13.1,13.1,0,0,1-3.6,3.379c-1.31.89-2.619,1.65-3.929,2.37a43.685,43.685,0,0,1-7.6,3.235,36.091,36.091,0,0,1-11.786,1.676,29.818,29.818,0,0,1-3.234-.236,5.656,5.656,0,0,1-1.113-.183,8.092,8.092,0,0,1,1.126,0c.733,0,1.82.118,3.221.118a37.687,37.687,0,0,0,11.642-1.873,43.213,43.213,0,0,0,7.477-3.274c1.309-.72,2.619-1.493,3.929-2.37a12.349,12.349,0,0,0,3.418-3.235,6.325,6.325,0,0,0,1.074-4.61,5.5,5.5,0,0,0-3.156-3.693,11.786,11.786,0,0,0-5.238-.943c-1.846,0-3.745.131-5.657.236-7.608.445-14.929,1.768-20.7,4.976a5.893,5.893,0,0,0-3.064,3.287,4.269,4.269,0,0,0,1.152,3.929,7.045,7.045,0,0,0,3.549,1.964,17.955,17.955,0,0,0,3.85.458,27.5,27.5,0,0,0,11.524-2.213,30.372,30.372,0,0,0,2.881-1.44,8.259,8.259,0,0,1,.9-.5Z" transform="translate(-271.341 -87.403)"/>
          <path id="Path_7767" data-name="Path 7767" d="M372.316,114.765a4.413,4.413,0,0,1-.825,0,13.32,13.32,0,0,1-2.357-.354,25.863,25.863,0,0,1-7.962-3.6c-3.143-1.938-6.548-4.793-10.843-6.94a24.462,24.462,0,0,0-15.256-1.807,43.345,43.345,0,0,0-14.523,5.749,115.887,115.887,0,0,0-10.542,7.425c-2.92,2.239-5.33,4.007-7.045,5.146-.851.576-1.532,1.008-1.99,1.31a4.294,4.294,0,0,1-.733.406,4.218,4.218,0,0,1,.655-.524l1.925-1.388c1.663-1.2,4.007-3.025,6.888-5.3a107.944,107.944,0,0,1,10.476-7.582,43.214,43.214,0,0,1,14.732-5.88,27.919,27.919,0,0,1,8.263-.288,22.34,22.34,0,0,1,7.386,2.2c4.4,2.226,7.752,5.133,10.83,7.1a27.5,27.5,0,0,0,7.8,3.68C371.177,114.686,372.329,114.686,372.316,114.765Z" transform="translate(-265.145 -87.055)"/>
          <path id="Path_7768" data-name="Path 7768" d="M338.291,112.684a6.792,6.792,0,0,1-.825,0c-.537,0-1.31,0-2.357.079s-2.279.157-3.719.34c-.72.092-1.493.21-2.3.354a5.487,5.487,0,0,0-2.37.746.8.8,0,0,0-.38.93,1.31,1.31,0,0,0,1,.642c.93.183,2,.3,3.064.419,2.135.236,4.439.393,6.849.419a72.022,72.022,0,0,0,7.6-.262,8.067,8.067,0,0,0,3.706-.943,2.1,2.1,0,0,0,1-1.414A2.134,2.134,0,0,0,349,112.33a8.813,8.813,0,0,0-3.339-2.108,25.694,25.694,0,0,0-3.771-1.31,28.089,28.089,0,0,0-7.451-.943,27.081,27.081,0,0,0-12.283,3.1,28.312,28.312,0,0,0-6.94,5.094c-1.44,1.454-2.135,2.37-2.187,2.331a4.59,4.59,0,0,1,.471-.694,19.877,19.877,0,0,1,1.519-1.82,27.3,27.3,0,0,1,19.407-8.643,28.3,28.3,0,0,1,7.634.917,26.924,26.924,0,0,1,3.863,1.31,9.363,9.363,0,0,1,3.6,2.3,2.737,2.737,0,0,1,.681,2.2,2.619,2.619,0,0,1-1.31,1.873,8.721,8.721,0,0,1-4.02,1.048,69.249,69.249,0,0,1-7.648.223,56.724,56.724,0,0,1-6.914-.485c-1.087-.144-2.1-.262-3.13-.471a1.768,1.768,0,0,1-1.31-.969,1.309,1.309,0,0,1,.563-1.506,5.788,5.788,0,0,1,2.619-.786c.812-.131,1.6-.223,2.331-.3,1.454-.144,2.711-.21,3.745-.223s1.833,0,2.37,0a2.881,2.881,0,0,1,.786.21Z" transform="translate(-261.186 -85.079)"/>
        </g>
      </g>
      <g id="freepik--Floor--inject-21" transform="translate(68.68 309.752)">
        <path id="Path_7769" data-name="Path 7769" d="M567.367,248.08c0,.183-114.3.34-255.252.34S56.85,248.2,56.85,248.08s114.269-.34,255.265-.34S567.367,247.819,567.367,248.08Z" transform="translate(-56.85 -247.74)" fill="#263238"/>
      </g>
      <g id="freepik--Plants--inject-21" transform="translate(66.685 275.534)">
        <path id="Path_7770" data-name="Path 7770" d="M70.836,418.989c-.118,0-.589-1.938-1.545-5.042a86.3,86.3,0,0,0-4.636-11.786,85.787,85.787,0,0,0-6.338-10.974c-1.833-2.685-3.077-4.282-2.986-4.348a6.167,6.167,0,0,1,.982,1.021c.6.694,1.427,1.729,2.4,3.051a71.028,71.028,0,0,1,6.548,10.961,69.288,69.288,0,0,1,4.479,11.956c.432,1.585.733,2.868.89,3.771A6.194,6.194,0,0,1,70.836,418.989Z" transform="translate(-55.326 -170.468)" fill="#263238"/>
        <path id="Path_7771" data-name="Path 7771" d="M77.08,427.369c-.17,0-3.483-10.948-7.373-24.567s-6.9-24.711-6.7-24.8,3.483,10.948,7.373,24.567S77.263,427.317,77.08,427.369Z" transform="translate(-52.953 -173.204)" fill="#263238"/>
        <path id="Path_7772" data-name="Path 7772" d="M79.682,393.16a36.1,36.1,0,0,1-.511,4.452c-.354,2.737-.76,6.548-.982,10.738s-.236,8.014-.17,10.777a41.2,41.2,0,0,1,0,4.479,3.706,3.706,0,0,1-.223-1.192c-.1-.773-.2-1.886-.288-3.274a91.666,91.666,0,0,1,0-10.83A93.763,93.763,0,0,1,78.7,397.547c.236-1.375.458-2.475.642-3.221a4.832,4.832,0,0,1,.34-1.166Z" transform="translate(-48.51 -168.511)" fill="#263238"/>
        <path id="Path_7773" data-name="Path 7773" d="M364.473,221.61c.183,0,2.554,7.635,5.238,17.168s4.819,17.312,4.649,17.364-2.554-7.635-5.3-17.168S364.289,221.662,364.473,221.61Z" transform="translate(40.358 -221.61)" fill="#263238"/>
        <path id="Path_7774" data-name="Path 7774" d="M377.053,223.47c.1,0-.393,1.781-.956,4.662a70.3,70.3,0,0,0-1.31,11.34,69.406,69.406,0,0,0,.616,11.393c.393,2.907.786,4.675.668,4.7a4.818,4.818,0,0,1-.393-1.218,33.812,33.812,0,0,1-.746-3.4,56.624,56.624,0,0,1,.694-22.917,34.031,34.031,0,0,1,.943-3.366,4.021,4.021,0,0,1,.484-1.192Z" transform="translate(43.335 -221.034)" fill="#263238"/>
        <path id="Path_7775" data-name="Path 7775" d="M385.73,228.14c.092.065-.812,1.31-2.056,3.562a48.786,48.786,0,0,0-3.929,9.023,47.59,47.59,0,0,0-1.912,9.651c-.236,2.527-.223,4.1-.341,4.1a3.5,3.5,0,0,1-.144-1.1,28.609,28.609,0,0,1,0-3.025,39.849,39.849,0,0,1,5.893-18.9,28.522,28.522,0,0,1,1.729-2.488C385.429,228.415,385.691,228.114,385.73,228.14Z" transform="translate(44.335 -219.589)" fill="#263238"/>
        <path id="Path_7776" data-name="Path 7776" d="M319.764,330.005c-.694-2.619,1.061-5.369,3.038-7.307s4.321-3.693,5.343-6.26c1.663-4.177-.563-9.573,2.266-13.1,1.663-2.043,4.662-2.724,6.142-4.911a11.2,11.2,0,0,0,1.31-3.929,39.718,39.718,0,0,1,9.861-18.464,34.428,34.428,0,0,1-3.929,17.8,22.469,22.469,0,0,0-2.933,6.744c-.629,3.929,1.585,8.054.616,11.93-1.113,4.452-6.115,7.425-6.351,12.008-.2,3.929,3.182,7.268,2.933,11.131a10.593,10.593,0,0,1-1.729,4.6c-3,4.976-7.386,8.407-14.051,8.289l-8.158.288Z" transform="translate(24.776 -204.763)" fill="#ffe269"/>
        <g id="Group_1083" data-name="Group 1083" transform="translate(338.896 71.277)" opacity="0.3">
          <path id="Path_7777" data-name="Path 7777" d="M319.764,330.005c-.694-2.619,1.061-5.369,3.038-7.307s4.321-3.693,5.343-6.26c1.663-4.177-.563-9.573,2.266-13.1,1.663-2.043,4.662-2.724,6.142-4.911a11.2,11.2,0,0,0,1.31-3.929,39.718,39.718,0,0,1,9.861-18.464,34.428,34.428,0,0,1-3.929,17.8,22.469,22.469,0,0,0-2.933,6.744c-.629,3.929,1.585,8.054.616,11.93-1.113,4.452-6.115,7.425-6.351,12.008-.2,3.929,3.182,7.268,2.933,11.131a10.593,10.593,0,0,1-1.729,4.6c-3,4.976-7.386,8.407-14.051,8.289l-8.158.288Z" transform="translate(-314.12 -276.04)"/>
        </g>
        <path id="Path_7778" data-name="Path 7778" d="M319.629,355.72a6.547,6.547,0,0,1-2.239,0,14.535,14.535,0,0,1-2.619-.668,11.707,11.707,0,0,1-3.274-1.794,4.622,4.622,0,0,1-1.309-1.807,8.616,8.616,0,0,1-.38-2.436,26.2,26.2,0,0,0-.2-2.619,7.123,7.123,0,0,0-1-2.619c-.956-1.689-2.554-3.287-3.077-5.579a18.452,18.452,0,0,1,.223-7.163,15.217,15.217,0,0,0-.183-7.661c-.877-2.554-2.619-4.858-3.562-7.739s-.485-6.037-.668-9.167a12.125,12.125,0,0,0-1.061-4.531c-.668-1.454-1.585-2.815-2.292-4.335-1.454-3.077-1.7-6.548-2.108-9.965-.183-1.729-.38-3.47-.576-5.238a25.128,25.128,0,0,0-.917-5.238,45.121,45.121,0,0,0-1.951-5.055,17.03,17.03,0,0,1-.943-2.619,25.637,25.637,0,0,1-.262-2.8,33.916,33.916,0,0,1,.209-5.644c.223-1.886.563-3.758.773-5.644v-.707l.327.17a12.715,12.715,0,0,1,4.4,3.706,20.168,20.168,0,0,1,2.7,4.976,60.954,60.954,0,0,1,2.541,10.7,29.019,29.019,0,0,0,3.352,9.861c.89,1.454,1.977,2.789,2.92,4.2a11.379,11.379,0,0,1,2.03,4.649c.485,3.457-1.414,6.482-1.021,9.546a10.567,10.567,0,0,0,1.493,4.23c.733,1.31,1.611,2.514,2.436,3.732a23.693,23.693,0,0,1,2.187,3.771,11.93,11.93,0,0,1,1.008,4.086c.2,2.75-.2,5.369,0,7.857a17.731,17.731,0,0,0,2,6.7c1,2.017,2.1,3.824,3.012,5.592a26.187,26.187,0,0,1,1.231,2.619,13.091,13.091,0,0,1,.72,2.619,16,16,0,0,1,.065,4.662,11.641,11.641,0,0,1-2.344,5.945,6.061,6.061,0,0,1-.655.72,3.54,3.54,0,0,1-.537.445c-.3.223-.471.327-.471.327a8.907,8.907,0,0,0,1.585-1.558,11.786,11.786,0,0,0,2.213-5.906,16.017,16.017,0,0,0-.1-4.583,12.453,12.453,0,0,0-.72-2.527,26.947,26.947,0,0,0-1.244-2.619c-.93-1.742-2.03-3.549-3.038-5.565a18.241,18.241,0,0,1-2.1-6.836c-.21-2.514.17-5.133,0-7.857a11.406,11.406,0,0,0-.982-3.929,22.155,22.155,0,0,0-2.174-3.693c-.825-1.2-1.7-2.423-2.462-3.758a11.132,11.132,0,0,1-1.558-4.4c-.393-3.261,1.493-6.312,1.008-9.52a11.026,11.026,0,0,0-1.964-4.452c-.93-1.388-2.017-2.724-2.933-4.217a29.125,29.125,0,0,1-3.431-10.031,61.376,61.376,0,0,0-2.527-10.594,19.522,19.522,0,0,0-2.619-4.845,12.126,12.126,0,0,0-4.2-3.562l.367-.21v.327c-.21,1.912-.55,3.785-.773,5.644a33.028,33.028,0,0,0-.209,5.565,25.656,25.656,0,0,0,.249,2.724,15.549,15.549,0,0,0,.917,2.54,49.415,49.415,0,0,1,1.964,5.107,25.992,25.992,0,0,1,.917,5.317c.2,1.755.393,3.5.576,5.238.393,3.431.655,6.862,2.043,9.835.694,1.467,1.611,2.842,2.292,4.335a12.572,12.572,0,0,1,1.087,4.7c.183,3.143-.236,6.22.615,9.01s2.619,5.094,3.536,7.739a15.557,15.557,0,0,1,.17,7.857,18.334,18.334,0,0,0-.262,7.019c.471,2.187,2.017,3.771,3,5.513a7.766,7.766,0,0,1,1.021,2.724,24.2,24.2,0,0,1,.17,2.619,8.515,8.515,0,0,0,.341,2.383,4.532,4.532,0,0,0,1.31,1.716,11.353,11.353,0,0,0,3.2,1.794,14.938,14.938,0,0,0,2.619.72,10.638,10.638,0,0,0,1.663.157Z" transform="translate(17.683 -211.371)" fill="#263238"/>
        <path id="Path_7779" data-name="Path 7779" d="M293.22,258.41a.812.812,0,0,1,.079.249,3.5,3.5,0,0,0,.183.733c.157.642.354,1.624.655,2.829s1.061,2.619,1.689,4.269a57.147,57.147,0,0,1,1.951,5.788c.615,2.174,1.165,4.6,1.742,7.176a30.408,30.408,0,0,0,2.619,7.975c.668,1.31,1.414,2.619,2.017,4.138a19.377,19.377,0,0,1,1.179,4.688,96.187,96.187,0,0,0,1.755,9.874c1.637,6.679,3.2,13.1,4.623,18.857l3.929,15.374c1.074,4.361,1.951,7.857,2.619,10.385q.432,1.807.668,2.829l.157.746v.249a2,2,0,0,1-.092-.236l-.21-.733c-.183-.681-.432-1.611-.76-2.8L315.3,340.452c-1.139-4.374-2.488-9.573-3.929-15.348s-3.012-12.179-4.662-18.87a92.869,92.869,0,0,1-1.755-9.913,18.681,18.681,0,0,0-1.126-4.57c-.576-1.427-1.31-2.763-1.99-4.1a30.589,30.589,0,0,1-2.619-8.093c-.563-2.619-1.087-5.015-1.689-7.189s-1.218-4.1-1.846-5.775-1.31-3.064-1.624-4.321-.432-2.2-.563-2.855a3.349,3.349,0,0,0-.131-.746A.786.786,0,0,1,293.22,258.41Z" transform="translate(18.307 -210.22)" fill="#263238"/>
        <path id="Path_7780" data-name="Path 7780" d="M313.139,361.831c-5.33-3.169-6.862-12.781-4.636-18.569s6.116-11.092,6.718-17.26c.458-4.74-1.087-9.612,0-14.248,1.493-6.26,7.608-11.118,7.53-17.548,0-3.614-2.1-7.006-1.925-10.607.2-4.426,3.588-7.936,5.7-11.786,3.221-5.958,3.431-13.017,4.531-19.643s3.654-13.855,9.573-17.142c.877,5.67,2.37,9.56,1.912,17.259-.17,2.763-3.379,8.054-3.824,14.1-.262,3.614-.432,7.242-.655,10.869a34.729,34.729,0,0,1-1.715,10.4c-.969,2.527-2.514,4.832-3.235,7.438-1.31,4.911.419,10.214-.668,15.19-.93,4.217-3.837,7.857-4.439,12.113-.838,6,3.051,12.231,1.061,17.953-.982,2.842-3.326,5.12-3.929,8.054-.524,2.279,0,4.688-.432,6.98-.746,3.68-7.765,6.548-11.524,6.312" transform="translate(22.732 -217.456)" fill="#ffe269"/>
        <path id="Path_7781" data-name="Path 7781" d="M337.829,239.25a1.233,1.233,0,0,1,0,.327,8.929,8.929,0,0,1-.118.93c-.118.825-.262,2.03-.537,3.575s-1.1,3.339-1.742,5.461-1.31,4.557-1.964,7.294-1.113,5.775-1.65,9.023a37.979,37.979,0,0,1-2.724,10.2c-.76,1.7-1.6,3.418-2.226,5.238a23.9,23.9,0,0,0-1.126,5.762,117.573,117.573,0,0,1-1.558,12.427c-1.637,8.407-3.182,16.421-4.609,23.715s-2.829,13.815-3.929,19.329-2.069,9.9-2.711,13.017c-.327,1.506-.589,2.685-.773,3.523-.079.38-.157.681-.21.917a1.307,1.307,0,0,1-.092.314,1.93,1.93,0,0,1,0-.314,6.853,6.853,0,0,1,.157-.93c.17-.851.393-2.043.668-3.562.615-3.117,1.493-7.556,2.619-13.1s2.4-12.074,3.85-19.342,2.946-15.308,4.57-23.715a116.63,116.63,0,0,0,1.558-12.375,24.38,24.38,0,0,1,1.165-5.88c.655-1.859,1.506-3.575,2.252-5.238a37.414,37.414,0,0,0,2.737-10.07c.563-3.261,1.087-6.286,1.729-9.036a75.576,75.576,0,0,1,2.03-7.307c.681-2.135,1.519-3.929,1.833-5.408s.471-2.737.629-3.549l.17-.93Z" transform="translate(24.075 -216.15)" fill="#263238"/>
        <path id="Path_7782" data-name="Path 7782" d="M401.092,425.621a10.476,10.476,0,0,1,5.435,6.155,18.543,18.543,0,0,1,.72,8.342c-.615,5.408-3.68,10.869-6.993,15.2-4.557-3.929-5.6-10.921-5.919-14.47-.5-5.618,2.03-16.068,6.757-15.23" transform="translate(49.585 -158.479)" fill="#ffe269"/>
        <path id="Path_7783" data-name="Path 7783" d="M402.921,457.781a8.983,8.983,0,0,1,2.894-8.512,11.878,11.878,0,0,1,8.761-2.737,5.055,5.055,0,0,1,3.85,1.729,3.837,3.837,0,0,1,0,3.929,7.726,7.726,0,0,1-2.868,2.829c-3.929,2.475-8.224,4.151-12.689,2.815" transform="translate(52.208 -152.008)" fill="#ffe269"/>
        <path id="Path_7784" data-name="Path 7784" d="M398.42,473.1a7.205,7.205,0,0,1,.157-1.113l.55-3.012a31.729,31.729,0,0,1,3.1-9.6,19.224,19.224,0,0,1,6.888-7.32,13.357,13.357,0,0,1,2.815-1.244,5.775,5.775,0,0,1,.812-.2.786.786,0,0,1,.288,0,18.87,18.87,0,0,0-3.771,1.715,19.866,19.866,0,0,0-6.679,7.281,34.05,34.05,0,0,0-3.182,9.468c-.275,1.31-.5,2.279-.668,2.973A5.7,5.7,0,0,1,398.42,473.1Z" transform="translate(50.869 -150.733)" fill="#263238"/>
        <path id="Path_7785" data-name="Path 7785" d="M398.614,431.82a1.7,1.7,0,0,1,0,.485,8.216,8.216,0,0,0,.092,1.388c0,1.218.131,2.973.2,5.133.144,4.334.249,10.332.223,16.958s-.183,12.611-.367,16.945c-.092,2.161-.17,3.929-.249,5.133,0,.563-.065,1.035-.092,1.388a2.107,2.107,0,0,1-.065.484,2.779,2.779,0,0,1,0-.484v-1.4c0-1.31.079-3,.131-5.133.1-4.335.223-10.319.249-16.945s0-12.6-.1-16.932c0-2.135-.065-3.929-.079-5.133v-1.4a2,2,0,0,1,.065-.484Z" transform="translate(50.845 -156.545)" fill="#263238"/>
        <path id="Path_7786" data-name="Path 7786" d="M400.893,461.42A20.952,20.952,0,0,0,389.474,446.1c-1.532-.733-3.523-1.218-4.767-.079s-.969,3.169-.367,4.74a17.888,17.888,0,0,0,16.448,11.157" transform="translate(46.353 -152.36)" fill="#ffe269"/>
        <path id="Path_7787" data-name="Path 7787" d="M388.7,449.83a6.945,6.945,0,0,1,.969.432,11.524,11.524,0,0,1,1.087.576c.406.262.9.511,1.388.877a18.626,18.626,0,0,1,1.6,1.192,22.369,22.369,0,0,1,1.689,1.545,23.471,23.471,0,0,1,3.221,4.125,22.984,22.984,0,0,1,2.121,4.793c.21.786.419,1.519.537,2.226a17.362,17.362,0,0,1,.275,1.977,14.821,14.821,0,0,1,0,1.637,9.259,9.259,0,0,1,0,1.244,5.685,5.685,0,0,1-.118,1.047c-.092,0,0-1.506-.21-3.929a17.4,17.4,0,0,0-.314-1.938,19.776,19.776,0,0,0-.563-2.174,22.065,22.065,0,0,0-5.238-8.787,19.7,19.7,0,0,0-1.637-1.545c-.524-.471-1.061-.851-1.545-1.218C390.036,450.537,388.661,449.909,388.7,449.83Z" transform="translate(47.86 -150.971)" fill="#263238"/>
        <path id="Path_7788" data-name="Path 7788" d="M373.535,394.76a2.871,2.871,0,0,1-.327.629c-.262.471-.6,1.048-1.021,1.742s-1.008,1.663-1.6,2.763-1.31,2.3-2.03,3.706c-1.467,2.75-3.064,6.129-4.675,9.926a133.592,133.592,0,0,0-4.492,12.676c-1.31,4.583-2.3,9.023-3.051,13.1a108.161,108.161,0,0,0-1.414,10.9c-.157,1.558-.21,2.973-.288,4.2s-.118,2.318-.144,3.2,0,1.48,0,2.017a2.409,2.409,0,0,1-.079.694,2.866,2.866,0,0,1-.066-.694v-5.225a33.233,33.233,0,0,1,.2-4.23,109.314,109.314,0,0,1,1.31-10.961,125.151,125.151,0,0,1,3.012-13.174,122.773,122.773,0,0,1,4.57-12.715c1.65-3.824,3.3-7.176,4.832-9.926.733-1.388,1.48-2.619,2.121-3.667s1.2-1.977,1.7-2.711.825-1.218,1.139-1.663S373.535,394.747,373.535,394.76Z" transform="translate(37.228 -168.016)" fill="#263238"/>
        <path id="Path_7789" data-name="Path 7789" d="M353.958,409.18a8.463,8.463,0,0,1-.079,1.755c-.118,1.31-.275,2.881-.445,4.793-.393,4.033-.89,9.625-1.31,15.793s-.668,11.786-.838,15.832l-.223,4.806a8.038,8.038,0,0,1-.157,1.768,8.62,8.62,0,0,1-.1-1.768c0-1.139,0-2.776,0-4.819,0-4.06.223-9.677.642-15.858s1-11.786,1.506-15.806c.262-2.017.484-3.64.668-4.767a10.03,10.03,0,0,1,.34-1.729Z" transform="translate(36.127 -163.553)" fill="#263238"/>
        <path id="Path_7790" data-name="Path 7790" d="M337.881,422.26a4.975,4.975,0,0,1,.943.825,30.309,30.309,0,0,1,2.3,2.54,41.906,41.906,0,0,1,5.88,9.651,41.37,41.37,0,0,1,3.064,10.869,30.221,30.221,0,0,1,.3,3.418,5.237,5.237,0,0,1,0,1.309c-.118,0-.236-1.768-.733-4.6a47.314,47.314,0,0,0-8.852-20.3C339.02,423.635,337.789,422.339,337.881,422.26Z" transform="translate(32.129 -159.504)" fill="#263238"/>
        <path id="Path_7791" data-name="Path 7791" d="M399.13,257.54a4.31,4.31,0,0,1,.615.6l1.676,1.807,1.192,1.31c.432.5.864,1.061,1.31,1.65.943,1.2,2.069,2.527,3.143,4.125l1.729,2.462c.589.864,1.126,1.807,1.729,2.763,1.244,1.9,2.344,4.046,3.549,6.273a94.155,94.155,0,0,1,9.7,31.429c.249,2.527.55,4.924.6,7.176,0,1.139.118,2.226.118,3.274v3.012c0,1.912-.17,3.64-.275,5.16a20.193,20.193,0,0,1-.17,2.121c-.065.642-.17,1.231-.249,1.768-.144,1.008-.262,1.82-.367,2.436a3.261,3.261,0,0,1-.17.851,7.1,7.1,0,0,1,0-.864c.065-.629.144-1.44.236-2.449,0-.537.118-1.126.183-1.768s.079-1.31.118-2.121c.065-1.506.223-3.235.17-5.146v-3c0-1.035-.118-2.121-.17-3.235-.065-2.252-.38-4.623-.655-7.137a97.561,97.561,0,0,0-9.625-31.219c-1.192-2.226-2.266-4.374-3.47-6.26-.589-.956-1.126-1.912-1.7-2.776s-1.139-1.689-1.676-2.475c-1.034-1.611-2.135-2.946-3.051-4.164-.458-.6-.877-1.179-1.31-1.676l-1.152-1.31-1.571-1.886a3.763,3.763,0,0,1-.458-.733Z" transform="translate(51.089 -210.489)" fill="#263238"/>
        <path id="Path_7792" data-name="Path 7792" d="M430.9,277.28a12.881,12.881,0,0,1-.511,1.951c-.38,1.31-.9,3.038-1.519,5.238a158.389,158.389,0,0,0-5.552,35.7c-.092,2.318-.144,4.19-.17,5.487a11.216,11.216,0,0,1-.1,2.017,10.229,10.229,0,0,1-.157-2c0-1.309-.092-3.182,0-5.513a132.483,132.483,0,0,1,5.579-35.815c.681-2.226,1.31-4.007,1.729-5.238A10.781,10.781,0,0,1,430.9,277.28Z" transform="translate(58.43 -204.379)" fill="#263238"/>
        <path id="Path_7793" data-name="Path 7793" d="M432.749,296.86a75.665,75.665,0,0,0-4.308,9.35,76.077,76.077,0,0,0-2.3,10.018,10.673,10.673,0,0,1,0-3.051,34.053,34.053,0,0,1,1.611-7.189,33.168,33.168,0,0,1,3.13-6.679,10.316,10.316,0,0,1,1.872-2.449Z" transform="translate(59.414 -198.318)" fill="#263238"/>
      </g>
    </g>
    <g id="Group_1079" data-name="Group 1079">
      <text id="_4" data-name="4" transform="translate(468 421)" fill="#3a7ce1" font-size="226" font-family="Righteous-Regular, Righteous"><tspan x="0" y="0">4</tspan></text>
      <text id="_4-2" data-name="4" transform="translate(756 421)" fill="#3a7ce1" font-size="226" font-family="Righteous-Regular, Righteous"><tspan x="0" y="0">4</tspan></text>
      <g id="Group_856" data-name="Group 856" transform="translate(613.894 278.734)">
        <path id="Path_4923" data-name="Path 4923" d="M23.242,35.213H49.179a6.982,6.982,0,0,0,6.982-6.982h0a6.982,6.982,0,0,0-6.982-6.982H23.242a6.982,6.982,0,0,0-6.982,6.982h0A6.976,6.976,0,0,0,23.242,35.213Z" transform="translate(-0.249 -0.315)" fill="#263238"/>
        <path id="Path_4924" data-name="Path 4924" d="M70.732,35.213h46.8a6.982,6.982,0,0,0,6.982-6.982h0a6.982,6.982,0,0,0-6.982-6.982h-46.8a6.982,6.982,0,0,0-6.982,6.982h0A6.976,6.976,0,0,0,70.732,35.213Z" transform="translate(-0.975 -0.315)" fill="#263238"/>
        <path id="Path_4925" data-name="Path 4925" d="M63.682,13.953H77.605a6.982,6.982,0,0,0,6.982-6.982h0A6.982,6.982,0,0,0,77.605-.01L63.682,0A6.982,6.982,0,0,0,56.7,6.981h0A6.987,6.987,0,0,0,63.682,13.953Z" transform="translate(-0.867 0.01)" fill="#263238"/>
        <path id="Path_4926" data-name="Path 4926" d="M117.849,106.3H91.922a6.982,6.982,0,0,0-6.982,6.982h0a6.982,6.982,0,0,0,6.982,6.982h25.937a6.982,6.982,0,0,0,6.982-6.982h0A6.991,6.991,0,0,0,117.849,106.3Z" transform="translate(-1.299 -1.616)" fill="#263238"/>
        <path id="Path_4927" data-name="Path 4927" d="M70.045,106.3h-46.8a6.982,6.982,0,0,0-6.982,6.982h0a6.982,6.982,0,0,0,6.982,6.982h46.8a6.982,6.982,0,0,0,6.982-6.982h0A6.989,6.989,0,0,0,70.045,106.3Z" transform="translate(-0.249 -1.616)" fill="#263238"/>
        <path id="Path_4928" data-name="Path 4928" d="M77.6,127.56H63.662a6.982,6.982,0,0,0-6.982,6.982h0a6.982,6.982,0,0,0,6.982,6.982H77.585a6.982,6.982,0,0,0,6.982-6.982h0A6.974,6.974,0,0,0,77.6,127.56Z" transform="translate(-0.867 -1.941)" fill="#263238"/>
        <path id="Path_4929" data-name="Path 4929" d="M10.682,56.473H27.776a6.982,6.982,0,0,0,6.982-6.982h0a6.982,6.982,0,0,0-6.982-6.982H10.682A6.982,6.982,0,0,0,3.7,49.492h0A6.989,6.989,0,0,0,10.682,56.473Z" transform="translate(-0.057 -0.64)" fill="#263238"/>
        <path id="Path_4930" data-name="Path 4930" d="M49.492,56.473h41.9a6.982,6.982,0,0,0,6.982-6.982h0a6.982,6.982,0,0,0-6.982-6.982h-41.9a6.982,6.982,0,0,0-6.982,6.982h0A6.989,6.989,0,0,0,49.492,56.473Z" transform="translate(-0.65 -0.64)" fill="#263238"/>
        <path id="Path_4931" data-name="Path 4931" d="M113.262,56.473h17.321a6.982,6.982,0,0,0,6.982-6.982h0a6.982,6.982,0,0,0-6.982-6.982H113.262a6.982,6.982,0,0,0-6.982,6.982h0A6.976,6.976,0,0,0,113.262,56.473Z" transform="translate(-1.625 -0.64)" fill="#263238"/>
        <path id="Path_4932" data-name="Path 4932" d="M10.682,99.023H27.776a6.982,6.982,0,0,0,6.982-6.982h0a6.982,6.982,0,0,0-6.982-6.982H10.682A6.982,6.982,0,0,0,3.7,92.042h0A6.989,6.989,0,0,0,10.682,99.023Z" transform="translate(-0.057 -1.291)" fill="#263238"/>
        <path id="Path_4933" data-name="Path 4933" d="M49.492,99.023h41.9a6.982,6.982,0,0,0,6.982-6.982h0a6.982,6.982,0,0,0-6.982-6.982h-41.9a6.982,6.982,0,0,0-6.982,6.982h0A6.989,6.989,0,0,0,49.492,99.023Z" transform="translate(-0.65 -1.291)" fill="#263238"/>
        <path id="Path_4934" data-name="Path 4934" d="M113.262,99.023h17.321a6.982,6.982,0,0,0,6.982-6.982h0a6.982,6.982,0,0,0-6.982-6.982H113.262a6.982,6.982,0,0,0-6.982,6.982h0A6.976,6.976,0,0,0,113.262,99.023Z" transform="translate(-1.625 -1.291)" fill="#3a7ce1"/>
        <path id="Path_4935" data-name="Path 4935" d="M6.982,77.723H132.591a6.982,6.982,0,0,0,6.982-6.982h0a6.982,6.982,0,0,0-6.982-6.982H6.982A6.991,6.991,0,0,0,0,70.751H0A6.974,6.974,0,0,0,6.982,77.723Z" transform="translate(0 -0.965)" fill="#263238"/>
      </g>
    </g>
  </g>
</svg>
