<svg xmlns="http://www.w3.org/2000/svg" width="393" height="117.942" viewBox="0 0 393 117.942">
  <g id="Group_1068" data-name="Group 1068" transform="translate(-283 -119)">
    <g id="Group_1040" data-name="Group 1040" transform="translate(283 119)">
      <g id="Group_848" data-name="Group 848" transform="translate(0 0)">
        <path id="Path_4908" data-name="Path 4908" d="M-2600.823,727.554a20.519,20.519,0,0,1-1.53,7.951,19.884,19.884,0,0,1-4.162,6.369,19.468,19.468,0,0,1-6.173,4.234,18.75,18.75,0,0,1-7.6,1.548,18.667,18.667,0,0,1-7.56-1.548,19.681,19.681,0,0,1-6.19-4.234,19.736,19.736,0,0,1-4.18-6.369,20.51,20.51,0,0,1-1.53-7.951,20.83,20.83,0,0,1,1.53-8.041,19.685,19.685,0,0,1,4.18-6.386,19.436,19.436,0,0,1,6.19-4.216,18.852,18.852,0,0,1,7.56-1.53,19.954,19.954,0,0,1,7.6,1.441,18.351,18.351,0,0,1,6.173,4.091,19.377,19.377,0,0,1,4.162,6.369A21.547,21.547,0,0,1-2600.823,727.554Zm-9.784,0a11.307,11.307,0,0,0-.765-4.252,10.1,10.1,0,0,0-2.081-3.273,9,9,0,0,0-3.077-2.1,9.711,9.711,0,0,0-3.754-.73,9.706,9.706,0,0,0-3.753.73,8.818,8.818,0,0,0-3.059,2.1,10.017,10.017,0,0,0-2.046,3.273,11.558,11.558,0,0,0-.747,4.252,11.015,11.015,0,0,0,.747,4.091,10.27,10.27,0,0,0,2.046,3.273,9.566,9.566,0,0,0,3.059,2.188,8.963,8.963,0,0,0,3.753.8,9.518,9.518,0,0,0,3.754-.747,9.348,9.348,0,0,0,3.077-2.1,9.852,9.852,0,0,0,2.081-3.273A11.342,11.342,0,0,0-2610.607,727.554Z" transform="translate(2639.745 -694.395)" fill="#fff"/>
        <path id="Path_4909" data-name="Path 4909" d="M-2489.635,745.088a26.21,26.21,0,0,1-2.508,2.01,18.865,18.865,0,0,1-2.792,1.636,17.246,17.246,0,0,1-3.678,1.266,10.54,10.54,0,0,1-2.073.242,17.665,17.665,0,0,1-7.022-1.241,16.345,16.345,0,0,1-5.426-3.54,16.334,16.334,0,0,1-3.665-5.586,19.489,19.489,0,0,1-1.334-7.382V716.27a4.839,4.839,0,0,1,4.838-4.839h0a4.839,4.839,0,0,1,4.839,4.839v16.224a9.435,9.435,0,0,0,.587,3.433,7.545,7.545,0,0,0,1.583,2.544,6.616,6.616,0,0,0,2.331,1.565,7.639,7.639,0,0,0,2.864.533,6.047,6.047,0,0,0,2.828-.694,7.935,7.935,0,0,0,2.33-1.832,8.764,8.764,0,0,0,1.566-2.579,8.014,8.014,0,0,0,.57-2.971V716.27a4.839,4.839,0,0,1,4.839-4.839h.035a4.838,4.838,0,0,1,4.838,4.839v31.713a1.552,1.552,0,0,1-1.552,1.553h0a1.553,1.553,0,0,1-1.26-.645Z" transform="translate(2561.929 -696.986)" fill="#fff"/>
        <path id="Path_4910" data-name="Path 4910" d="M-2397.311,686.549V676.161a4.838,4.838,0,0,1,4.839-4.839h0a4.839,4.839,0,0,1,4.839,4.839v10.389h9.891a4.839,4.839,0,0,1,4.839,4.839h0a4.839,4.839,0,0,1-4.839,4.839h-9.891v11.314a7.225,7.225,0,0,0,.569,2.864,7.322,7.322,0,0,0,1.565,2.33,7.518,7.518,0,0,0,2.349,1.583,7.156,7.156,0,0,0,2.882.587h2.526a4.839,4.839,0,0,1,4.839,4.839h0a4.839,4.839,0,0,1-4.839,4.839h-2.526a16.536,16.536,0,0,1-6.618-1.334,17.253,17.253,0,0,1-5.426-3.664,17.25,17.25,0,0,1-3.664-5.426,16.527,16.527,0,0,1-1.334-6.617V696.227" transform="translate(2484.619 -671.322)" fill="#fff"/>
        <path id="Path_4911" data-name="Path 4911" d="M-2309.533,724.582h0a4.892,4.892,0,0,1-4.892-4.892V676.214a4.892,4.892,0,0,1,4.892-4.892h0a4.892,4.892,0,0,1,4.893,4.892V719.69A4.892,4.892,0,0,1-2309.533,724.582Z" transform="translate(2431.583 -671.322)" fill="#fff"/>
        <path id="Path_4912" data-name="Path 4912" d="M-2264.313,725.264h0a4.892,4.892,0,0,1-4.892-4.892v-28.32a4.892,4.892,0,0,1,4.892-4.892h0a4.892,4.892,0,0,1,4.892,4.892v28.32A4.892,4.892,0,0,1-2264.313,725.264Z" transform="translate(2403.548 -672.004)" fill="#fff"/>
        <path id="Path_4913" data-name="Path 4913" d="M-2214.135,750.184h0a4.856,4.856,0,0,1-4.856-4.856V713.691a1.611,1.611,0,0,1,1.612-1.612h0a1.612,1.612,0,0,1,1.219.557l2.72,3.143a17.024,17.024,0,0,1,5.32-3.291,16.965,16.965,0,0,1,6.208-1.156,16.452,16.452,0,0,1,6.582,1.334,17.036,17.036,0,0,1,5.408,3.665,17.346,17.346,0,0,1,3.647,5.444,16.669,16.669,0,0,1,1.333,6.635v16.917a4.856,4.856,0,0,1-4.856,4.856h0a4.857,4.857,0,0,1-4.857-4.856V728.41a7.14,7.14,0,0,0-.569-2.828,7.335,7.335,0,0,0-1.566-2.33,7.381,7.381,0,0,0-2.313-1.565,7,7,0,0,0-2.81-.569,7.345,7.345,0,0,0-2.882.569,7.276,7.276,0,0,0-2.348,1.565,7.3,7.3,0,0,0-1.565,2.33,7.124,7.124,0,0,0-.57,2.828v16.917A4.857,4.857,0,0,1-2214.135,750.184Z" transform="translate(2370.519 -696.924)" fill="#fff"/>
        <path id="Path_4914" data-name="Path 4914" d="M-2093.7,737.592a.027.027,0,0,0,.012.042,5.561,5.561,0,0,0,1.1.22q.569.053,1.138.053a9.554,9.554,0,0,0,2.74-.391,9.9,9.9,0,0,0,2.473-1.121,9.211,9.211,0,0,0,2.064-1.779h0a2.5,2.5,0,0,1,3.665-.131l3.39,3.406a2.451,2.451,0,0,1,.084,3.368,19.12,19.12,0,0,1-1.66,1.629,19.611,19.611,0,0,1-3.807,2.6,19,19,0,0,1-4.3,1.619,19.507,19.507,0,0,1-4.643.552,19.239,19.239,0,0,1-7.56-1.494A19.108,19.108,0,0,1-2105.2,742a19.537,19.537,0,0,1-4.18-6.351,20.9,20.9,0,0,1-1.53-8.094,21.585,21.585,0,0,1,1.53-8.254,19,19,0,0,1,4.18-6.369,18.92,18.92,0,0,1,6.191-4.091,19.647,19.647,0,0,1,7.56-1.459,19.139,19.139,0,0,1,4.661.569,19.557,19.557,0,0,1,4.323,1.636,19.667,19.667,0,0,1,3.825,2.615l.035.031a4.692,4.692,0,0,1,.527,6.533Zm4.188-18.981a.837.837,0,0,0-.553-1.338h-.013a12.738,12.738,0,0,0-1.37-.071,9.709,9.709,0,0,0-3.753.73,8.924,8.924,0,0,0-3.059,2.081,9.82,9.82,0,0,0-2.046,3.255,11.666,11.666,0,0,0-.747,4.288q0,.534.053,1.21t.178,1.369q.125.694.3,1.334a4.977,4.977,0,0,0,.443,1.1.026.026,0,0,0,.044,0Z" transform="translate(2301.363 -694.395)" fill="#fff"/>
        <circle id="Ellipse_206" data-name="Ellipse 206" cx="4.893" cy="4.893" r="4.893" transform="translate(134.34 0)" fill="#3a7ce1"/>
      </g>
    </g>
    <text id="Share_your_knowledge" data-name="Share your knowledge" transform="translate(283 226.942)" fill="#3a7ce1" font-size="38" font-family="Righteous-Regular, Righteous"><tspan x="0" y="0">Share</tspan><tspan y="0" xml:space="preserve" fill="#fff"> your knowledge</tspan></text>
  </g>
</svg>
