<svg xmlns="http://www.w3.org/2000/svg" width="695" height="244.38" viewBox="0 0 695 244.38">
  <g id="Group_880" data-name="Group 880" transform="translate(-26 -862.62)">
    <g id="Group_852" data-name="Group 852" transform="translate(-70.568 494.508)">
      <g id="Group_848" data-name="Group 848" transform="translate(96.568 368.112)">
        <path id="Path_4908" data-name="Path 4908" d="M-2582.188,737.212a30.345,30.345,0,0,1-2.263,11.758,29.4,29.4,0,0,1-6.155,9.418,28.789,28.789,0,0,1-9.128,6.26,27.728,27.728,0,0,1-11.232,2.289,27.6,27.6,0,0,1-11.18-2.289,29.106,29.106,0,0,1-9.154-6.26,29.184,29.184,0,0,1-6.182-9.418,30.327,30.327,0,0,1-2.263-11.758,30.8,30.8,0,0,1,2.263-11.89,29.111,29.111,0,0,1,6.182-9.444,28.741,28.741,0,0,1,9.154-6.235,27.876,27.876,0,0,1,11.18-2.262,29.507,29.507,0,0,1,11.232,2.131,27.136,27.136,0,0,1,9.128,6.05,28.654,28.654,0,0,1,6.155,9.418A31.866,31.866,0,0,1-2582.188,737.212Zm-14.468,0a16.723,16.723,0,0,0-1.131-6.287,14.93,14.93,0,0,0-3.078-4.84,13.307,13.307,0,0,0-4.55-3.1,14.359,14.359,0,0,0-5.551-1.079,14.352,14.352,0,0,0-5.55,1.079,13.044,13.044,0,0,0-4.524,3.1,14.809,14.809,0,0,0-3.026,4.84,17.087,17.087,0,0,0-1.1,6.287,16.285,16.285,0,0,0,1.1,6.05,15.183,15.183,0,0,0,3.026,4.84,14.151,14.151,0,0,0,4.524,3.236,13.255,13.255,0,0,0,5.55,1.184,14.073,14.073,0,0,0,5.551-1.1,13.817,13.817,0,0,0,4.55-3.1,14.566,14.566,0,0,0,3.078-4.84A16.775,16.775,0,0,0-2596.656,737.212Z" transform="translate(2639.745 -688.178)" fill="#fff"/>
        <path id="Path_4909" data-name="Path 4909" d="M-2475.991,761.2a38.794,38.794,0,0,1-3.708,2.973,27.913,27.913,0,0,1-4.13,2.42,25.506,25.506,0,0,1-5.438,1.872,15.58,15.58,0,0,1-3.065.357,26.121,26.121,0,0,1-10.384-1.835,24.173,24.173,0,0,1-8.023-5.235,24.157,24.157,0,0,1-5.419-8.26,28.822,28.822,0,0,1-1.973-10.917V718.586a7.155,7.155,0,0,1,7.155-7.155h0a7.156,7.156,0,0,1,7.155,7.155v23.991a13.948,13.948,0,0,0,.868,5.077,11.161,11.161,0,0,0,2.342,3.762,9.787,9.787,0,0,0,3.446,2.315,11.3,11.3,0,0,0,4.235.789,8.941,8.941,0,0,0,4.183-1.026,11.74,11.74,0,0,0,3.445-2.71,12.972,12.972,0,0,0,2.315-3.814,11.848,11.848,0,0,0,.842-4.393V718.586a7.155,7.155,0,0,1,7.156-7.155h.052a7.155,7.155,0,0,1,7.154,7.155v46.9a2.3,2.3,0,0,1-2.3,2.3h0a2.3,2.3,0,0,1-1.863-.954Z" transform="translate(2582.897 -690.071)" fill="#fff"/>
        <path id="Path_4910" data-name="Path 4910" d="M-2397.311,693.84V678.477a7.155,7.155,0,0,1,7.155-7.155h0a7.155,7.155,0,0,1,7.155,7.155V693.84h14.626a7.155,7.155,0,0,1,7.155,7.155h0a7.155,7.155,0,0,1-7.155,7.155H-2383V724.88a10.685,10.685,0,0,0,.841,4.235,10.834,10.834,0,0,0,2.315,3.446,11.115,11.115,0,0,0,3.473,2.341,10.582,10.582,0,0,0,4.262.868h3.735a7.155,7.155,0,0,1,7.155,7.155h0a7.155,7.155,0,0,1-7.155,7.155h-3.735a24.454,24.454,0,0,1-9.786-1.973,25.517,25.517,0,0,1-8.023-5.418,25.51,25.51,0,0,1-5.418-8.024,24.445,24.445,0,0,1-1.974-9.786V708.15" transform="translate(2526.419 -671.322)" fill="#fff"/>
        <path id="Path_4911" data-name="Path 4911" d="M-2307.191,750.081h0a7.234,7.234,0,0,1-7.233-7.234V678.556a7.234,7.234,0,0,1,7.233-7.234h0a7.234,7.234,0,0,1,7.235,7.234v64.291A7.234,7.234,0,0,1-2307.191,750.081Z" transform="translate(2487.673 -671.322)" fill="#fff"/>
        <path id="Path_4912" data-name="Path 4912" d="M-2261.971,743.506h0a7.234,7.234,0,0,1-7.234-7.234V694.394a7.234,7.234,0,0,1,7.234-7.234h0a7.233,7.233,0,0,1,7.233,7.234v41.879A7.233,7.233,0,0,1-2261.971,743.506Z" transform="translate(2467.865 -664.747)" fill="#fff"/>
        <path id="Path_4913" data-name="Path 4913" d="M-2211.811,768.784h0a7.181,7.181,0,0,1-7.181-7.182V714.821a2.383,2.383,0,0,1,2.383-2.383h0a2.385,2.385,0,0,1,1.8.824l4.021,4.648a25.177,25.177,0,0,1,7.867-4.866,25.089,25.089,0,0,1,9.18-1.71,24.329,24.329,0,0,1,9.733,1.973,25.2,25.2,0,0,1,8,5.419,25.655,25.655,0,0,1,5.393,8.05,24.648,24.648,0,0,1,1.972,9.812V761.6a7.181,7.181,0,0,1-7.181,7.182h0a7.182,7.182,0,0,1-7.182-7.182V736.586a10.553,10.553,0,0,0-.841-4.182,10.843,10.843,0,0,0-2.315-3.446,10.912,10.912,0,0,0-3.42-2.315,10.349,10.349,0,0,0-4.156-.842,10.862,10.862,0,0,0-4.261.842,10.758,10.758,0,0,0-3.472,2.315,10.8,10.8,0,0,0-2.315,3.446,10.538,10.538,0,0,0-.843,4.182V761.6A7.182,7.182,0,0,1-2211.811,768.784Z" transform="translate(2443.063 -690.025)" fill="#fff"/>
        <path id="Path_4914" data-name="Path 4914" d="M-2085.466,752.055a.04.04,0,0,0,.018.062,8.223,8.223,0,0,0,1.628.325q.842.079,1.684.079a14.127,14.127,0,0,0,4.051-.579,14.628,14.628,0,0,0,3.656-1.657,13.608,13.608,0,0,0,3.052-2.63h0a3.7,3.7,0,0,1,5.419-.194l5.012,5.037a3.624,3.624,0,0,1,.125,4.98,28.225,28.225,0,0,1-2.455,2.409,28.99,28.99,0,0,1-5.629,3.84,28.1,28.1,0,0,1-6.366,2.394,28.848,28.848,0,0,1-6.866.816,28.451,28.451,0,0,1-11.179-2.209,28.249,28.249,0,0,1-9.155-6.156,28.9,28.9,0,0,1-6.182-9.391,30.9,30.9,0,0,1-2.262-11.969,31.922,31.922,0,0,1,2.262-12.206,28.108,28.108,0,0,1,6.182-9.418,27.972,27.972,0,0,1,9.155-6.05,29.053,29.053,0,0,1,11.179-2.157,28.3,28.3,0,0,1,6.892.842,28.922,28.922,0,0,1,6.393,2.42,29.092,29.092,0,0,1,5.656,3.867l.052.046a6.939,6.939,0,0,1,.779,9.661Zm6.193-28.068a1.237,1.237,0,0,0-.818-1.978l-.02,0a18.832,18.832,0,0,0-2.025-.105,14.354,14.354,0,0,0-5.55,1.079,13.2,13.2,0,0,0-4.524,3.078,14.524,14.524,0,0,0-3.025,4.814,17.25,17.25,0,0,0-1.1,6.34q0,.789.079,1.789t.263,2.025q.185,1.026.448,1.973a7.358,7.358,0,0,0,.655,1.632.038.038,0,0,0,.064,0Z" transform="translate(2392.542 -688.178)" fill="#fff"/>
        <circle id="Ellipse_206" data-name="Ellipse 206" cx="7.236" cy="7.236" r="7.236" transform="translate(198.657 0)" fill="#3a7ce1"/>
      </g>
    </g>
    <text id="Think_with_strategy_implement_with_experience" data-name="Think with strategy, 
implement with experience" transform="translate(26 1024)" fill="#3a7ce1" font-size="57" font-family="Righteous-Regular, Righteous"><tspan x="0" y="0">Think</tspan><tspan y="0" xml:space="preserve" fill="#fff"> with strategy, </tspan><tspan fill="#fff"><tspan x="0" y="68">implement with experience</tspan></tspan></text>
  </g>
</svg>
