<svg xmlns="http://www.w3.org/2000/svg" width="167.835" height="196.643" viewBox="0 0 167.835 196.643">
  <g id="Group_953" data-name="Group 953" transform="translate(-928 -888.347)">
    <g id="Group_193" data-name="Group 193" transform="translate(928 888.347)">
      <path id="Path_2363" data-name="Path 2363" d="M578.388,1182.233l-51.422,51.422,51.323,51.325a72.758,72.758,0,1,1,.1-102.747Z" transform="translate(-428.547 -1135.236)" fill="#ffecc6"/>
      <path id="Path_2364" data-name="Path 2364" d="M602.728,1203.821a74.725,74.725,0,1,0-.1,105.5l16.714,16.715a98.322,98.322,0,1,1,0-139.027v.1Z" transform="translate(-451.51 -1158.2)" fill="#ffecc6"/>
    </g>
    <g id="Developer_activity-cuate" data-name="Developer activity-cuate" transform="translate(946.724 981.597)">
      <g id="freepik--background-complete--inject-15" transform="translate(2.888 0.062)">
        <rect id="Rectangle_3525" data-name="Rectangle 3525" width="21.43" height="29.655" transform="translate(62.985 58.619)" fill="#ebebeb"/>
        <rect id="Rectangle_3526" data-name="Rectangle 3526" width="23.506" height="1.1" transform="translate(61.945 57.519)" fill="#dbdbdb"/>
        <rect id="Rectangle_3527" data-name="Rectangle 3527" width="7.393" height="1.1" transform="translate(85.451 57.519)" fill="#ebebeb"/>
        <rect id="Rectangle_3528" data-name="Rectangle 3528" width="7.261" height="29.655" transform="translate(84.412 58.619)" fill="#dbdbdb"/>
        <path id="Path_1972" data-name="Path 1972" d="M349.083,315.21H332.26V305.7h16.823Zm-16.757-.061h16.7v-9.377H332.321Z" transform="translate(-266.973 -242.862)" fill="#c7c7c7"/>
        <rect id="Rectangle_3529" data-name="Rectangle 3529" width="3.274" height="1.882" transform="translate(71.351 65.618)" fill="#c7c7c7"/>
        <path id="Path_1973" data-name="Path 1973" d="M364.424,319.269H361.09V317.61h3.334Zm-3.274-.061h3.213v-1.537h-3.213Z" transform="translate(-288.802 -251.88)" fill="#c7c7c7"/>
        <path id="Path_1974" data-name="Path 1974" d="M349.083,364.365H332.26V354.86h16.823Zm-16.757-.061h16.7v-9.384H332.321Z" transform="translate(-266.973 -280.084)" fill="#c7c7c7"/>
        <rect id="Rectangle_3530" data-name="Rectangle 3530" width="3.274" height="1.882" transform="translate(71.351 77.557)" fill="#c7c7c7"/>
        <path id="Path_1975" data-name="Path 1975" d="M364.424,368.429H361.09V366.77h3.334Zm-3.274-.061h3.213v-1.542h-3.213Z" transform="translate(-288.802 -289.101)" fill="#c7c7c7"/>
        <path id="Path_1976" data-name="Path 1976" d="M66.092,102.143a.779.779,0,0,1,.814,0c.068.041.138.083.209.119s.143.075.216.109a.78.78,0,0,1,.454.673l.029,1,3.262-.1-.029-1.008a.763.763,0,0,1,.41-.7c.138-.078.274-.16.406-.243a.784.784,0,0,1,.816-.058l.882.486L75.1,99.547l-.882-.471a.78.78,0,0,1-.4-.712,4.43,4.43,0,0,0-.017-.486.772.772,0,0,1,.355-.729l.855-.532-1.727-2.778-.855.532a.763.763,0,0,1-.8,0l-.221-.126-.226-.114a.758.758,0,0,1-.442-.668l-.032-1-3.254.1.032,1a.765.765,0,0,1-.393.7,4.311,4.311,0,0,0-.442.274.76.76,0,0,1-.8.044l-.882-.471L63.43,96.982l.879.486a.78.78,0,0,1,.406.712c0,.16,0,.318.015.486a.775.775,0,0,1-.355.729l-.855.527,1.722,2.773Zm.67-4.833a2.671,2.671,0,1,1,.935,3.116,2.671,2.671,0,0,1-.935-3.116Z" transform="translate(-63.43 -81.409)" fill="#ebebeb"/>
        <path id="Path_1977" data-name="Path 1977" d="M112.226,61.509a.544.544,0,0,1,.505-.267h.338a.544.544,0,0,1,.5.265l.35.61,1.979-1.144-.35-.607a.549.549,0,0,1,.019-.571,3.213,3.213,0,0,0,.172-.294.542.542,0,0,1,.486-.3h.687V56.914h-.7a.542.542,0,0,1-.486-.3,3.2,3.2,0,0,0-.172-.294.549.549,0,0,1-.019-.571l.35-.607L113.921,54l-.352.612a.544.544,0,0,1-.5.265h-.335a.544.544,0,0,1-.505-.267l-.35-.61-1.982,1.144.352.6a.549.549,0,0,1-.019.571,2.766,2.766,0,0,0-.172.3.544.544,0,0,1-.486.3h-.7V59.2h.7a.544.544,0,0,1,.486.3,2.767,2.767,0,0,0,.172.3.549.549,0,0,1,.019.571l-.352.6,1.982,1.144Zm-1.214-3.451a1.869,1.869,0,1,0,.012,0Z" transform="translate(-97.835 -52.289)" fill="#ebebeb"/>
        <path id="Path_1978" data-name="Path 1978" d="M411.266,241.187l-1.141-1.982-.607.352a.544.544,0,0,1-.568-.019,3.029,3.029,0,0,0-.3-.172.539.539,0,0,1-.3-.486v-.7h-2.288v.7a.541.541,0,0,1-.3.486,2.756,2.756,0,0,0-.3.172.549.549,0,0,1-.571.019l-.607-.352-1.141,1.982.61.35a.542.542,0,0,1,.265.505q0,.084,0,.168v.168a.542.542,0,0,1-.265.5l-.61.357,1.141,1.979.61-.35a.544.544,0,0,1,.568.019,3.263,3.263,0,0,0,.3.172.541.541,0,0,1,.3.486v.7h2.288v-.7a.542.542,0,0,1,.3-.486,3.256,3.256,0,0,0,.3-.172.549.549,0,0,1,.571-.019l.607.35,1.141-1.979-.607-.35a.542.542,0,0,1-.265-.5v-.338a.542.542,0,0,1,.265-.505Zm-2.186,1.022a1.872,1.872,0,1,1-1.872-1.872A1.872,1.872,0,0,1,409.081,242.209Z" transform="translate(-320.647 -191.74)" fill="#ebebeb"/>
        <path id="Path_1979" data-name="Path 1979" d="M267.919,48.424a1.806,1.806,0,0,1,.287-1,.884.884,0,0,1,1.557,0,1.943,1.943,0,0,1,0,2.006.971.971,0,0,1-.777.466.954.954,0,0,1-.78-.466A1.806,1.806,0,0,1,267.919,48.424Zm1.659,0a1.4,1.4,0,0,0-.2-.746.486.486,0,0,0-.391-.257.508.508,0,0,0-.4.257,1.375,1.375,0,0,0-.2.746,1.36,1.36,0,0,0,.2.743.5.5,0,0,0,.4.26.486.486,0,0,0,.391-.26,1.382,1.382,0,0,0,.2-.743Z" transform="translate(-218.258 -46.956)" fill="#ebebeb"/>
        <path id="Path_1980" data-name="Path 1980" d="M280.566,47.273v2.475a.243.243,0,0,1-.243.231.226.226,0,0,1-.243-.231V47.683l-.168.1a.219.219,0,0,1-.119.032.228.228,0,0,1-.2-.117.221.221,0,0,1,.075-.313l.517-.308h.063a.024.024,0,0,1,.017,0h.092a.037.037,0,0,1,.024,0h.017c.012,0,.017.015.024.015h.017s.014,0,.017.012,0,0,.017.017a.031.031,0,0,1,.012.017l.017.017h0v.1Z" transform="translate(-227.072 -47.043)" fill="#ebebeb"/>
        <path id="Path_1981" data-name="Path 1981" d="M286.394,47.273v2.475a.243.243,0,0,1-.243.231.226.226,0,0,1-.231-.231V47.683l-.168.1a.219.219,0,0,1-.119.032.226.226,0,0,1-.2-.117.221.221,0,0,1,.075-.313l.52-.308h.063a.024.024,0,0,1,.017,0h.092a.037.037,0,0,1,.024,0h.017c.012,0,.017.015.024.015h.017l.017.012s.012,0,.017.017a.032.032,0,0,1,.012.017l.017.017h0v.1Z" transform="translate(-231.494 -47.043)" fill="#ebebeb"/>
        <path id="Path_1982" data-name="Path 1982" d="M292.25,47.273v2.475a.243.243,0,0,1-.243.231.226.226,0,0,1-.231-.231V47.683l-.168.1a.219.219,0,0,1-.119.032.243.243,0,0,1-.121-.43l.517-.308h.172a.037.037,0,0,1,.024,0h.017c.012,0,.017.015.024.015h.017l.017.012s.012,0,.017.017a.048.048,0,0,1,.012.017l.017.017h0v.034a.1.1,0,0,1,0,.022.109.109,0,0,0,0,.019v.029Z" transform="translate(-235.944 -47.043)" fill="#ebebeb"/>
        <path id="Path_1983" data-name="Path 1983" d="M297.469,48.424a1.807,1.807,0,0,1,.287-1,.884.884,0,0,1,1.557,0,1.926,1.926,0,0,1,0,2.006.971.971,0,0,1-.777.466.954.954,0,0,1-.78-.466A1.807,1.807,0,0,1,297.469,48.424Zm1.659,0a1.4,1.4,0,0,0-.2-.746.486.486,0,0,0-.391-.257.508.508,0,0,0-.4.257,1.4,1.4,0,0,0-.2.746,1.381,1.381,0,0,0,.2.743.505.505,0,0,0,.4.26.486.486,0,0,0,.391-.26,1.381,1.381,0,0,0,.2-.743Z" transform="translate(-240.631 -46.956)" fill="#ebebeb"/>
        <path id="Path_1984" data-name="Path 1984" d="M309.739,48.457a1.807,1.807,0,0,1,.287-1A.942.942,0,0,1,310.8,47a.954.954,0,0,1,.777.464,1.926,1.926,0,0,1,0,2.006.971.971,0,0,1-.777.466.95.95,0,0,1-.78-.466A1.807,1.807,0,0,1,309.739,48.457Zm1.659,0a1.4,1.4,0,0,0-.2-.746.486.486,0,0,0-.391-.257.507.507,0,0,0-.4.257,1.374,1.374,0,0,0-.2.746,1.359,1.359,0,0,0,.2.743.5.5,0,0,0,.4.26.486.486,0,0,0,.391-.26A1.382,1.382,0,0,0,311.4,48.457Z" transform="translate(-249.921 -46.989)" fill="#ebebeb"/>
        <path id="Path_1985" data-name="Path 1985" d="M322,48.457a1.806,1.806,0,0,1,.287-1,.942.942,0,0,1,.782-.454.954.954,0,0,1,.777.464,1.926,1.926,0,0,1,0,2.006.971.971,0,0,1-.777.444.95.95,0,0,1-.78-.466A1.807,1.807,0,0,1,322,48.457Zm1.659,0a1.4,1.4,0,0,0-.2-.746.486.486,0,0,0-.391-.257.508.508,0,0,0-.4.257,1.374,1.374,0,0,0-.2.746,1.36,1.36,0,0,0,.2.743.505.505,0,0,0,.4.26.486.486,0,0,0,.391-.262,1.381,1.381,0,0,0,.2-.741Z" transform="translate(-259.204 -46.989)" fill="#ebebeb"/>
        <path id="Path_1986" data-name="Path 1986" d="M334.694,47.273v2.475a.243.243,0,0,1-.243.231.228.228,0,0,1-.231-.231V47.683l-.168.1a.217.217,0,0,1-.117.032.228.228,0,0,1-.2-.117.221.221,0,0,1,.075-.313l.517-.308h.063a.024.024,0,0,1,.017,0h.092a.037.037,0,0,1,.024,0h.017c.012,0,.017.015.027.015h.015s.015,0,.017.012.012,0,.017.017a.032.032,0,0,1,.012.017.107.107,0,0,1,.017.017h0v.1Z" transform="translate(-268.064 -47.043)" fill="#ebebeb"/>
        <path id="Path_1987" data-name="Path 1987" d="M340,48.424a1.807,1.807,0,0,1,.287-1,.884.884,0,0,1,1.557,0,1.926,1.926,0,0,1,0,2.006.971.971,0,0,1-.777.466.954.954,0,0,1-.78-.466,1.807,1.807,0,0,1-.287-1Zm1.659,0a1.4,1.4,0,0,0-.2-.746.486.486,0,0,0-.391-.257.51.51,0,0,0-.4.257,1.4,1.4,0,0,0-.206.746,1.382,1.382,0,0,0,.2.743.508.508,0,0,0,.4.26.486.486,0,0,0,.4-.262,1.382,1.382,0,0,0,.2-.741Z" transform="translate(-272.833 -46.956)" fill="#ebebeb"/>
        <path id="Path_1988" data-name="Path 1988" d="M268.466,67.965v2.477a.243.243,0,0,1-.243.243.226.226,0,0,1-.231-.243V68.378l-.168.095a.2.2,0,0,1-.119.034.228.228,0,0,1-.2-.117.226.226,0,0,1,.075-.316l.517-.306h.017s0,0,.019-.015h.027a.024.024,0,0,1,.017,0,.055.055,0,0,1,.029,0h.046a.024.024,0,0,0,.017,0,.058.058,0,0,1,.024,0,.024.024,0,0,1,.017,0h.024l.017.015h.017s.012,0,.017.017a.025.025,0,0,1,.012.017l.017.015h0v.092Z" transform="translate(-217.921 -62.701)" fill="#ebebeb"/>
        <path id="Path_1989" data-name="Path 1989" d="M273.749,69.154a1.807,1.807,0,0,1,.287-1,.884.884,0,0,1,1.557,0,1.926,1.926,0,0,1,0,2.006.971.971,0,0,1-.777.466.954.954,0,0,1-.78-.466A1.812,1.812,0,0,1,273.749,69.154Zm1.659,0a1.4,1.4,0,0,0-.2-.746.486.486,0,0,0-.391-.257.505.505,0,0,0-.4.257,1.474,1.474,0,0,0,0,1.489.515.515,0,0,0,.4.26.486.486,0,0,0,.391-.26A1.387,1.387,0,0,0,275.408,69.154Z" transform="translate(-222.672 -62.651)" fill="#ebebeb"/>
        <path id="Path_1990" data-name="Path 1990" d="M286.438,67.966v2.477a.243.243,0,0,1-.243.243.228.228,0,0,1-.231-.243V68.379l-.168.095a.2.2,0,0,1-.117.034.233.233,0,0,1-.121-.432l.515-.306h.017s.012,0,.022-.015h.024a.024.024,0,0,1,.017,0,.061.061,0,0,1,.029,0h.046a.024.024,0,0,0,.017,0,.058.058,0,0,1,.024,0h.044a.034.034,0,0,0,.017.015h.017a.047.047,0,0,1,.015.017.034.034,0,0,1,.015.017l.017.015h0a.04.04,0,0,1,0,.022v.019a.145.145,0,0,0,0,.022.038.038,0,0,0,0,.029Z" transform="translate(-231.529 -62.702)" fill="#ebebeb"/>
        <path id="Path_1991" data-name="Path 1991" d="M291.719,69.154a1.807,1.807,0,0,1,.287-1,.884.884,0,0,1,1.557,0,1.926,1.926,0,0,1,0,2.006.884.884,0,0,1-1.557,0A1.813,1.813,0,0,1,291.719,69.154Zm1.659,0a1.373,1.373,0,0,0-.2-.746.486.486,0,0,0-.391-.257.5.5,0,0,0-.4.257,1.474,1.474,0,0,0,0,1.489.515.515,0,0,0,.4.26.486.486,0,0,0,.391-.26A1.367,1.367,0,0,0,293.378,69.154Z" transform="translate(-236.278 -62.651)" fill="#ebebeb"/>
        <path id="Path_1992" data-name="Path 1992" d="M304,69.154a1.808,1.808,0,0,1,.287-1,.884.884,0,0,1,1.557,0,1.926,1.926,0,0,1,0,2.006.884.884,0,0,1-1.557,0A1.812,1.812,0,0,1,304,69.154Zm1.659,0a1.4,1.4,0,0,0-.2-.746.486.486,0,0,0-.391-.257.505.505,0,0,0-.4.257,1.474,1.474,0,0,0,0,1.489.515.515,0,0,0,.4.26.485.485,0,0,0,.391-.26,1.387,1.387,0,0,0,.2-.743Z" transform="translate(-245.575 -62.651)" fill="#ebebeb"/>
        <path id="Path_1993" data-name="Path 1993" d="M316.259,69.154a1.807,1.807,0,0,1,.287-1,.884.884,0,0,1,1.557,0,1.926,1.926,0,0,1,0,2.006.884.884,0,0,1-1.557,0A1.812,1.812,0,0,1,316.259,69.154Zm1.659,0a1.4,1.4,0,0,0-.2-.746.486.486,0,0,0-.391-.257.505.505,0,0,0-.4.257,1.474,1.474,0,0,0,0,1.489.515.515,0,0,0,.4.26.486.486,0,0,0,.391-.26A1.387,1.387,0,0,0,317.918,69.154Z" transform="translate(-254.858 -62.651)" fill="#ebebeb"/>
        <path id="Path_1994" data-name="Path 1994" d="M328.931,67.966v2.477a.243.243,0,0,1-.243.243.228.228,0,0,1-.243-.243V68.379l-.168.095a.2.2,0,0,1-.117.034.243.243,0,0,1-.121-.432l.515-.306h.017s.012,0,.022-.015h.024a.026.026,0,0,1,.017,0,.066.066,0,0,1,.029,0h.046a.027.027,0,0,0,.017,0,.085.085,0,0,1,.027,0,.027.027,0,0,1,.017,0h.024a.053.053,0,0,0,.017.015h.017a.112.112,0,0,1,.017.017.06.06,0,0,1,.012.017l.017.015h0v.041a.145.145,0,0,0,0,.022.039.039,0,0,0,0,.029Z" transform="translate(-263.708 -62.702)" fill="#ebebeb"/>
        <path id="Path_1995" data-name="Path 1995" d="M334.239,69.145a1.786,1.786,0,0,1,.284-1,.882.882,0,0,1,1.557,0,1.926,1.926,0,0,1,0,2.006.882.882,0,0,1-1.557,0A1.79,1.79,0,0,1,334.239,69.145Zm1.656,0a1.376,1.376,0,0,0-.2-.746.486.486,0,0,0-.389-.257.5.5,0,0,0-.4.257,1.474,1.474,0,0,0,0,1.489.508.508,0,0,0,.4.26.486.486,0,0,0,.389-.26A1.367,1.367,0,0,0,335.9,69.145Z" transform="translate(-268.471 -62.643)" fill="#ebebeb"/>
        <path id="Path_1996" data-name="Path 1996" d="M346.906,67.966v2.477a.243.243,0,0,1-.243.243.226.226,0,0,1-.231-.243V68.379l-.168.095a.2.2,0,0,1-.119.034.221.221,0,0,1-.2-.117.226.226,0,0,1,.075-.316l.517-.306h.017s.012,0,.019-.015h.041a.073.073,0,0,1,.032,0h.087a.024.024,0,0,1,.017,0h.024l.017.015h.017l.017.017.012.017.017.015h0v.041a.154.154,0,0,0,0,.022v.029Z" transform="translate(-277.311 -62.702)" fill="#ebebeb"/>
        <path id="Path_1997" data-name="Path 1997" d="M268,89.893a1.8,1.8,0,0,1,.287-1,.884.884,0,0,1,1.557,0,1.926,1.926,0,0,1,0,2.006.971.971,0,0,1-.777.466.954.954,0,0,1-.78-.466A1.817,1.817,0,0,1,268,89.893Zm1.659,0a1.406,1.406,0,0,0-.2-.748.486.486,0,0,0-.391-.243.507.507,0,0,0-.4.243,1.406,1.406,0,0,0-.2.748,1.386,1.386,0,0,0,.2.743.515.515,0,0,0,.4.26.486.486,0,0,0,.391-.26,1.386,1.386,0,0,0,.192-.743Z" transform="translate(-218.318 -78.354)" fill="#ebebeb"/>
        <path id="Path_1998" data-name="Path 1998" d="M280.229,89.893a1.8,1.8,0,0,1,.287-1,.884.884,0,0,1,1.557,0,1.926,1.926,0,0,1,0,2.006.972.972,0,0,1-.777.466.954.954,0,0,1-.78-.466A1.817,1.817,0,0,1,280.229,89.893Zm1.659,0a1.406,1.406,0,0,0-.2-.748.486.486,0,0,0-.391-.243.508.508,0,0,0-.4.243,1.406,1.406,0,0,0-.2.748,1.387,1.387,0,0,0,.2.743.515.515,0,0,0,.4.26.486.486,0,0,0,.391-.26A1.387,1.387,0,0,0,281.888,89.893Z" transform="translate(-227.578 -78.354)" fill="#ebebeb"/>
        <path id="Path_1999" data-name="Path 1999" d="M292.931,88.752v2.477a.243.243,0,0,1-.243.243.228.228,0,0,1-.243-.243V89.162l-.168.1a.2.2,0,0,1-.117.034.243.243,0,0,1-.121-.432l.515-.306h.063a.024.024,0,0,1,.017,0,.066.066,0,0,1,.029,0h.046a.024.024,0,0,0,.017,0,.059.059,0,0,1,.024,0h.017s.017.012.027.012a.024.024,0,0,0,.017,0l.017.015c.017.015.012,0,.015.015l.015.017a.055.055,0,0,0,.017.017h0a.034.034,0,0,1,0,.022v.019a.154.154,0,0,0,0,.022.041.041,0,0,0,0,.029Z" transform="translate(-236.45 -78.451)" fill="#ebebeb"/>
        <path id="Path_2000" data-name="Path 2000" d="M298.209,89.885a1.78,1.78,0,0,1,.284-1,.882.882,0,0,1,1.557,0,1.926,1.926,0,0,1,0,2.006.882.882,0,0,1-1.557,0A1.8,1.8,0,0,1,298.209,89.885Zm1.656,0a1.384,1.384,0,0,0-.2-.748.486.486,0,0,0-.389-.243.508.508,0,0,0-.4.243,1.406,1.406,0,0,0-.2.748,1.386,1.386,0,0,0,.2.743.515.515,0,0,0,.4.26.486.486,0,0,0,.389-.26,1.367,1.367,0,0,0,.194-.743Z" transform="translate(-241.191 -78.346)" fill="#ebebeb"/>
        <path id="Path_2001" data-name="Path 2001" d="M310.469,89.894a1.8,1.8,0,0,1,.287-1,.884.884,0,0,1,1.557,0,1.926,1.926,0,0,1,0,2.006.884.884,0,0,1-1.557,0A1.817,1.817,0,0,1,310.469,89.894Zm1.659,0a1.385,1.385,0,0,0-.2-.748.486.486,0,0,0-.391-.243.508.508,0,0,0-.4.243,1.406,1.406,0,0,0-.2.748,1.386,1.386,0,0,0,.2.743.515.515,0,0,0,.4.26.486.486,0,0,0,.391-.26A1.367,1.367,0,0,0,312.128,89.894Z" transform="translate(-250.474 -78.354)" fill="#ebebeb"/>
        <path id="Path_2002" data-name="Path 2002" d="M323.181,88.752v2.477a.243.243,0,1,1-.486,0V89.162l-.168.1a.192.192,0,0,1-.117.034.243.243,0,0,1-.121-.432l.515-.306h.063a.027.027,0,0,1,.017,0,.066.066,0,0,1,.029,0h.046a.027.027,0,0,0,.017,0,.084.084,0,0,1,.027,0,.027.027,0,0,1,.017,0c.012,0,.015.012.024.012a.031.031,0,0,0,.017,0l.017.015.017.015v.017a.108.108,0,0,0,.017.017h0a.038.038,0,0,1,0,.022s0,.015,0,.019a.163.163,0,0,0,0,.022.041.041,0,0,0,0,.029Z" transform="translate(-259.354 -78.451)" fill="#ebebeb"/>
        <path id="Path_2003" data-name="Path 2003" d="M328.931,88.752v2.477a.243.243,0,0,1-.486,0V89.162l-.168.1a.2.2,0,0,1-.117.034.243.243,0,0,1-.121-.432l.515-.306h.063a.026.026,0,0,1,.017,0,.066.066,0,0,1,.029,0h.046a.027.027,0,0,0,.017,0,.085.085,0,0,1,.027,0,.027.027,0,0,1,.017,0c.012,0,.015.012.024.012a.031.031,0,0,0,.017,0l.017.015a.019.019,0,0,1,.017.015l.012.017.017.017h0a.037.037,0,0,1,0,.022s0,.015,0,.019a.145.145,0,0,0,0,.022.042.042,0,0,0,0,.029Z" transform="translate(-263.708 -78.451)" fill="#ebebeb"/>
        <path id="Path_2004" data-name="Path 2004" d="M334.239,89.885a1.78,1.78,0,0,1,.284-1,.882.882,0,0,1,1.557,0,1.926,1.926,0,0,1,0,2.006.882.882,0,0,1-1.557,0A1.8,1.8,0,0,1,334.239,89.885Zm1.656,0a1.384,1.384,0,0,0-.2-.748.486.486,0,0,0-.389-.243.5.5,0,0,0-.4.243,1.384,1.384,0,0,0-.2.748,1.368,1.368,0,0,0,.2.743.508.508,0,0,0,.4.26.486.486,0,0,0,.389-.26A1.367,1.367,0,0,0,335.895,89.885Z" transform="translate(-268.471 -78.346)" fill="#ebebeb"/>
        <path id="Path_2005" data-name="Path 2005" d="M346.9,88.751v2.477a.243.243,0,0,1-.243.243.228.228,0,0,1-.231-.243V89.162l-.168.1a.2.2,0,0,1-.119.034.221.221,0,0,1-.2-.117.223.223,0,0,1,.075-.316l.517-.306h.078a.073.073,0,0,1,.032,0h.087a.024.024,0,0,1,.017,0c.012,0,.017.012.024.012a.043.043,0,0,0,.017,0l.017.015a.019.019,0,0,1,.017.015l.012.017a.117.117,0,0,0,.017.017h0a.036.036,0,0,1,0,.022.094.094,0,0,1,0,.019.169.169,0,0,0,0,.022.034.034,0,0,0,0,.029Z" transform="translate(-277.308 -78.451)" fill="#ebebeb"/>
      </g>
      <g id="freepik--Floor--inject-15" transform="translate(0 88.225)">
        <path id="Path_2006" data-name="Path 2006" d="M51.54,410.1l12.05-.061,12.048-.022,24.1-.039,24.1.039,12.048.022,12.05.061-12.05.058-12.048.022-24.1.041-24.1-.041L63.59,410.16Z" transform="translate(-51.54 -409.98)" fill="#263238"/>
      </g>
      <g id="freepik--Shadow--inject-15" transform="translate(1.817 95.151)">
        <ellipse id="Ellipse_59" data-name="Ellipse 59" cx="10.754" cy="2.064" rx="10.754" ry="2.064" transform="translate(0 2.22)" fill="#ebebeb"/>
        <ellipse id="Ellipse_60" data-name="Ellipse 60" cx="42.019" cy="4.121" rx="42.019" ry="4.121" transform="translate(8.726)" fill="#ebebeb"/>
      </g>
      <g id="freepik--Character--inject-15" transform="translate(1.265 19.567)">
        <path id="Path_2007" data-name="Path 2007" d="M181.38,314.51l.675,4.051,4.575,24.7h.736l-3.325-24.7-.493-4.051Z" transform="translate(-151.113 -269.038)" fill="#c7c7c7"/>
        <path id="Path_2008" data-name="Path 2008" d="M183.549,314.51H181.38l.675,4.051h1.987Z" transform="translate(-151.113 -269.038)" fill="#a6a6a6"/>
        <path id="Path_2009" data-name="Path 2009" d="M122.24,343.259h.738l4.573-24.7.675-4.051h-2.169l-.491,4.051Z" transform="translate(-106.335 -269.038)" fill="#c7c7c7"/>
        <path id="Path_2010" data-name="Path 2010" d="M136.431,314.51l-.491,4.051h1.984l.675-4.051Z" transform="translate(-116.708 -269.038)" fill="#a6a6a6"/>
        <path id="Path_2011" data-name="Path 2011" d="M65.75,343.259h.738l4.573-24.7.675-4.051H69.568l-.491,4.051Z" transform="translate(-63.564 -269.038)" fill="#c7c7c7"/>
        <path id="Path_2012" data-name="Path 2012" d="M79.45,318.561h1.984l.675-4.051H79.941Z" transform="translate(-73.937 -269.038)" fill="#a6a6a6"/>
        <path id="Path_2013" data-name="Path 2013" d="M60.106,197.224H93.62v-3.531H81.074l-6.533-36.6H56.75Z" transform="translate(-56.75 -149.848)" fill="#c7c7c7"/>
        <path id="Path_2014" data-name="Path 2014" d="M70.766,307.81h33.371v3.531H70.64Z" transform="translate(-67.267 -263.965)" fill="#dbdbdb"/>
        <path id="Path_2015" data-name="Path 2015" d="M60.106,197.224h1.826L58.491,157.09H56.75Z" transform="translate(-56.75 -149.848)" fill="#dbdbdb"/>
        <path id="Path_2024" data-name="Path 2024" d="M251.249,411.719c-1.717-.126-3.434-.17-5.153-.211s-3.441-.061-5.161-.041c-.971,0-1.943.066-2.914.08a.024.024,0,1,0,0,.046c.865.019,1.729.085,2.6.107s1.7.044,2.557.058c1.719.029,3.439.036,5.158.056q1.457.018,2.914-.032a.032.032,0,1,0,0-.063Z" transform="translate(-193.974 -342.442)" fill="#263238"/>
        <path id="Path_2039" data-name="Path 2039" d="M250.29,137.061a3.831,3.831,0,0,1,.828-.593,3.772,3.772,0,0,1,.942-.379A4.228,4.228,0,0,1,250.29,137.061Z" transform="translate(-203.288 -133.948)" fill="#263238"/>
        <path id="Path_2040" data-name="Path 2040" d="M244.26,129.206a3.835,3.835,0,0,1,.165-1,3.736,3.736,0,0,1,.4-.933,3.7,3.7,0,0,1-.165,1A3.805,3.805,0,0,1,244.26,129.206Z" transform="translate(-198.722 -127.27)" fill="#263238"/>
        <path id="Path_2041" data-name="Path 2041" d="M233.531,130.568a4.272,4.272,0,0,1-.971-1.768,3.747,3.747,0,0,1,.59.826A3.81,3.81,0,0,1,233.531,130.568Z" transform="translate(-189.863 -128.428)" fill="#263238"/>
        <path id="Path_2042" data-name="Path 2042" d="M225.676,140.356a3.818,3.818,0,0,1-1-.165,3.722,3.722,0,0,1-.935-.4,4.275,4.275,0,0,1,1.943.566Z" transform="translate(-183.185 -136.749)" fill="#263238"/>
        <path id="Path_2044" data-name="Path 2044" d="M251.14,147.78a4.3,4.3,0,0,1,1.943.566,4.259,4.259,0,0,1-1.943-.566Z" transform="translate(-203.931 -142.799)" fill="#263238"/>
      </g>
      <g id="freepik--Desk--inject-15" transform="translate(6.603 51.85)">
        <rect id="Rectangle_3531" data-name="Rectangle 3531" width="87.074" height="3.096" fill="#263238"/>
        <rect id="Rectangle_3532" data-name="Rectangle 3532" width="87.074" height="1.209" transform="translate(0 1.887)" fill="#455a64"/>
        <path id="Path_2087" data-name="Path 2087" d="M87.691,316.4H86.44l3.643-43.447h3.194Z" transform="translate(-84.568 -269.854)" fill="#455a64"/>
        <path id="Path_2088" data-name="Path 2088" d="M103.876,272.95l-.374,2.907H100.44l.243-2.907Z" transform="translate(-95.168 -269.854)" fill="#263238"/>
        <path id="Path_2089" data-name="Path 2089" d="M407,316.4h1.251L404.6,272.95H401.41Z" transform="translate(-323.045 -269.854)" fill="#455a64"/>
        <path id="Path_2090" data-name="Path 2090" d="M401.41,272.95l.374,2.907h3.062l-.243-2.907Z" transform="translate(-323.045 -269.854)" fill="#263238"/>
      </g>
      <g id="freepik--Windows--inject-15" transform="translate(22.675 0)">
        <rect id="Rectangle_3533" data-name="Rectangle 3533" width="25.816" height="18.518" transform="translate(45.45 2.205)" fill="#fff"/>
        <path id="Path_2091" data-name="Path 2091" d="M357.747,74.169H331.81V55.53h25.937Zm-25.816-.121h25.694v-18.4H331.931Z" transform="translate(-286.42 -53.386)" fill="#ebebeb"/>
        <rect id="Rectangle_3534" data-name="Rectangle 3534" width="25.816" height="2.259" transform="translate(45.45 2.205)" fill="#fec144"/>
        <path id="Path_2092" data-name="Path 2092" d="M357.747,57.91H331.81V55.53h25.937Zm-25.816-.121h25.694V55.644H331.931Z" transform="translate(-286.42 -53.386)" fill="#ebebeb"/>
        <path id="Path_2093" data-name="Path 2093" d="M337.247,58.728a.568.568,0,1,1-.568-.568A.568.568,0,0,1,337.247,58.728Z" transform="translate(-289.676 -55.377)" fill="#263238"/>
        <path id="Path_2094" data-name="Path 2094" d="M346.807,58.728a.568.568,0,1,1-.167-.4A.568.568,0,0,1,346.807,58.728Z" transform="translate(-296.914 -55.377)" fill="#ebebeb"/>
        <path id="Path_2095" data-name="Path 2095" d="M356.367,58.728a.568.568,0,1,1-.568-.568A.568.568,0,0,1,356.367,58.728Z" transform="translate(-304.153 -55.377)" fill="#455a64"/>
        <rect id="Rectangle_3535" data-name="Rectangle 3535" width="25.816" height="0.243" transform="translate(45.45 4.342)" fill="#ebebeb"/>
        <rect id="Rectangle_3536" data-name="Rectangle 3536" width="0.831" height="0.304" transform="translate(47.806 8.009)" fill="#ebebeb"/>
        <rect id="Rectangle_3537" data-name="Rectangle 3537" width="10.266" height="0.304" transform="translate(49.239 8.009)" fill="#ebebeb"/>
        <rect id="Rectangle_3538" data-name="Rectangle 3538" width="1.819" height="0.304" transform="translate(60.015 8.009)" fill="#fec144"/>
        <rect id="Rectangle_3539" data-name="Rectangle 3539" width="1.576" height="0.304" transform="translate(62.781 12.063)" fill="#ebebeb"/>
        <rect id="Rectangle_3540" data-name="Rectangle 3540" width="5.311" height="0.304" transform="translate(62.176 8.009)" fill="#a6a6a6"/>
        <rect id="Rectangle_3541" data-name="Rectangle 3541" width="0.831" height="0.304" transform="translate(48.634 8.818)" fill="#ebebeb"/>
        <rect id="Rectangle_3542" data-name="Rectangle 3542" width="8.187" height="0.304" transform="translate(50.048 8.818)" fill="#a6a6a6"/>
        <rect id="Rectangle_3543" data-name="Rectangle 3543" width="2.606" height="0.304" transform="translate(59.801 12.063)" fill="#a6a6a6"/>
        <rect id="Rectangle_3544" data-name="Rectangle 3544" width="5.965" height="0.304" transform="translate(49.239 11.252)" fill="#a6a6a6"/>
        <rect id="Rectangle_3545" data-name="Rectangle 3545" width="4.184" height="0.304" transform="translate(50.048 9.629)" fill="#fec144"/>
        <rect id="Rectangle_3546" data-name="Rectangle 3546" width="4.184" height="0.304" transform="translate(61.311 10.44)" fill="#a6a6a6"/>
        <rect id="Rectangle_3547" data-name="Rectangle 3547" width="7.674" height="0.304" transform="translate(54.698 9.629)" fill="#a6a6a6"/>
        <rect id="Rectangle_3548" data-name="Rectangle 3548" width="10.02" height="0.304" transform="translate(49.239 12.063)" fill="#fec144"/>
        <rect id="Rectangle_3549" data-name="Rectangle 3549" width="6.912" height="0.304" transform="translate(62.001 8.818)" fill="#fec144"/>
        <rect id="Rectangle_3550" data-name="Rectangle 3550" width="3.031" height="0.304" transform="translate(58.628 8.818)" fill="#ebebeb"/>
        <rect id="Rectangle_3551" data-name="Rectangle 3551" width="2.686" height="0.304" transform="translate(65.275 9.629)" fill="#ebebeb"/>
        <rect id="Rectangle_3552" data-name="Rectangle 3552" width="0.831" height="0.304" transform="translate(48.634 9.629)" fill="#ebebeb"/>
        <rect id="Rectangle_3553" data-name="Rectangle 3553" width="0.831" height="0.304" transform="translate(47.806 10.44)" fill="#a6a6a6"/>
        <rect id="Rectangle_3554" data-name="Rectangle 3554" width="4.903" height="0.304" transform="translate(49.239 10.44)" fill="#ebebeb"/>
        <rect id="Rectangle_3555" data-name="Rectangle 3555" width="4.903" height="0.304" transform="translate(50.048 12.874)" fill="#ebebeb"/>
        <rect id="Rectangle_3556" data-name="Rectangle 3556" width="6.557" height="0.304" transform="translate(59.939 13.685)" fill="#fec144"/>
        <rect id="Rectangle_3557" data-name="Rectangle 3557" width="5.666" height="0.304" transform="translate(55.349 12.874)" fill="#fec144"/>
        <rect id="Rectangle_3558" data-name="Rectangle 3558" width="5.03" height="0.304" transform="translate(54.482 13.685)" fill="#ebebeb"/>
        <rect id="Rectangle_3559" data-name="Rectangle 3559" width="1.418" height="0.304" transform="translate(50.048 13.685)" fill="#a6a6a6"/>
        <rect id="Rectangle_3560" data-name="Rectangle 3560" width="6.292" height="0.304" transform="translate(55.541 11.252)" fill="#ebebeb"/>
        <rect id="Rectangle_3561" data-name="Rectangle 3561" width="5.96" height="0.304" transform="translate(62.176 11.252)" fill="#fec144"/>
        <rect id="Rectangle_3562" data-name="Rectangle 3562" width="6.042" height="0.304" transform="translate(54.64 10.44)" fill="#fec144"/>
        <rect id="Rectangle_3563" data-name="Rectangle 3563" width="0.831" height="0.304" transform="translate(47.806 11.252)" fill="#ebebeb"/>
        <rect id="Rectangle_3564" data-name="Rectangle 3564" width="0.831" height="0.304" transform="translate(47.806 12.063)" fill="#ebebeb"/>
        <rect id="Rectangle_3565" data-name="Rectangle 3565" width="0.831" height="0.304" transform="translate(48.634 12.874)" fill="#a6a6a6"/>
        <rect id="Rectangle_3566" data-name="Rectangle 3566" width="0.831" height="0.304" transform="translate(48.634 13.685)" fill="#ebebeb"/>
        <rect id="Rectangle_3567" data-name="Rectangle 3567" width="0.831" height="0.304" transform="translate(47.806 14.365)" fill="#ebebeb"/>
        <rect id="Rectangle_3568" data-name="Rectangle 3568" width="11.669" height="0.304" transform="translate(49.239 14.365)" fill="#ebebeb"/>
        <rect id="Rectangle_3569" data-name="Rectangle 3569" width="0.831" height="0.304" transform="translate(48.634 15.174)" fill="#ebebeb"/>
        <rect id="Rectangle_3570" data-name="Rectangle 3570" width="8.187" height="0.304" transform="translate(50.048 15.174)" fill="#a6a6a6"/>
        <rect id="Rectangle_3571" data-name="Rectangle 3571" width="5.965" height="0.304" transform="translate(49.239 17.607)" fill="#a6a6a6"/>
        <rect id="Rectangle_3572" data-name="Rectangle 3572" width="4.184" height="0.304" transform="translate(50.048 15.985)" fill="#fec144"/>
        <rect id="Rectangle_3573" data-name="Rectangle 3573" width="7.674" height="0.304" transform="translate(54.698 15.985)" fill="#a6a6a6"/>
        <rect id="Rectangle_3574" data-name="Rectangle 3574" width="10.02" height="0.304" transform="translate(49.239 18.418)" fill="#fec144"/>
        <rect id="Rectangle_3575" data-name="Rectangle 3575" width="6.912" height="0.304" transform="translate(62.001 15.174)" fill="#fec144"/>
        <rect id="Rectangle_3576" data-name="Rectangle 3576" width="3.031" height="0.304" transform="translate(58.628 15.174)" fill="#ebebeb"/>
        <rect id="Rectangle_3577" data-name="Rectangle 3577" width="2.686" height="0.304" transform="translate(65.275 15.985)" fill="#ebebeb"/>
        <rect id="Rectangle_3578" data-name="Rectangle 3578" width="0.831" height="0.304" transform="translate(48.634 15.985)" fill="#ebebeb"/>
        <rect id="Rectangle_3579" data-name="Rectangle 3579" width="0.831" height="0.304" transform="translate(47.806 16.796)" fill="#a6a6a6"/>
        <rect id="Rectangle_3580" data-name="Rectangle 3580" width="4.903" height="0.304" transform="translate(49.239 16.796)" fill="#ebebeb"/>
        <rect id="Rectangle_3581" data-name="Rectangle 3581" width="6.292" height="0.304" transform="translate(55.541 17.607)" fill="#ebebeb"/>
        <rect id="Rectangle_3582" data-name="Rectangle 3582" width="6.042" height="0.304" transform="translate(54.64 16.796)" fill="#fec144"/>
        <rect id="Rectangle_3583" data-name="Rectangle 3583" width="0.831" height="0.304" transform="translate(47.806 17.607)" fill="#ebebeb"/>
        <path id="Path_2096" data-name="Path 2096" d="M342.553,74.5a.073.073,0,1,1-.1.1l-.321-.323h0V74.25h0v-.012h0l.321-.323a.073.073,0,0,1,.1.1l-.27.272Z" transform="translate(-294.234 -67.294)" fill="#fec144"/>
        <path id="Path_2097" data-name="Path 2097" d="M345.042,74.349l.279-.663a.061.061,0,0,1,.083-.034.063.063,0,0,1,.034.08l-.279.665a.066.066,0,0,1-.058.039h-.024a.066.066,0,0,1-.034-.087Z" transform="translate(-296.434 -67.103)" fill="#fec144"/>
        <path id="Path_2098" data-name="Path 2098" d="M347.592,74.024h0l-.321.323a.072.072,0,0,1-.1-.1l.27-.272-.27-.272a.073.073,0,1,1,.1-.1l.321.323h0v.012h0v.029h0Z" transform="translate(-298.027 -67.044)" fill="#fec144"/>
        <path id="Path_2099" data-name="Path 2099" d="M431.961,252.894h-.291v-.2h.1v-.1h.194Z" transform="translate(-362.029 -202.596)" fill="#ebebeb"/>
        <path id="Path_2100" data-name="Path 2100" d="M390.04,253.2h-.391V253h.391Zm-.78,0h-.389V253h.389Zm-.777,0h-.389V253h.389Zm-.78,0h-.389V253h.389Zm-.777,0h-.389V253h.389Zm-.777,0h-.391V253h.391Zm-.78,0h-.389V253h.389Zm-.777,0h-.4V253h.389Zm-.78,0h-.389V253h.389Zm-.777,0h-.389V253h.389Zm-.777,0h-.391V253h.384Zm-.78,0h-.389V253h.389Zm-.777,0h-.393V253h.389Zm-.78,0h-.389V253h.389Zm-.777,0h-.389V253h.389Zm-.777,0h-.389V253h.386Zm-.78,0H377.2V253h.389Z" transform="translate(-320.787 -202.899)" fill="#ebebeb"/>
        <path id="Path_2101" data-name="Path 2101" d="M374.691,252.894H374.4V252.6h.194v.1h.1Z" transform="translate(-318.667 -202.596)" fill="#ebebeb"/>
        <path id="Path_2102" data-name="Path 2102" d="M374.594,210.977H374.4v-.389h.194Zm0-.777H374.4v-.389h.194Zm0-.78H374.4v-.386h.194Zm0-.777H374.4v-.389h.194Zm0-.777H374.4v-.391h.194Zm0-.78H374.4V206.7h.194Zm0-.777H374.4v-.389h.194Zm0-.777H374.4v-.384h.194Zm0-.78H374.4v-.389h.194Zm0-.777H374.4v-.389h.194Zm0-.78H374.4v-.389h.194Zm0-.777H374.4v-.389h.194Zm0-.777H374.4v-.379h.194Zm0-.78H374.4v-.389h.194Zm0-.777H374.4V199.7h.194Zm0-.78H374.4v-.389h.194Zm0-.777H374.4v-.389h.194Z" transform="translate(-318.667 -161.362)" fill="#ebebeb"/>
        <path id="Path_2103" data-name="Path 2103" d="M374.594,195.624H374.4v-.294h.291v.2h-.1Z" transform="translate(-318.667 -159.234)" fill="#ebebeb"/>
        <path id="Path_2104" data-name="Path 2104" d="M390.04,195.527h-.391v-.2h.391Zm-.78,0h-.389v-.2h.389Zm-.777,0h-.389v-.2h.389Zm-.78,0h-.389v-.2h.389Zm-.777,0h-.389v-.2h.389Zm-.777,0h-.391v-.2h.391Zm-.78,0h-.389v-.2h.389Zm-.777,0h-.4v-.2h.389Zm-.78,0h-.389v-.2h.389Zm-.777,0h-.389v-.2h.389Zm-.777,0h-.391v-.2h.384Zm-.78,0h-.389v-.2h.389Zm-.777,0h-.393v-.2h.389Zm-.777,0h-.391v-.2h.391Zm-.78,0h-.389v-.2h.389Zm-.777,0h-.389v-.2h.386Zm-.78,0H377.2v-.2h.389Z" transform="translate(-320.787 -159.234)" fill="#ebebeb"/>
        <path id="Path_2105" data-name="Path 2105" d="M431.961,195.624h-.194v-.1h-.1v-.2h.291Z" transform="translate(-362.029 -159.234)" fill="#ebebeb"/>
        <path id="Path_2106" data-name="Path 2106" d="M432.264,210.977h-.194v-.389h.194Zm0-.777h-.194v-.389h.194Zm0-.777h-.194v-.389h.194Zm0-.78h-.194v-.389h.194Zm0-.777h-.194v-.389h.194Zm0-.78h-.194V206.7h.194Zm0-.777h-.194v-.389h.194Zm0-.777h-.194v-.384h.194Zm0-.78h-.194v-.389h.194Zm0-.777h-.194v-.389h.194Zm0-.78h-.194v-.389h.194Zm0-.777h-.194v-.389h.194Zm0-.777h-.194v-.379h.194Zm0-.78h-.194v-.389h.194Zm0-.777h-.194V199.7h.194Zm0-.78h-.194v-.389h.194Zm0-.777h-.194v-.389h.194Z" transform="translate(-362.332 -161.362)" fill="#ebebeb"/>
        <rect id="Rectangle_3584" data-name="Rectangle 3584" width="1.746" height="1.746" transform="translate(54.956 49.326)" fill="#fff"/>
        <path id="Path_2107" data-name="Path 2107" d="M372.733,251.343H370.79V249.4h1.943Zm-1.744-.194h1.552V249.6h-1.549Z" transform="translate(-315.934 -200.173)" fill="#ebebeb"/>
        <rect id="Rectangle_3585" data-name="Rectangle 3585" width="1.746" height="1.746" transform="translate(54.963 42.325)" fill="#fff"/>
        <path id="Path_2108" data-name="Path 2108" d="M372.733,222.5H370.79V220.56h1.943Zm-1.744-.194h1.552v-1.549h-1.549Z" transform="translate(-315.934 -178.337)" fill="#ebebeb"/>
        <rect id="Rectangle_3586" data-name="Rectangle 3586" width="1.746" height="1.746" transform="translate(54.963 35.321)" fill="#fff"/>
        <path id="Path_2109" data-name="Path 2109" d="M372.733,193.673H370.79V191.73h1.943Zm-1.744-.194h1.552v-1.552h-1.549Z" transform="translate(-315.934 -156.509)" fill="#ebebeb"/>
        <rect id="Rectangle_3587" data-name="Rectangle 3587" width="1.746" height="1.746" transform="translate(68.971 49.326)" fill="#fff"/>
        <path id="Path_2110" data-name="Path 2110" d="M430.4,251.343H428.46V249.4H430.4Zm-1.744-.194h1.549V249.6h-1.549Z" transform="translate(-359.598 -200.173)" fill="#ebebeb"/>
        <rect id="Rectangle_3588" data-name="Rectangle 3588" width="1.746" height="1.746" transform="translate(68.971 42.325)" fill="#fff"/>
        <path id="Path_2111" data-name="Path 2111" d="M430.4,222.5H428.46V220.56H430.4Zm-1.744-.194h1.549v-1.549h-1.549Z" transform="translate(-359.598 -178.337)" fill="#ebebeb"/>
        <rect id="Rectangle_3589" data-name="Rectangle 3589" width="1.746" height="1.746" transform="translate(68.971 35.321)" fill="#fff"/>
        <path id="Path_2112" data-name="Path 2112" d="M430.4,193.673H428.46V191.73H430.4Zm-1.744-.194h1.549v-1.552h-1.549Z" transform="translate(-359.598 -156.509)" fill="#ebebeb"/>
        <rect id="Rectangle_3590" data-name="Rectangle 3590" width="1.746" height="1.746" transform="translate(61.967 35.321)" fill="#fff"/>
        <path id="Path_2113" data-name="Path 2113" d="M401.573,193.673H399.63V191.73h1.943Zm-1.746-.194h1.552v-1.552h-1.552Z" transform="translate(-337.77 -156.509)" fill="#ebebeb"/>
        <rect id="Rectangle_3591" data-name="Rectangle 3591" width="1.746" height="1.746" transform="translate(61.96 49.326)" fill="#fff"/>
        <path id="Path_2114" data-name="Path 2114" d="M401.573,251.343H399.63V249.4h1.943Zm-1.746-.194h1.552V249.6h-1.552Z" transform="translate(-337.77 -200.173)" fill="#ebebeb"/>
        <rect id="Rectangle_3592" data-name="Rectangle 3592" width="23.63" height="30.175" transform="translate(36.917 17.454)" fill="#fff"/>
        <path id="Path_2115" data-name="Path 2115" d="M320.421,148.616H296.67v-30.3h23.751Zm-23.63-.121h23.516V118.441H296.8Z" transform="translate(-259.814 -100.927)" fill="#ebebeb"/>
        <rect id="Rectangle_3593" data-name="Rectangle 3593" width="23.63" height="2.259" transform="translate(36.917 17.454)" fill="#fec144"/>
        <path id="Path_2116" data-name="Path 2116" d="M320.421,120.7H296.67v-2.38h23.751Zm-23.63-.121h23.516v-2.137H296.8Z" transform="translate(-259.814 -100.927)" fill="#ebebeb"/>
        <path id="Path_2117" data-name="Path 2117" d="M302.107,121.518a.568.568,0,1,1-.568-.568A.568.568,0,0,1,302.107,121.518Z" transform="translate(-263.07 -102.918)" fill="#263238"/>
        <path id="Path_2118" data-name="Path 2118" d="M311.667,121.518a.568.568,0,1,1-.568-.568A.568.568,0,0,1,311.667,121.518Z" transform="translate(-270.308 -102.918)" fill="#ebebeb"/>
        <path id="Path_2119" data-name="Path 2119" d="M321.227,121.518a.568.568,0,1,1-.568-.568.568.568,0,0,1,.568.568Z" transform="translate(-277.546 -102.918)" fill="#455a64"/>
        <rect id="Rectangle_3594" data-name="Rectangle 3594" width="23.63" height="0.243" transform="translate(36.917 19.591)" fill="#ebebeb"/>
        <rect id="Rectangle_3595" data-name="Rectangle 3595" width="11.592" height="1.083" transform="translate(38.563 40.766)" fill="#c7c7c7"/>
        <rect id="Rectangle_3596" data-name="Rectangle 3596" width="20.337" height="0.653" transform="translate(38.563 42.869)" fill="#ebebeb"/>
        <rect id="Rectangle_3597" data-name="Rectangle 3597" width="20.337" height="0.653" transform="translate(38.563 44.115)" fill="#ebebeb"/>
        <rect id="Rectangle_3598" data-name="Rectangle 3598" width="20.337" height="0.653" transform="translate(38.563 45.358)" fill="#ebebeb"/>
        <rect id="Rectangle_3599" data-name="Rectangle 3599" width="20.3" height="18.37" transform="translate(58.883 39.43) rotate(180)" fill="#fff"/>
        <path id="Path_2120" data-name="Path 2120" d="M323.944,151.671H303.52V133.18h20.424Zm-20.3-.121h20.181V133.3H303.637Z" transform="translate(-265.001 -112.178)" fill="#ebebeb"/>
        <line id="Line_117" data-name="Line 117" x2="20.303" y2="18.37" transform="translate(38.58 21.063)" fill="#fff"/>
        <rect id="Rectangle_3600" data-name="Rectangle 3600" width="0.121" height="27.377" transform="matrix(0.671, -0.742, 0.742, 0.671, 38.54, 21.109)" fill="#ebebeb"/>
        <line id="Line_118" data-name="Line 118" x1="20.303" y2="18.37" transform="translate(38.58 21.063)" fill="#fff"/>
        <rect id="Rectangle_3601" data-name="Rectangle 3601" width="27.377" height="0.121" transform="translate(38.542 39.395) rotate(-42.15)" fill="#ebebeb"/>
        <rect id="Rectangle_3602" data-name="Rectangle 3602" width="23.63" height="15.603" transform="translate(0.061 0.061)" fill="#fff"/>
        <path id="Path_2121" data-name="Path 2121" d="M168.661,62.425H144.91V46.7h23.751Zm-23.63-.121H168.54V46.821H145.031Z" transform="translate(-144.91 -46.7)" fill="#ebebeb"/>
        <rect id="Rectangle_3603" data-name="Rectangle 3603" width="23.63" height="2.259" transform="translate(0.061 0.061)" fill="#fec144"/>
        <path id="Path_2122" data-name="Path 2122" d="M168.661,49.08H144.91V46.7h23.751Zm-23.63-.121H168.54V46.821H145.031Z" transform="translate(-144.91 -46.7)" fill="#ebebeb"/>
        <path id="Path_2123" data-name="Path 2123" d="M150.347,49.888a.568.568,0,1,1-.568-.568A.568.568,0,0,1,150.347,49.888Z" transform="translate(-148.166 -48.684)" fill="#263238"/>
        <path id="Path_2124" data-name="Path 2124" d="M159.907,49.888a.568.568,0,1,1-.568-.568A.568.568,0,0,1,159.907,49.888Z" transform="translate(-155.404 -48.684)" fill="#ebebeb"/>
        <path id="Path_2125" data-name="Path 2125" d="M169.457,49.888a.568.568,0,1,1-.568-.568A.568.568,0,0,1,169.457,49.888Z" transform="translate(-162.635 -48.684)" fill="#455a64"/>
        <rect id="Rectangle_3604" data-name="Rectangle 3604" width="23.63" height="0.243" transform="translate(0.061 2.198)" fill="#ebebeb"/>
        <path id="Path_2126" data-name="Path 2126" d="M167.045,74.47a.639.639,0,0,1,0,.9.648.648,0,0,1-.442.18.678.678,0,0,1-.461-.18l-2.82-2.861c-.032,0-.041-.029-.051-.061a.139.139,0,0,0-.029-.019.243.243,0,0,1-.032-.08.056.056,0,0,1-.029-.041c0-.019,0-.049-.019-.061a.059.059,0,0,1-.022-.049v-.253c0-.019.022-.029.022-.039a.154.154,0,0,1,.019-.08c.019-.029,0,0,0-.019a.544.544,0,0,1,.051-.092.019.019,0,0,1,.019-.019.175.175,0,0,1,.061-.07l2.829-2.861a.656.656,0,0,1,.9,0,.639.639,0,0,1,0,.9l-2.378,2.4Z" transform="translate(-158.713 -63.272)" fill="#ebebeb"/>
        <path id="Path_2127" data-name="Path 2127" d="M189.617,74.812l2.458-5.86a.556.556,0,0,1,.729-.291.542.542,0,0,1,.282.712l-2.455,5.872a.554.554,0,0,1-.51.33.486.486,0,0,1-.2-.039.542.542,0,0,1-.3-.724Z" transform="translate(-178.725 -63.294)" fill="#ebebeb"/>
        <path id="Path_2128" data-name="Path 2128" d="M211.62,72.432a.387.387,0,0,1-.07.07l-2.829,2.871a.658.658,0,0,1-.9,0,.639.639,0,0,1,0-.9l2.378-2.4-2.378-2.4a.639.639,0,0,1,0-.9.656.656,0,0,1,.9,0l2.82,2.861a.387.387,0,0,1,.07.07v.019a.622.622,0,0,1,.051.092v.019a.367.367,0,0,0,.032.09v.3a.7.7,0,0,0-.032.09v.032C211.661,72.374,211.641,72.391,211.62,72.432Z" transform="translate(-192.398 -63.272)" fill="#ebebeb"/>
        <g id="Group_115" data-name="Group 115" transform="translate(13.903 12.004)" opacity="0.7">
          <rect id="Rectangle_3605" data-name="Rectangle 3605" width="14.953" height="29.109" transform="translate(29.169 0.061) rotate(90)" fill="#fff"/>
          <path id="Path_2129" data-name="Path 2129" d="M231.39,111.2H202.16V96.13h29.23Zm-29.109-.121h28.982V96.251H202.281Z" transform="translate(-202.16 -96.13)" fill="#dbdbdb"/>
          <rect id="Rectangle_3606" data-name="Rectangle 3606" width="12.228" height="11.065" transform="translate(14.049 13.068) rotate(180)" fill="#fec144"/>
          <path id="Path_2130" data-name="Path 2130" d="M216.082,111.06a1.309,1.309,0,1,0,1.027-1.03A1.309,1.309,0,0,0,216.082,111.06Z" transform="translate(-212.682 -106.635)" opacity="0.1"/>
          <path id="Path_2131" data-name="Path 2131" d="M223.83,121.565h8.787l-4.393-5.955Z" transform="translate(-218.567 -110.879)" opacity="0.2"/>
          <path id="Path_2132" data-name="Path 2132" d="M209.66,128.058h7.254l-3.628-3.878Z" transform="translate(-207.839 -117.368)" fill="#fec144"/>
          <path id="Path_2133" data-name="Path 2133" d="M209.66,128.058h7.254l-3.628-3.878Z" transform="translate(-207.839 -117.368)" opacity="0.1"/>
          <rect id="Rectangle_3607" data-name="Rectangle 3607" width="12.228" height="2.385" transform="translate(1.821 10.686)" fill="#fec144"/>
          <rect id="Rectangle_3608" data-name="Rectangle 3608" width="12.228" height="2.385" transform="translate(1.821 10.686)" opacity="0.1"/>
          <rect id="Rectangle_3609" data-name="Rectangle 3609" width="10.416" height="0.758" transform="translate(16.096 2.006)" fill="#ebebeb"/>
          <rect id="Rectangle_3610" data-name="Rectangle 3610" width="10.416" height="0.758" transform="translate(16.096 3.575)" fill="#ebebeb"/>
          <rect id="Rectangle_3611" data-name="Rectangle 3611" width="10.416" height="0.758" transform="translate(16.096 5.144)" fill="#ebebeb"/>
          <rect id="Rectangle_3612" data-name="Rectangle 3612" width="10.416" height="0.758" transform="translate(16.096 6.713)" fill="#ebebeb"/>
          <rect id="Rectangle_3613" data-name="Rectangle 3613" width="10.416" height="0.758" transform="translate(16.096 8.281)" fill="#ebebeb"/>
        </g>
      </g>
      <g id="freepik--Device--inject-15" transform="translate(27.564 31.1)">
        <path id="Path_2134" data-name="Path 2134" d="M178.82,255.458H165.04v-1.071l13.78-.447Z" transform="translate(-165.04 -234.711)" fill="#455a64"/>
        <path id="Path_2135" data-name="Path 2135" d="M237.327,250.129h-9.076c-.777,0,.345-2.208,3.177-3.055S238.22,249.3,237.327,250.129Z" transform="translate(-212.718 -229.401)" fill="#37474f"/>
        <path id="Path_2136" data-name="Path 2136" d="M251.674,252.576a2.277,2.277,0,0,1,.075-.755,2.913,2.913,0,0,1,.3-.707,2.372,2.372,0,0,1,.5-.588,1.858,1.858,0,0,1,.668-.367,4.612,4.612,0,0,0-.537.5,3.792,3.792,0,0,0-.423.578,6.553,6.553,0,0,0-.583,1.336Z" transform="translate(-230.63 -231.849)" fill="#263238"/>
        <path id="Path_2137" data-name="Path 2137" d="M256.12,251.46a3.885,3.885,0,0,1,.8.282,4.906,4.906,0,0,1,.743.427,2.928,2.928,0,0,1,.634.593,1.259,1.259,0,0,1,.308.8,1.725,1.725,0,0,0-.452-.675,4.8,4.8,0,0,0-.631-.517C257.079,252.045,256.6,251.766,256.12,251.46Z" transform="translate(-234.001 -232.833)" fill="#263238"/>
        <path id="Path_2138" data-name="Path 2138" d="M224.337,191.211h-22.1l3.514-16.451h22.1Z" transform="translate(-193.206 -174.76)" fill="#455a64"/>
        <path id="Path_2139" data-name="Path 2139" d="M227.707,191.211h-22.1l3.514-16.451h22.1Z" transform="translate(-195.757 -174.76)" fill="#37474f"/>
        <path id="Path_2140" data-name="Path 2140" d="M245.907,206.711h-.517l.787-3.691h.517Z" transform="translate(-225.877 -196.157)" fill="#263238"/>
        <path id="Path_2141" data-name="Path 2141" d="M250.117,206.711H249.6l.787-3.691h.517Z" transform="translate(-229.064 -196.157)" fill="#263238"/>
        <path id="Path_2142" data-name="Path 2142" d="M254.327,206.711h-.517l.787-3.691h.517Z" transform="translate(-232.252 -196.157)" fill="#263238"/>
        <path id="Path_2143" data-name="Path 2143" d="M258.54,206.711h-.52l.787-3.691h.517Z" transform="translate(-235.439 -196.157)" fill="#263238"/>
        <path id="Path_2144" data-name="Path 2144" d="M262.75,206.711h-.52l.787-3.691h.52Z" transform="translate(-238.627 -196.157)" fill="#263238"/>
        <path id="Path_2145" data-name="Path 2145" d="M266.96,206.711h-.52l.787-3.691h.52Z" transform="translate(-241.814 -196.157)" fill="#263238"/>
        <path id="Path_2146" data-name="Path 2146" d="M271.17,206.711h-.52l.787-3.691h.52Z" transform="translate(-245.002 -196.157)" fill="#263238"/>
        <path id="Path_2147" data-name="Path 2147" d="M236.98,256.467H226.11v-.845l10.87-.352Z" transform="translate(-211.279 -235.718)" fill="#455a64"/>
        <path id="Path_2148" data-name="Path 2148" d="M253.88,231.449h-5.836l-3.514-9.219h5.836Z" transform="translate(-225.225 -210.702)" fill="#455a64"/>
        <path id="Path_2149" data-name="Path 2149" d="M257.84,231.449H252l-3.514-9.219h5.836Z" transform="translate(-228.224 -210.702)" fill="#263238"/>
      </g>
      <g id="freepik--Plant--inject-15" transform="translate(65.865 52.335)">
        <path id="Path_2150" data-name="Path 2150" d="M335.682,337.968s-5.384-1.214-8.335-3.939-4.6-7.589-4.6-7.589a46.4,46.4,0,0,1,6.045,1.593,10.062,10.062,0,0,1,1.826,2.582,12.542,12.542,0,0,0,.015-1.846,8.257,8.257,0,0,1,1.916,1.163C335,332.067,335.682,337.968,335.682,337.968Z" transform="translate(-322.75 -310.839)" fill="#fec144"/>
        <path id="Path_2151" data-name="Path 2151" d="M329.682,331.247c-.729-.51-1.481-1-2.212-1.51a.044.044,0,0,1,.044-.073c1.389.828,2.756,1.715,4.078,2.642.461.323.916.661,1.362,1l-.092-.16c-.163-.27-.333-.534-.5-.8a11.33,11.33,0,0,0-1.144-1.528c-.015-.017.012-.041.027-.024.42.486.838.971,1.214,1.474a8.394,8.394,0,0,1,.51.755c.085.134.165.27.243.406l.08.138c.7.546,1.375,1.117,2.021,1.719.4.374.784.758,1.156,1.156-.206-.651-.389-1.309-.631-1.943,0-.022.029-.029.036,0,.243.673.486,1.348.673,2.04q.619.665,1.178,1.387a.379.379,0,0,0-.019-.087c-.061-.243-.124-.508-.192-.758-.131-.486-.274-.971-.44-1.457a8.362,8.362,0,0,0-1.438-2.727c-.015-.019.012-.044.027-.027a10.515,10.515,0,0,1,2.062,4.306c.056.231.112.459.163.69.029.121.061.243.083.372.163.221.321.442.474.67a23.321,23.321,0,0,1,2.278,4.469,51.333,51.333,0,0,1,1.727,5.377c0,.036-.044.049-.056.015a40.424,40.424,0,0,0-3.929-9.161c-.381-.6-.794-1.168-1.231-1.722a10.159,10.159,0,0,1-2.618-.52,11.676,11.676,0,0,1-2.623-1.268,16.554,16.554,0,0,1-1.345-1.015.019.019,0,1,1,.024-.029,10.686,10.686,0,0,0,2.467,1.486,13.527,13.527,0,0,0,2.713.906c.4.087.8.151,1.214.206a23.184,23.184,0,0,0-1.588-1.761c-.182-.18-.369-.355-.556-.529a12.631,12.631,0,0,0-1.991-1.139c-.882-.427-1.749-.879-2.623-1.324-.486-.243-.971-.508-1.479-.748-.019-.012,0-.041.019-.032.886.427,1.785.826,2.671,1.236.843.384,1.7.77,2.5,1.214l.1.061c-.729-.634-1.484-1.241-2.256-1.824C331.141,332.282,330.418,331.755,329.682,331.247Z" transform="translate(-326.313 -313.278)" fill="#263238"/>
        <path id="Path_2152" data-name="Path 2152" d="M337.81,347.6c.437.192.884.362,1.316.566s.867.452,1.292.7c.017.012,0,.036-.017.029-.43-.206-.865-.4-1.29-.612s-.867-.454-1.314-.648C337.778,347.632,337.788,347.6,337.81,347.6Z" transform="translate(-334.135 -326.863)" fill="#263238"/>
        <path id="Path_2153" data-name="Path 2153" d="M404.466,262.2a7.687,7.687,0,0,0-1.608,4.471c-.019.486.058,1.154.114,1.943a12.681,12.681,0,0,0-3.5,3.009,6.29,6.29,0,0,1,3.551-.85,10.557,10.557,0,0,1-.206,1.608,6.039,6.039,0,0,0-2.283.452,5.134,5.134,0,0,1,2.059.408c-.959,3.055-3.813,6.19-11.689,7.529a16.532,16.532,0,0,1,1.394-11.089C394.655,265.034,404.466,262.2,404.466,262.2Z" transform="translate(-374.049 -262.2)" fill="#fec144"/>
        <path id="Path_2154" data-name="Path 2154" d="M380.039,300.35q.206-1.957.51-3.9a77.858,77.858,0,0,1,1.588-7.708,30.573,30.573,0,0,1,1.139-3.514,4.546,4.546,0,0,1-.029-.631v-.755q0-.758.073-1.513a18.17,18.17,0,0,1,.486-2.953c.143-.561.311-1.112.486-1.668a.019.019,0,0,1,.018-.013.02.02,0,0,1,.018.013,21.736,21.736,0,0,0-.583,2.948,27.981,27.981,0,0,0-.284,2.968c0,.27-.015.539-.015.811v.347a24.825,24.825,0,0,1,1.338-2.744,33.714,33.714,0,0,1,2.7-4.034,1.8,1.8,0,0,1,.066-.44c.036-.177.075-.352.114-.527.08-.359.17-.729.27-1.073.194-.714.454-1.4.678-2.108a.017.017,0,1,1,.034,0c-.209.7-.345,1.421-.505,2.13-.08.352-.155.7-.243,1.056-.039.175-.078.35-.114.527v.039c.321-.4.644-.8.971-1.188,1.5-1.763,3.157-3.4,4.813-5.005.2-.2.413-.393.619-.59a.019.019,0,0,1,.027.027c-1.586,1.656-3.157,3.33-4.629,5.081-.35.418-.7.838-1.037,1.265.18-.121.359-.243.537-.355.459-.3.923-.593,1.4-.86s.959-.529,1.457-.775,1.047-.454,1.532-.729c.022-.012.039.022.019.032a11.382,11.382,0,0,0-1.438.8c-.486.284-.959.571-1.43.869s-.928.583-1.387.882c-.384.243-.76.52-1.158.75a37.814,37.814,0,0,0-2.523,3.672,27.633,27.633,0,0,0-1.3,2.475l.282-.122.729-.32c.464-.206.93-.408,1.394-.61.884-.384,1.78-.729,2.647-1.158a11.986,11.986,0,0,0,1.413-.784c.019-.015.036.017.019.032a31.584,31.584,0,0,1-5.214,2.688l-.775.342c-.214.095-.427.2-.646.282a27.885,27.885,0,0,0-1.333,3.643,74.423,74.423,0,0,0-1.712,7.621c-.452,2.572-.758,5.163-.993,7.771-.029.325-.058.648-.1.971a.1.1,0,1,1-.2,0C379.767,302.985,379.9,301.661,380.039,300.35Z" transform="translate(-365.915 -268.725)" fill="#263238"/>
        <path id="Path_2155" data-name="Path 2155" d="M399.739,295.424c.146-.8.359-1.583.576-2.368,0-.024.039-.012.034,0-.2.77-.342,1.554-.486,2.336s-.279,1.6-.391,2.4c0,.012-.022.015-.022,0a21.581,21.581,0,0,1,.289-2.365Z" transform="translate(-380.823 -285.552)" fill="#263238"/>
        <path id="Path_2156" data-name="Path 2156" d="M414.549,306.125a13.96,13.96,0,0,1,1.715-.971c.287-.148.578-.289.867-.43s.612-.267.908-.415a.019.019,0,0,1,.019.032c-.289.143-.561.318-.845.474s-.58.321-.874.486c-.576.308-1.141.651-1.746.9a.045.045,0,1,1-.044-.078Z" transform="translate(-392.238 -294.082)" fill="#263238"/>
        <path id="Path_2157" data-name="Path 2157" d="M343.777,292.981s-4.981-1.19-7.269-4.532c-2.186-3.191-2.89-8.631-2.948-9.11.09.437,1.12,5.192,4.51,7.407C340.666,288.445,343.177,289.839,343.777,292.981Z" transform="translate(-330.935 -275.177)" fill="#263238" opacity="0.1"/>
        <path id="Path_2158" data-name="Path 2158" d="M356.617,300.066a6.38,6.38,0,0,1,1.836,3.024h-.017a7.41,7.41,0,0,0-1.846-3,.019.019,0,0,1,.008-.017A.019.019,0,0,1,356.617,300.066Z" transform="translate(-348.372 -290.869)" fill="#263238"/>
        <path id="Path_2159" data-name="Path 2159" d="M343.775,292.875s-4.981-1.19-7.269-4.532c-2.186-3.191-2.89-8.631-2.948-9.11a.2.2,0,0,1,0-.034s2.39,3.4,4.9,4.262S344.494,287.324,343.775,292.875Z" transform="translate(-330.933 -275.071)" fill="#fec144"/>
        <path id="Path_2160" data-name="Path 2160" d="M337.092,286.885a20.09,20.09,0,0,0,1.54,2.633,10.551,10.551,0,0,0,2.05,2.11c.675.537,1.392,1.025,2.076,1.549l-.017-.024c-.129-.189-.265-.376-.408-.556-.284-.364-.595-.709-.908-1.049-.619-.673-1.253-1.331-1.807-2.057a7.482,7.482,0,0,1-.8-1.287c0-.022.024-.034.034,0,.809,1.683,2.429,2.761,3.575,4.182a7.752,7.752,0,0,1,.459.631,2.518,2.518,0,0,1,.287.505,10.53,10.53,0,0,1,1.7,1.717,6.894,6.894,0,0,0-.2-.971,4.869,4.869,0,0,0-.529-1.26c-.012-.019.019-.041.032-.022a6.007,6.007,0,0,1,.58,1.256,4.4,4.4,0,0,1,.182,1.076h0a9.833,9.833,0,0,1,.673,1.047c-.022-.107-.041-.214-.063-.321-.1-.486-.206-.991-.335-1.479a8.883,8.883,0,0,0-1.2-2.8.019.019,0,0,1,.032-.019,10.779,10.779,0,0,1,1.328,2.744c.158.486.284.986.4,1.489.056.243.1.486.151.729.024.126.053.257.073.389a17.79,17.79,0,0,1,1.149,3.376,49.369,49.369,0,0,1,1.076,6.3,52.593,52.593,0,0,1,.342,6.688c0,.279-.019.559-.036.84a.057.057,0,1,1-.114,0c-.049-1.105-.078-2.21-.143-3.315s-.163-2.208-.279-3.31a58.859,58.859,0,0,0-1.052-6.436,16.557,16.557,0,0,0-1.923-5.251,9.893,9.893,0,0,0-1.8-2.137c-.7-.627-1.457-1.175-2.186-1.756a12.026,12.026,0,0,1-2.018-1.943,15.77,15.77,0,0,1-1.583-2.572c-.117-.226-.243-.449-.357-.675C337.048,286.885,337.079,286.865,337.092,286.885Z" transform="translate(-333.587 -280.884)" fill="#263238"/>
        <path id="Path_2161" data-name="Path 2161" d="M340.6,289.885a16.675,16.675,0,0,0,1.11,1.943c0,.015-.015.029-.024.015a13.771,13.771,0,0,1-1.122-1.943C340.555,289.875,340.592,289.863,340.6,289.885Z" transform="translate(-336.237 -283.153)" fill="#263238"/>
        <path id="Path_2162" data-name="Path 2162" d="M408.712,326.44s.08,7.079-4.153,9.122-6.5.342-9.379,1.027h0a10.382,10.382,0,0,1,5.43-3.932C403.974,331.814,407.694,329.388,408.712,326.44Z" transform="translate(-377.59 -310.839)" fill="#fec144"/>
        <path id="Path_2163" data-name="Path 2163" d="M408.712,326.44s.08,7.079-4.153,9.122-6.5.342-9.379,1.027h0a16.028,16.028,0,0,1,4.813-1.423A9.7,9.7,0,0,0,408.712,326.44Z" transform="translate(-377.59 -310.839)" opacity="0.1"/>
        <path id="Path_2164" data-name="Path 2164" d="M383.771,350.213a7.119,7.119,0,0,1,1.683-1.141c.092-.044.185-.078.277-.117a1.83,1.83,0,0,1,.143-.163,4.889,4.889,0,0,1,.4-.379,5.865,5.865,0,0,1,.85-.614c.7-.413,1.472-.7,2.186-1.083a.018.018,0,0,1,.017.032c-.354.185-.7.386-1.042.588s-.678.384-1.005.593a7.263,7.263,0,0,0-.838.629c-.073.066-.146.136-.216.209a11.167,11.167,0,0,1,1.43-.381c.775-.155,1.559-.267,2.331-.432a10.475,10.475,0,0,0,1.122-.3c.352-.282.7-.563,1.035-.869a8.378,8.378,0,0,0,1.1-1.214c.015-.019.046,0,.032.019a12.983,12.983,0,0,1-1.736,1.916c.182-.07.364-.143.542-.226a8.743,8.743,0,0,0,3.606-3c.015-.02.046,0,.032.017a9.9,9.9,0,0,1-2.914,2.8,8.785,8.785,0,0,1-1.846.872,16.787,16.787,0,0,1-2.29.542,16.209,16.209,0,0,0-2.244.534,6.734,6.734,0,0,0-1.88.991,8.785,8.785,0,0,0-2.531,3.155,15.772,15.772,0,0,0-1.4,5.175c0,.075-.126.075-.121,0C380.689,355.373,381.485,352.279,383.771,350.213Z" transform="translate(-366.467 -324.336)" fill="#263238"/>
        <path id="Path_2165" data-name="Path 2165" d="M414.25,354.089a2.446,2.446,0,0,1,.869-.789,3.175,3.175,0,0,0,1.035-.855c.015-.019.046,0,.032.019a3.5,3.5,0,0,1-.913.818,3.171,3.171,0,0,0-1,.823C414.265,354.123,414.238,354.106,414.25,354.089Z" transform="translate(-392.027 -330.522)" fill="#263238"/>
        <path id="Path_2166" data-name="Path 2166" d="M372.445,390.26l-.192,3.893-.59,11.893h-8.881l-.59-11.893L362,390.26Z" transform="translate(-352.468 -359.16)" fill="#37474f"/>
        <path id="Path_2167" data-name="Path 2167" d="M372.445,390.26l-.192,3.893H362.192L362,390.26Z" transform="translate(-352.468 -359.16)" fill="#263238"/>
        <rect id="Rectangle_3614" data-name="Rectangle 3614" width="11.691" height="3.713" transform="translate(8.91 29.475)" fill="#37474f"/>
      </g>
    </g>
  </g>
</svg>
