<svg xmlns="http://www.w3.org/2000/svg" width="358.044" height="78.168" viewBox="0 0 358.044 78.168">
  <g id="Group_879" data-name="Group 879" transform="translate(7449.546 -1680)">
    <g id="Group_878" data-name="Group 878">
      <path id="Path_4916" data-name="Path 4916" d="M214.863,67.059a25.48,25.48,0,0,1-1.908,9.9,24.794,24.794,0,0,1-5.184,7.935,24.171,24.171,0,0,1-7.687,5.272,24.054,24.054,0,0,1-18.882,0,24.269,24.269,0,0,1-12.915-13.207,25.6,25.6,0,0,1-1.908-9.9,25.876,25.876,0,0,1,1.908-10.014,24.558,24.558,0,0,1,5.206-7.957,24.121,24.121,0,0,1,7.709-5.25,23.514,23.514,0,0,1,9.419-1.908,24.851,24.851,0,0,1,9.463,1.792,22.844,22.844,0,0,1,7.687,5.1,24.146,24.146,0,0,1,5.184,7.935A26.787,26.787,0,0,1,214.863,67.059Zm-12.187,0a14.078,14.078,0,0,0-.954-5.294,12.593,12.593,0,0,0-2.592-4.075,11.234,11.234,0,0,0-3.833-2.614,12.471,12.471,0,0,0-9.353,0,10.99,10.99,0,0,0-3.811,2.614,12.4,12.4,0,0,0-2.548,4.075,14.341,14.341,0,0,0-.932,5.294,13.657,13.657,0,0,0,.932,5.1,12.885,12.885,0,0,0,2.548,4.075,11.9,11.9,0,0,0,3.811,2.724,11.129,11.129,0,0,0,4.676,1,11.785,11.785,0,0,0,8.509-3.546,12.3,12.3,0,0,0,2.592-4.075A14.146,14.146,0,0,0,202.676,67.059Z" transform="translate(-7529.58 1661.996)" fill="#263238"/>
      <path id="Path_4917" data-name="Path 4917" d="M300.8,87.151a32.539,32.539,0,0,1-3.127,2.5,23.731,23.731,0,0,1-3.48,2.04,21.554,21.554,0,0,1-4.583,1.577,13.573,13.573,0,0,1-2.581.3,22.057,22.057,0,0,1-8.746-1.544A20.04,20.04,0,0,1,266.96,80.66a24.275,24.275,0,0,1-1.66-9.2V51.257a6.025,6.025,0,0,1,6.027-6.027h0a6.025,6.025,0,0,1,6.027,6.027V71.468a11.7,11.7,0,0,0,.733,4.279,9.384,9.384,0,0,0,1.974,3.171,8.315,8.315,0,0,0,2.9,1.952,9.569,9.569,0,0,0,3.568.667,7.5,7.5,0,0,0,3.524-.866,9.78,9.78,0,0,0,2.9-2.283,10.964,10.964,0,0,0,1.952-3.215,9.965,9.965,0,0,0,.711-3.7V51.257a6.025,6.025,0,0,1,6.027-6.027h.044a6.025,6.025,0,0,1,6.027,6.027v39.5a1.935,1.935,0,0,1-1.936,1.936h0a1.931,1.931,0,0,1-1.572-.805Z" transform="translate(-7573.951 1660.516)" fill="#263238"/>
      <path id="Path_4918" data-name="Path 4918" d="M363.6,31.57V18.627a6.025,6.025,0,0,1,6.027-6.027h0a6.025,6.025,0,0,1,6.027,6.027V31.57h12.319A6.025,6.025,0,0,1,394,37.6h0a6.025,6.025,0,0,1-6.027,6.027H375.655V57.719a8.981,8.981,0,0,0,.711,3.568,9.143,9.143,0,0,0,1.952,2.9,9.455,9.455,0,0,0,2.923,1.974,8.858,8.858,0,0,0,3.59.733h3.149a6.025,6.025,0,0,1,6.027,6.027h0a6.025,6.025,0,0,1-6.027,6.027h-3.149a20.6,20.6,0,0,1-8.244-1.66A21.443,21.443,0,0,1,365.26,65.964a20.583,20.583,0,0,1-1.66-8.244v-14.1" transform="translate(-7623.768 1675.152)" fill="#263238"/>
      <path id="Path_4919" data-name="Path 4919" d="M437.113,78.945h0a6.1,6.1,0,0,1-6.093-6.093V18.693a6.1,6.1,0,0,1,6.093-6.093h0a6.1,6.1,0,0,1,6.093,6.093V72.851A6.092,6.092,0,0,1,437.113,78.945Z" transform="translate(-7654.715 1675.157)" fill="#263238"/>
      <path id="Path_4920" data-name="Path 4920" d="M475.934,94.3h0a6.1,6.1,0,0,1-6.094-6.093V52.933a6.1,6.1,0,0,1,6.094-6.093h0a6.1,6.1,0,0,1,6.093,6.093V88.21A6.1,6.1,0,0,1,475.934,94.3Z" transform="translate(-7673.165 1659.793)" fill="#263238"/>
      <path id="Path_4921" data-name="Path 4921" d="M514.709,93.55h0A6.048,6.048,0,0,1,508.66,87.5V48.094a2.008,2.008,0,0,1,2.007-2.007h0a2,2,0,0,1,1.516.695L515.57,50.7a21.275,21.275,0,0,1,14.354-5.537,20.486,20.486,0,0,1,8.2,1.66,21.3,21.3,0,0,1,6.739,4.566,21.553,21.553,0,0,1,4.544,6.783,20.747,20.747,0,0,1,1.66,8.266V87.506a6.048,6.048,0,0,1-6.049,6.049h0a6.048,6.048,0,0,1-6.049-6.049V66.424a8.864,8.864,0,0,0-.711-3.524,9.172,9.172,0,0,0-4.831-4.853,8.7,8.7,0,0,0-3.5-.711,9.1,9.1,0,0,0-8.465,5.564,8.864,8.864,0,0,0-.711,3.524V87.495A6.033,6.033,0,0,1,514.709,93.55Z" transform="translate(-7691.615 1660.547)" fill="#263238"/>
      <path id="Path_4922" data-name="Path 4922" d="M618.019,79.571a.03.03,0,0,0,.017.05,7.132,7.132,0,0,0,1.373.276c.474.044.943.066,1.417.066a11.906,11.906,0,0,0,3.413-.485,12.428,12.428,0,0,0,3.083-1.4,11.569,11.569,0,0,0,2.57-2.217h0a3.115,3.115,0,0,1,4.566-.165l4.224,4.241a3.054,3.054,0,0,1,.1,4.2,23.175,23.175,0,0,1-2.068,2.029,24.619,24.619,0,0,1-4.742,3.237,23.616,23.616,0,0,1-5.36,2.018,24.316,24.316,0,0,1-5.785.689A23.974,23.974,0,0,1,603.7,85.063,24.3,24.3,0,0,1,598.5,77.15a26.073,26.073,0,0,1-1.908-10.08A26.8,26.8,0,0,1,598.5,56.79,23.217,23.217,0,0,1,611.413,43.76a24.537,24.537,0,0,1,9.419-1.82,23.785,23.785,0,0,1,5.807.711,24.349,24.349,0,0,1,5.382,2.04,24.645,24.645,0,0,1,4.765,3.259l.044.039a5.846,5.846,0,0,1,.656,8.139Zm5.217-23.646a1.041,1.041,0,0,0-.689-1.665h-.017a15.445,15.445,0,0,0-1.7-.088,12.081,12.081,0,0,0-4.676.91,11.161,11.161,0,0,0-3.81,2.592,12.185,12.185,0,0,0-2.548,4.053,14.548,14.548,0,0,0-.932,5.338q0,.662.066,1.505a16.759,16.759,0,0,0,.221,1.7c.1.574.232,1.13.375,1.66a6.207,6.207,0,0,0,.551,1.373.034.034,0,0,0,.055.006Z" transform="translate(-7731.072 1661.991)" fill="#263238"/>
      <circle id="Ellipse_208" data-name="Ellipse 208" cx="8.272" cy="8.272" r="8.272" transform="translate(-7205.442 1685)" fill="#3a7ce1"/>
    </g>
    <g id="Group_856" data-name="Group 856" transform="translate(-7449.546 1680)">
      <path id="Path_4923" data-name="Path 4923" d="M20.17,29.07H34.695a3.91,3.91,0,0,0,3.91-3.91h0a3.91,3.91,0,0,0-3.91-3.91H20.17a3.91,3.91,0,0,0-3.91,3.91h0A3.907,3.907,0,0,0,20.17,29.07Z" transform="translate(-7.293 -9.526)" fill="#263238"/>
      <path id="Path_4924" data-name="Path 4924" d="M67.66,29.07H93.87a3.91,3.91,0,0,0,3.91-3.91h0a3.91,3.91,0,0,0-3.91-3.91H67.66a3.91,3.91,0,0,0-3.91,3.91h0A3.907,3.907,0,0,0,67.66,29.07Z" transform="translate(-28.595 -9.526)" fill="#263238"/>
      <path id="Path_4925" data-name="Path 4925" d="M60.61,7.81h7.8a3.91,3.91,0,0,0,3.91-3.91h0a3.91,3.91,0,0,0-3.91-3.91L60.61,0a3.91,3.91,0,0,0-3.91,3.91h0A3.913,3.913,0,0,0,60.61,7.81Z" transform="translate(-25.433 0.01)" fill="#263238"/>
      <path id="Path_4926" data-name="Path 4926" d="M103.369,106.3H88.85a3.91,3.91,0,0,0-3.91,3.91h0a3.91,3.91,0,0,0,3.91,3.91h14.525a3.91,3.91,0,0,0,3.91-3.91h0A3.915,3.915,0,0,0,103.369,106.3Z" transform="translate(-38.1 -47.676)" fill="#263238"/>
      <path id="Path_4927" data-name="Path 4927" d="M46.38,106.3H20.17a3.91,3.91,0,0,0-3.91,3.91h0a3.91,3.91,0,0,0,3.91,3.91H46.38a3.91,3.91,0,0,0,3.91-3.91h0A3.914,3.914,0,0,0,46.38,106.3Z" transform="translate(-7.293 -47.676)" fill="#263238"/>
      <path id="Path_4928" data-name="Path 4928" d="M68.393,127.56h-7.8a3.91,3.91,0,0,0-3.91,3.91h0a3.91,3.91,0,0,0,3.91,3.91h7.8a3.91,3.91,0,0,0,3.91-3.91h0A3.906,3.906,0,0,0,68.393,127.56Z" transform="translate(-25.424 -57.212)" fill="#263238"/>
      <path id="Path_4929" data-name="Path 4929" d="M7.61,50.33h9.573a3.91,3.91,0,0,0,3.91-3.91h0a3.91,3.91,0,0,0-3.91-3.91H7.61A3.91,3.91,0,0,0,3.7,46.42h0A3.914,3.914,0,0,0,7.61,50.33Z" transform="translate(-1.66 -19.062)" fill="#263238"/>
      <path id="Path_4930" data-name="Path 4930" d="M46.42,50.33H69.884a3.91,3.91,0,0,0,3.91-3.91h0a3.91,3.91,0,0,0-3.91-3.91H46.42a3.91,3.91,0,0,0-3.91,3.91h0A3.914,3.914,0,0,0,46.42,50.33Z" transform="translate(-19.068 -19.062)" fill="#263238"/>
      <path id="Path_4931" data-name="Path 4931" d="M110.19,50.33h9.7a3.91,3.91,0,0,0,3.91-3.91h0a3.91,3.91,0,0,0-3.91-3.91h-9.7a3.91,3.91,0,0,0-3.91,3.91h0A3.907,3.907,0,0,0,110.19,50.33Z" transform="translate(-47.672 -19.062)" fill="#263238"/>
      <path id="Path_4932" data-name="Path 4932" d="M7.61,92.88h9.573a3.91,3.91,0,0,0,3.91-3.91h0a3.91,3.91,0,0,0-3.91-3.91H7.61A3.91,3.91,0,0,0,3.7,88.97h0A3.914,3.914,0,0,0,7.61,92.88Z" transform="translate(-1.66 -38.148)" fill="#263238"/>
      <path id="Path_4933" data-name="Path 4933" d="M46.42,92.88H69.884a3.91,3.91,0,0,0,3.91-3.91h0a3.91,3.91,0,0,0-3.91-3.91H46.42a3.91,3.91,0,0,0-3.91,3.91h0A3.914,3.914,0,0,0,46.42,92.88Z" transform="translate(-19.068 -38.148)" fill="#263238"/>
      <path id="Path_4934" data-name="Path 4934" d="M110.19,92.88h9.7a3.91,3.91,0,0,0,3.91-3.91h0a3.91,3.91,0,0,0-3.91-3.91h-9.7a3.91,3.91,0,0,0-3.91,3.91h0A3.907,3.907,0,0,0,110.19,92.88Z" transform="translate(-47.672 -38.148)" fill="#3a7ce1"/>
      <path id="Path_4935" data-name="Path 4935" d="M3.91,71.58H74.252a3.91,3.91,0,0,0,3.91-3.91h0a3.91,3.91,0,0,0-3.91-3.91H3.91A3.915,3.915,0,0,0,0,67.675H0A3.906,3.906,0,0,0,3.91,71.58Z" transform="translate(0 -28.594)" fill="#263238"/>
    </g>
  </g>
</svg>
